{"glyphs":{"0":{"ha":896,"x_min":68,"x_max":826,"o":"m 189 469 q 240 211 189 314 q 447 78 307 78 q 654 211 588 78 q 706 469 706 314 q 654 726 706 625 q 447 858 588 858 q 242 725 308 858 q 189 469 189 622 m 826 469 q 742 135 826 264 q 447 -19 642 -19 q 153 135 253 -19 q 68 469 68 264 q 153 804 68 675 q 447 958 253 958 q 742 804 640 958 q 826 469 826 674 z "},"1":{"ha":896,"x_min":176,"x_max":739,"o":"m 397 186 l 397 760 q 383 831 397 810 q 322 853 369 853 q 286 850 310 853 q 251 847 263 847 q 197 892 197 847 q 260 943 197 943 q 305 939 275 943 q 350 935 335 935 q 410 939 371 935 q 471 943 450 943 q 515 933 503 943 q 526 890 526 922 q 524 838 526 872 q 521 785 521 803 l 521 188 q 535 118 521 139 q 599 92 551 92 q 641 94 613 92 q 683 97 669 97 q 739 50 739 97 q 672 -7 739 -7 q 563 -1 636 -7 q 453 6 489 6 q 345 -1 417 6 q 238 -7 274 -7 q 176 39 176 -7 q 247 97 176 97 q 283 94 260 97 q 319 92 307 92 q 385 118 368 92 q 397 186 397 136 z "},"2":{"ha":896,"x_min":68,"x_max":822,"o":"m 182 186 q 333 250 239 250 q 503 175 401 250 q 650 100 606 100 q 739 190 739 100 q 731 211 739 204 q 681 197 681 197 q 622 256 622 197 q 648 311 622 289 q 708 333 674 333 q 796 285 765 333 q 822 182 822 243 q 772 42 822 99 q 639 -19 721 -19 q 458 60 575 -19 q 275 139 340 139 q 224 129 250 139 q 188 97 188 117 q 222 71 204 85 q 240 36 240 57 q 172 -19 240 -19 q 92 32 119 -19 q 68 131 68 74 q 130 309 68 224 q 339 454 192 394 q 564 540 451 497 q 669 686 669 594 q 596 824 669 775 q 439 867 532 867 q 301 839 365 867 q 217 742 217 804 q 228 721 217 721 q 239 723 231 721 q 253 725 247 725 q 290 663 290 725 q 263 602 290 625 q 197 579 236 579 q 124 612 150 579 q 97 692 97 644 q 207 892 97 819 q 436 956 301 956 q 675 893 583 956 q 783 681 783 819 q 629 451 783 526 q 342 353 485 403 q 182 186 185 296 z "},"3":{"ha":896,"x_min":67,"x_max":811,"o":"m 617 831 l 275 831 q 214 761 214 831 q 217 719 214 747 q 219 678 219 692 q 169 622 219 622 q 121 683 121 622 q 125 738 121 701 q 129 792 129 774 q 125 840 129 808 q 121 888 121 871 q 194 936 121 936 l 703 936 q 761 931 744 936 q 792 886 792 919 q 760 826 792 858 l 514 583 q 811 317 811 583 q 697 60 811 149 q 419 -19 593 -19 q 181 46 279 -19 q 67 256 67 122 q 104 363 67 318 q 203 407 142 407 q 261 385 238 407 q 285 328 285 363 q 235 266 285 286 q 186 236 186 246 q 269 117 186 161 q 421 78 340 78 q 614 135 542 78 q 694 314 694 197 q 503 494 694 494 q 433 487 479 494 q 363 479 386 479 q 325 511 325 479 q 347 556 325 533 l 617 831 z "},"4":{"ha":896,"x_min":42,"x_max":850,"o":"m 525 167 l 525 283 l 136 283 q 42 339 42 283 q 72 406 42 367 l 439 867 q 564 950 506 950 q 643 850 643 950 l 643 383 l 778 383 q 850 333 850 383 q 778 283 850 283 l 643 283 l 643 165 q 721 86 643 86 q 755 89 732 86 q 789 92 778 92 q 842 49 842 92 q 826 10 842 26 q 788 -7 810 -7 q 688 -1 754 -7 q 588 6 621 6 q 485 -1 553 6 q 383 -7 418 -7 q 322 39 322 -7 q 336 74 322 57 q 367 92 350 92 q 401 89 378 92 q 436 86 425 86 q 505 103 485 86 q 525 167 525 119 m 171 383 l 525 383 l 525 826 l 171 383 z "},"5":{"ha":896,"x_min":71,"x_max":800,"o":"m 229 561 q 468 644 308 644 q 708 558 617 644 q 800 322 800 471 q 688 68 800 163 q 419 -19 583 -19 q 190 38 289 -19 q 71 228 71 107 q 103 315 71 281 q 186 349 135 349 q 242 326 219 349 q 264 269 264 303 q 229 219 264 243 q 194 190 194 196 q 278 106 194 138 q 407 81 343 81 q 600 139 528 81 q 681 319 681 203 q 617 487 681 429 q 444 544 554 544 q 310 513 374 544 q 222 451 275 494 q 167 419 182 419 q 118 482 118 419 q 131 672 118 546 q 144 861 144 799 q 211 935 144 935 l 633 935 q 690 931 679 935 q 725 735 725 917 q 681 689 725 689 q 635 740 635 689 q 635 745 635 742 q 635 750 635 749 q 619 806 635 789 q 525 832 596 832 l 282 832 q 244 793 247 832 l 229 561 z "},"6":{"ha":896,"x_min":81,"x_max":822,"o":"m 211 485 q 331 589 247 553 q 488 619 401 619 q 731 538 640 619 q 822 300 822 451 q 717 61 822 149 q 464 -22 618 -22 q 164 124 261 -22 q 81 460 81 246 q 182 810 81 676 q 506 958 296 958 q 696 914 614 958 q 797 761 797 860 q 771 690 797 717 q 700 664 744 664 q 649 684 669 664 q 628 733 628 704 q 638 768 628 751 q 660 800 649 785 q 594 849 660 828 q 503 864 542 864 q 274 746 349 864 q 211 485 211 647 m 704 299 q 642 463 704 406 q 471 521 579 521 q 301 463 363 521 q 239 299 239 406 q 301 135 239 192 q 471 78 363 78 q 642 135 579 78 q 704 299 704 192 z "},"7":{"ha":896,"x_min":106,"x_max":814,"o":"m 713 756 l 710 758 q 590 711 653 711 q 415 776 515 711 q 288 840 314 840 q 203 744 203 840 q 208 674 203 721 q 214 603 214 626 q 161 543 214 543 q 106 603 106 543 q 112 676 106 628 q 118 750 118 725 q 112 824 118 775 q 106 899 106 874 q 150 961 106 961 q 190 921 183 961 q 190 856 190 919 q 328 949 226 949 q 499 876 392 949 q 646 803 606 803 q 714 838 689 803 q 654 899 654 856 q 728 954 654 954 q 814 822 814 954 q 725 617 814 706 q 558 461 642 539 q 469 192 469 354 q 473 136 469 174 q 476 81 476 99 q 407 -19 476 -19 q 328 106 328 -19 q 367 354 328 256 q 476 517 400 436 q 643 676 560 597 q 713 756 674 704 z "},"8":{"ha":896,"x_min":69,"x_max":826,"o":"m 194 285 q 274 132 194 185 q 447 86 343 86 q 621 132 553 86 q 700 285 700 185 q 621 438 700 385 q 447 482 553 482 q 275 436 343 482 q 194 285 194 385 m 258 728 q 321 621 258 657 q 447 592 372 592 q 574 621 524 592 q 636 728 636 657 q 574 833 636 797 q 447 861 522 861 q 321 832 372 861 q 258 728 258 797 m 614 539 q 826 278 826 485 q 707 49 826 129 q 447 -19 603 -19 q 188 51 290 -19 q 69 283 69 133 q 281 539 69 485 q 136 721 136 582 q 233 906 136 846 q 447 956 314 956 q 661 906 581 956 q 760 719 760 844 q 614 539 760 585 z "},"9":{"ha":896,"x_min":72,"x_max":814,"o":"m 683 450 q 407 317 611 317 q 163 400 253 317 q 72 636 72 483 q 179 874 72 788 q 433 954 278 954 q 729 817 632 954 q 814 489 814 696 q 714 135 814 271 q 392 -19 601 -19 q 196 26 283 -19 q 89 182 89 83 q 115 255 89 226 q 183 283 140 283 q 239 265 217 283 q 261 214 261 246 q 242 177 261 197 q 224 144 224 157 q 294 90 224 111 q 394 74 350 74 q 621 192 546 74 q 683 450 683 289 m 192 636 q 254 471 192 528 q 425 414 317 414 q 595 471 533 414 q 657 636 657 528 q 595 801 657 744 q 425 858 533 858 q 254 801 317 858 q 192 636 192 744 z "}," ":{"ha":572,"x_min":0,"x_max":0,"o":""},"!":{"ha":447,"x_min":139,"x_max":310,"o":"m 139 64 q 163 125 139 100 q 224 150 188 150 q 285 124 260 150 q 310 63 310 99 q 284 3 310 28 q 224 -22 258 -22 q 163 3 188 -22 q 139 64 139 28 m 156 314 l 156 897 q 224 967 156 967 q 293 897 293 967 l 293 314 q 274 262 293 283 q 224 240 254 240 q 174 261 193 240 q 156 314 156 282 z "},"\"":{"ha":410,"x_min":65,"x_max":344,"o":"m 261 961 q 296 996 261 996 l 310 996 q 344 961 344 996 l 344 646 q 310 611 344 611 l 296 611 q 261 646 261 611 l 261 961 m 65 961 q 100 996 65 996 l 113 996 q 147 961 147 996 l 147 646 q 113 611 147 611 l 100 611 q 65 646 65 611 l 65 961 z "},"#":{"ha":1094,"x_min":72,"x_max":1021,"o":"m 608 411 l 675 600 l 492 600 l 426 411 l 608 411 m 539 1013 l 640 1013 l 525 685 l 706 685 l 822 1013 l 922 1013 l 808 685 l 1021 685 l 992 600 l 775 600 l 710 411 l 939 411 l 908 326 l 678 326 l 564 0 l 463 0 l 579 326 l 394 326 l 278 0 l 179 0 l 294 326 l 72 326 l 103 411 l 325 411 l 392 600 l 153 600 l 183 685 l 422 685 l 539 1013 z "},"$":{"ha":896,"x_min":114,"x_max":785,"o":"m 561 421 l 561 144 q 651 188 618 149 q 683 285 683 226 q 561 421 683 400 m 400 458 l 400 132 q 453 129 433 129 q 519 133 483 129 l 519 433 q 400 458 479 442 m 356 586 l 356 817 q 267 694 267 796 q 356 586 267 606 m 400 828 l 400 569 q 519 543 472 551 l 519 831 q 468 835 494 835 q 400 828 449 835 m 578 49 q 580 17 578 46 q 582 -32 582 -11 q 547 -115 582 -115 q 511 -29 511 -115 q 513 13 511 -11 q 514 39 514 38 q 415 39 461 38 q 417 10 415 36 q 419 -35 419 -17 q 383 -115 419 -115 q 349 -26 349 -115 q 351 19 349 -7 q 353 44 353 44 q 185 117 247 60 q 114 281 114 179 q 138 363 114 329 q 208 397 163 397 q 263 378 240 397 q 285 328 285 358 q 251 278 285 296 q 217 251 217 260 q 264 172 217 204 q 356 139 304 146 l 356 471 q 158 675 158 518 q 212 824 158 764 q 353 906 265 885 q 351 935 353 907 q 349 983 349 963 q 383 1067 349 1067 q 418 982 418 1067 q 417 942 418 965 q 415 917 415 918 q 514 917 456 921 q 512 944 514 919 q 510 988 510 969 q 546 1067 510 1067 q 582 979 582 1067 q 580 935 582 960 q 578 908 578 910 q 699 844 650 890 q 753 724 753 793 q 686 644 753 644 q 622 694 622 644 q 632 728 622 711 q 650 757 647 751 q 617 801 650 781 q 561 822 590 818 l 561 533 q 722 460 663 518 q 785 297 785 397 q 728 137 785 203 q 578 49 672 71 z "},"%":{"ha":1206,"x_min":58,"x_max":1150,"o":"m 806 267 q 829 143 806 193 q 925 75 860 75 q 1021 143 990 75 q 1044 267 1044 193 q 1021 390 1044 340 q 925 458 990 458 q 829 390 860 458 q 806 267 806 340 m 703 269 q 753 467 703 390 q 925 558 811 558 q 1099 468 1040 558 q 1150 269 1150 390 q 1100 71 1150 149 q 925 -19 1040 -19 q 753 72 811 -19 q 703 269 703 149 m 161 669 q 186 543 161 594 q 285 476 218 476 q 383 543 351 476 q 408 669 408 594 q 383 793 408 743 q 285 858 351 858 q 186 793 218 858 q 161 669 161 743 m 711 764 q 596 728 663 728 q 494 776 540 728 q 506 672 506 717 q 456 471 506 549 q 281 378 397 378 q 108 469 167 378 q 58 667 58 546 q 108 865 58 789 q 282 956 167 956 q 458 882 356 956 q 614 808 561 808 q 732 854 681 808 q 803 938 749 868 q 867 983 839 983 q 908 958 908 983 q 397 -8 908 953 q 342 -39 381 -39 q 304 -12 304 -39 q 711 764 304 -4 z "},"&":{"ha":1136,"x_min":58,"x_max":1128,"o":"m 286 611 q 203 768 203 661 q 262 917 203 864 q 417 969 321 969 q 542 932 493 969 q 596 815 596 890 q 569 738 596 768 q 497 707 543 707 q 429 764 429 707 q 478 815 429 815 q 507 808 490 815 q 415 879 490 879 q 335 842 364 879 q 307 753 307 806 q 343 664 307 692 q 411 633 356 654 q 447 594 447 619 q 382 551 447 560 q 285 533 293 539 q 208 446 236 506 q 185 331 185 392 q 272 143 185 213 q 474 81 353 81 q 689 143 603 81 q 786 339 786 214 q 749 454 786 408 q 643 500 711 500 q 531 401 531 500 q 607 328 531 328 q 596 358 596 342 q 640 404 596 404 q 701 339 701 404 q 660 264 701 290 q 572 243 624 243 q 465 288 506 243 q 424 400 424 333 q 493 549 424 494 q 653 599 556 599 q 740 592 682 599 q 828 586 799 586 q 1028 747 1028 586 q 919 872 1028 872 q 832 797 832 872 q 846 776 832 776 q 867 788 856 776 q 890 800 879 800 q 943 744 943 800 q 844 665 943 665 q 761 706 793 665 q 731 794 731 742 q 782 915 731 869 q 908 960 833 960 q 1069 904 1010 960 q 1128 747 1128 849 q 1058 569 1128 632 q 872 506 989 506 q 808 514 839 506 l 808 511 q 899 333 899 451 q 757 68 899 168 q 458 -22 632 -22 q 178 64 288 -22 q 58 325 58 158 q 120 515 58 432 q 286 611 182 597 z "},"'":{"ha":211,"x_min":65,"x_max":147,"o":"m 65 961 q 100 996 65 996 l 113 996 q 147 961 147 996 l 147 646 q 113 611 147 611 l 100 611 q 65 646 65 611 l 65 961 z "},"(":{"ha":703,"x_min":113,"x_max":608,"o":"m 219 347 q 428 -144 219 58 q 519 -208 450 -165 q 607 -278 583 -247 q 583 -294 608 -294 q 422 -222 528 -294 q 113 347 113 -10 q 422 917 113 713 q 583 986 528 986 q 607 972 607 986 q 543 919 597 954 q 469 872 474 875 q 286 638 353 778 q 219 347 219 497 z "},")":{"ha":703,"x_min":93,"x_max":590,"o":"m 483 347 q 275 838 483 635 q 181 903 258 854 q 94 972 113 946 q 119 986 94 986 q 281 917 175 986 q 590 347 590 713 q 325 -190 590 11 q 119 -294 188 -294 q 94 -278 93 -294 q 158 -226 106 -260 q 233 -181 228 -185 q 417 53 351 -89 q 483 347 483 194 z "},"*":{"ha":711,"x_min":131,"x_max":581,"o":"m 400 731 l 401 708 q 506 678 453 693 q 581 622 581 651 q 565 584 581 601 q 528 567 549 567 q 478 601 508 567 q 433 650 436 647 l 389 683 l 369 675 q 396 558 374 638 q 408 521 408 528 q 356 471 408 471 q 304 517 304 471 q 318 560 304 525 q 342 675 329 586 l 322 683 l 278 649 q 233 600 276 649 q 182 567 204 567 q 147 585 161 567 q 132 625 132 604 q 183 667 132 651 q 258 686 221 676 l 310 708 l 310 731 l 258 750 q 179 767 218 758 q 131 815 131 779 q 146 853 131 836 q 182 869 161 869 q 254 817 196 869 q 322 753 288 785 l 342 764 l 333 821 q 317 872 332 835 q 301 917 301 910 q 356 969 301 969 q 407 919 407 969 q 393 872 407 910 q 378 821 379 835 l 369 764 l 386 753 q 456 818 421 785 q 528 869 511 869 q 563 852 549 869 q 578 814 578 835 q 501 760 578 786 q 400 731 451 746 z "},"+":{"ha":1185,"x_min":176,"x_max":1008,"o":"m 553 847 l 633 847 l 633 465 l 1008 465 l 1008 383 l 633 383 l 633 0 l 553 0 l 553 383 l 176 383 l 176 465 l 553 465 l 553 847 z "},",":{"ha":447,"x_min":136,"x_max":328,"o":"m 244 -22 q 136 57 136 -22 q 225 144 136 144 q 328 4 328 144 q 288 -143 328 -57 q 190 -242 242 -242 q 158 -211 158 -242 q 201 -124 158 -193 q 244 -22 244 -54 z "},"-":{"ha":468,"x_min":72,"x_max":414,"o":"m 117 407 l 369 407 q 414 356 414 407 q 369 304 414 304 l 117 304 q 72 356 72 304 q 117 407 72 407 z "},".":{"ha":447,"x_min":139,"x_max":310,"o":"m 139 64 q 163 125 139 100 q 224 150 188 150 q 285 125 260 150 q 310 64 310 100 q 284 3 310 29 q 224 -22 258 -22 q 163 3 188 -22 q 139 64 139 28 z "},"/":{"ha":392,"x_min":-22,"x_max":372,"o":"m 339 949 q 372 922 372 949 q 363 883 372 914 l 53 -83 q 1 -131 38 -131 q -22 -110 -22 -131 q -17 -67 -22 -83 l 293 901 q 339 949 308 949 z "},":":{"ha":464,"x_min":147,"x_max":317,"o":"m 147 67 q 172 128 147 103 q 232 153 196 153 q 292 127 268 153 q 317 65 317 101 q 292 6 317 31 q 232 -19 267 -19 q 172 6 196 -19 q 147 67 147 31 m 147 526 q 172 587 147 563 q 232 611 196 611 q 292 586 268 611 q 317 525 317 561 q 292 464 317 489 q 232 439 268 439 q 172 465 196 439 q 147 526 147 490 z "},";":{"ha":464,"x_min":144,"x_max":333,"o":"m 250 -22 q 144 57 144 -22 q 231 144 144 144 q 333 4 333 144 q 293 -143 333 -57 q 197 -242 249 -242 q 164 -211 164 -242 q 207 -124 164 -193 q 250 -22 250 -54 m 144 525 q 169 586 144 561 q 231 611 194 611 q 292 586 267 611 q 317 525 317 561 q 292 464 317 489 q 231 439 267 439 q 169 464 194 439 q 144 525 144 489 z "},"<":{"ha":1185,"x_min":183,"x_max":1001,"o":"m 1001 794 l 1001 707 l 307 424 l 1001 142 l 1001 53 l 183 389 l 183 460 l 1001 794 z "},"=":{"ha":1185,"x_min":176,"x_max":1008,"o":"m 176 331 l 1008 331 l 1008 250 l 176 250 l 176 331 m 176 597 l 1008 597 l 1008 517 l 176 517 l 176 597 z "},">":{"ha":1185,"x_min":183,"x_max":1001,"o":"m 183 794 l 1001 460 l 1001 389 l 183 53 l 183 142 l 878 424 l 183 707 l 183 794 z "},"?":{"ha":781,"x_min":53,"x_max":725,"o":"m 181 667 q 240 713 194 713 q 299 657 299 713 q 265 584 299 613 q 186 556 232 556 q 88 600 122 556 q 53 710 53 644 q 164 908 53 838 q 394 969 260 969 q 621 911 532 969 q 725 713 725 843 q 657 549 725 608 q 518 467 631 524 q 401 369 429 422 q 389 315 394 356 q 376 260 383 275 q 333 233 364 233 q 281 296 281 233 q 367 483 281 413 q 525 581 446 532 q 611 713 611 635 q 539 843 611 799 q 386 881 478 881 q 233 843 300 881 q 153 717 153 796 q 181 667 153 678 m 433 65 q 409 5 433 29 q 349 -19 385 -19 q 288 5 313 -19 q 264 65 264 29 q 289 125 264 100 q 349 150 314 150 q 409 126 385 150 q 433 65 433 101 z "},"@":{"ha":1422,"x_min":78,"x_max":1344,"o":"m 897 586 l 938 669 l 1014 669 q 953 439 983 554 q 908 219 908 267 q 983 158 908 158 q 1186 290 1104 158 q 1257 532 1257 404 q 1104 842 1257 731 q 761 942 968 942 q 337 776 506 942 q 168 357 168 611 q 328 -6 168 128 q 711 -131 478 -131 q 1150 0 957 -131 l 1181 -46 q 722 -200 974 -200 q 272 -58 450 -200 q 78 363 78 96 q 285 836 78 651 q 775 1013 483 1013 q 1165 894 1006 1013 q 1344 540 1344 763 q 1243 229 1344 363 q 958 83 1132 83 q 821 185 821 83 l 818 185 q 617 83 742 83 q 397 314 397 83 q 485 574 397 463 q 724 694 579 694 q 897 586 850 694 m 876 497 q 733 628 853 628 q 551 522 618 628 q 494 310 494 432 q 631 150 494 150 q 813 272 753 150 q 876 497 831 311 z "},"A":{"ha":1117,"x_min":0,"x_max":1117,"o":"m 564 822 l 442 471 q 433 442 436 454 l 440 431 q 465 428 454 428 l 653 428 q 676 432 663 428 l 683 444 q 678 471 682 460 l 564 822 m 693 339 l 415 339 q 372 296 388 339 q 342 210 357 253 q 325 122 325 158 q 372 89 325 89 q 408 92 385 89 q 444 94 432 94 q 506 44 506 94 q 450 -8 506 -8 q 345 -1 415 -8 q 240 6 275 6 q 151 -1 210 6 q 63 -8 92 -8 q 19 5 39 -8 q 0 42 0 18 q 14 78 0 61 q 47 94 28 94 q 69 92 54 94 q 92 89 85 89 q 167 110 142 89 q 206 178 188 128 l 464 869 q 558 958 497 958 q 628 932 604 958 q 664 864 646 914 l 911 178 q 946 114 928 132 q 1014 89 971 89 q 1028 92 1019 89 q 1043 94 1038 94 q 1117 42 1117 94 q 1097 5 1117 18 q 1054 -8 1078 -8 q 964 -1 1024 -8 q 874 6 904 6 q 773 -1 840 6 q 672 -8 706 -8 q 617 44 617 -8 q 675 94 617 94 q 711 92 688 94 q 747 89 735 89 q 789 133 789 89 q 781 181 789 156 q 756 269 768 225 q 693 339 729 339 z "},"B":{"ha":983,"x_min":25,"x_max":911,"o":"m 232 189 l 232 781 q 161 867 232 867 q 119 863 147 867 q 78 858 92 858 q 25 906 25 858 q 83 960 25 960 q 175 953 114 960 q 267 947 236 947 q 408 953 314 947 q 550 960 503 960 q 869 731 869 960 q 710 525 869 585 q 911 272 911 476 q 799 54 911 128 q 550 -7 703 -7 q 417 -1 506 -7 q 283 6 328 6 q 183 -1 250 6 q 83 -7 117 -7 q 25 47 25 -7 q 78 94 25 94 q 117 90 90 94 q 156 86 143 86 q 219 115 203 86 q 232 189 232 138 m 351 383 l 351 179 q 414 93 351 110 q 538 86 438 86 q 786 278 786 86 q 694 439 786 394 q 497 471 629 471 q 394 465 413 471 q 351 383 351 450 m 351 792 l 351 604 q 450 564 351 564 q 643 586 583 564 q 744 731 744 622 q 658 847 744 817 q 500 867 606 867 q 401 861 421 867 q 351 792 351 849 z "},"C":{"ha":925,"x_min":60,"x_max":864,"o":"m 742 861 q 743 924 742 915 q 785 960 751 960 q 832 914 832 960 q 827 831 832 886 q 822 749 822 776 q 827 674 822 724 q 832 599 832 624 q 782 536 832 536 q 743 553 756 536 q 729 638 731 571 q 714 736 728 706 q 625 837 685 799 q 497 875 565 875 q 263 750 343 875 q 194 481 194 643 q 258 207 194 313 q 494 81 338 81 q 696 161 633 81 q 754 308 728 203 q 808 389 774 389 q 864 317 864 389 q 758 65 864 156 q 494 -19 658 -19 q 167 124 282 -19 q 60 474 60 256 q 163 819 60 683 q 481 969 276 969 q 742 861 650 969 z "},"D":{"ha":1044,"x_min":25,"x_max":986,"o":"m 354 200 q 393 97 354 117 q 511 86 415 86 q 861 483 861 86 q 769 778 861 688 q 472 869 678 869 q 373 851 392 869 q 354 753 354 833 l 354 200 m 233 176 l 233 778 q 217 842 233 822 q 156 861 200 861 q 117 857 143 861 q 78 853 90 853 q 25 903 25 853 q 86 956 25 956 q 190 951 121 956 q 293 946 258 946 q 412 951 333 946 q 531 956 490 956 q 986 479 986 956 q 872 126 986 254 q 532 -7 754 -7 q 413 -1 492 -7 q 293 6 333 6 q 190 -1 258 6 q 89 -7 122 -7 q 25 42 25 -7 q 81 94 25 94 q 118 90 93 94 q 156 86 143 86 q 233 176 233 86 z "},"E":{"ha":997,"x_min":28,"x_max":899,"o":"m 236 185 l 236 781 q 158 864 236 864 q 119 858 146 864 q 81 853 93 853 q 43 868 58 853 q 28 906 28 883 q 89 956 28 956 q 187 951 121 956 q 285 947 253 947 l 672 947 q 743 951 696 947 q 814 956 790 956 q 881 885 881 956 q 876 826 881 865 q 872 768 872 788 q 876 690 872 742 q 881 611 881 638 q 833 553 881 553 q 794 571 810 553 q 778 614 778 589 q 781 672 778 633 q 785 731 785 711 q 756 828 785 804 q 651 853 728 853 l 431 853 q 367 829 382 853 q 356 758 356 811 l 356 599 q 419 543 356 543 q 532 553 504 543 q 565 597 560 563 q 567 707 567 608 q 614 763 567 763 q 658 678 658 763 q 654 594 658 650 q 650 511 650 539 q 654 427 650 483 q 658 343 658 371 q 614 258 658 258 q 567 319 567 258 q 568 346 567 329 q 569 369 569 363 q 547 458 569 440 q 450 476 524 476 q 385 474 394 476 q 356 422 356 464 l 356 190 q 368 115 356 133 q 436 92 383 92 l 669 92 q 774 117 746 92 q 803 217 803 143 q 799 275 803 236 q 794 333 794 314 q 810 378 794 358 q 850 397 825 397 q 899 336 899 397 q 894 258 899 310 q 890 181 890 207 q 894 122 890 161 q 899 64 899 83 q 831 -7 899 -7 q 763 -3 808 -7 q 696 0 718 0 l 263 0 q 176 -3 233 0 q 89 -7 118 -7 q 28 47 28 -7 q 81 97 28 97 q 117 94 93 97 q 153 92 140 92 q 219 113 201 92 q 236 185 236 135 z "},"F":{"ha":928,"x_min":28,"x_max":881,"o":"m 236 183 l 236 781 q 158 861 236 861 q 122 857 146 861 q 86 853 99 853 q 28 903 28 853 q 94 956 28 956 q 218 952 136 956 q 342 949 300 949 l 675 949 q 744 952 699 949 q 814 956 790 956 q 881 885 881 956 q 876 826 881 865 q 872 768 872 788 q 876 690 872 742 q 881 611 881 638 q 833 556 881 556 q 794 572 810 556 q 778 614 778 589 q 781 672 778 633 q 785 731 785 711 q 756 828 785 804 q 651 853 728 853 l 433 853 q 369 829 385 853 q 360 758 360 811 l 360 599 q 397 550 360 550 l 526 550 q 569 640 569 550 q 568 678 569 656 q 567 706 567 701 q 614 763 567 763 q 658 678 658 763 q 654 594 658 650 q 650 511 650 539 q 654 427 650 483 q 658 343 658 371 q 614 258 658 258 q 567 319 567 258 q 568 346 567 329 q 569 369 569 363 q 560 444 569 425 q 494 472 544 472 l 394 472 q 360 422 360 472 l 360 172 q 442 89 360 89 q 483 93 456 89 q 525 97 511 97 q 582 47 582 97 q 517 -7 582 -7 q 410 -1 481 -7 q 303 6 339 6 q 196 -1 267 6 q 89 -7 125 -7 q 28 47 28 -7 q 78 97 28 97 q 117 93 90 97 q 156 89 143 89 q 221 114 203 89 q 236 183 236 135 z "},"G":{"ha":1047,"x_min":60,"x_max":1042,"o":"m 803 121 l 800 121 q 494 -19 701 -19 q 167 124 282 -19 q 60 474 60 256 q 168 826 60 693 q 500 969 286 969 q 782 858 685 969 q 783 922 782 915 q 825 960 790 960 q 872 906 872 960 q 869 835 872 882 q 865 764 865 788 q 869 690 865 739 q 872 617 872 642 q 822 564 872 564 q 786 576 797 564 q 766 672 781 582 q 708 810 751 763 q 511 879 644 879 q 267 756 350 879 q 194 481 194 650 q 258 207 194 311 q 494 81 336 81 q 694 145 622 81 q 767 336 767 210 q 692 413 767 413 q 646 410 676 413 q 600 407 615 407 q 540 458 540 407 q 608 503 540 503 q 717 499 644 503 q 825 494 789 494 q 904 499 851 494 q 983 503 957 503 q 1042 458 1042 503 q 996 407 1042 407 q 976 410 989 407 q 957 413 964 413 q 892 365 907 413 q 885 275 885 340 q 893 164 885 238 q 901 53 901 90 q 887 10 901 29 q 850 -8 872 -8 q 796 47 796 -8 q 803 121 796 75 z "},"H":{"ha":1181,"x_min":25,"x_max":1156,"o":"m 358 781 l 358 556 q 476 551 397 556 q 594 547 556 547 q 708 551 632 547 q 821 556 783 556 l 821 779 q 806 842 821 824 q 747 861 790 861 q 714 858 736 861 q 681 856 692 856 q 631 908 631 856 q 706 960 631 960 q 806 953 739 960 q 906 947 872 947 q 1000 953 938 947 q 1094 960 1063 960 q 1156 906 1156 960 q 1100 856 1156 856 q 1061 858 1088 856 q 1022 861 1035 861 q 946 781 946 861 l 946 174 q 1017 92 946 92 q 1058 94 1031 92 q 1100 97 1086 97 q 1156 49 1156 97 q 1094 -7 1156 -7 q 1000 0 1063 -7 q 906 7 938 7 q 806 0 872 7 q 707 -7 740 -7 q 631 46 631 -7 q 681 97 631 97 q 715 94 692 97 q 750 92 739 92 q 810 114 794 92 q 821 179 821 132 l 821 447 q 703 450 782 447 q 585 453 624 453 q 472 450 547 453 q 358 447 396 447 l 358 172 q 374 110 358 129 q 431 92 389 92 q 464 94 442 92 q 497 97 486 97 q 547 44 547 97 q 472 -7 547 -7 q 374 0 439 -7 q 275 7 308 7 q 181 0 243 7 q 86 -7 118 -7 q 25 47 25 -7 q 78 97 25 97 q 120 94 92 97 q 163 92 149 92 q 233 172 233 92 l 233 781 q 163 861 233 861 q 120 858 149 861 q 78 856 92 856 q 25 906 25 856 q 86 960 25 960 q 181 953 118 960 q 275 947 243 947 q 374 953 308 947 q 472 960 439 960 q 547 908 547 960 q 497 856 547 856 q 464 858 486 856 q 431 861 442 861 q 373 842 388 861 q 358 781 358 824 z "},"I":{"ha":625,"x_min":42,"x_max":585,"o":"m 249 172 l 249 781 q 178 864 249 864 q 136 860 164 864 q 94 856 108 856 q 42 906 42 856 q 100 960 42 960 q 208 953 136 960 q 317 947 281 947 q 421 953 351 947 q 525 960 490 960 q 585 906 585 960 q 531 856 585 856 q 489 860 517 856 q 447 864 461 864 q 378 781 378 864 l 378 172 q 447 89 378 89 q 489 93 461 89 q 531 97 517 97 q 585 47 585 97 q 525 -7 585 -7 q 421 -1 490 -7 q 317 6 351 6 q 208 -1 281 6 q 100 -7 136 -7 q 42 47 42 -7 q 94 97 42 97 q 136 93 108 97 q 178 89 164 89 q 249 172 249 89 z "},"J":{"ha":922,"x_min":33,"x_max":901,"o":"m 586 365 l 586 781 q 499 864 586 864 q 456 860 485 864 q 414 856 428 856 q 361 907 361 856 q 419 960 361 960 q 534 953 457 960 q 649 947 611 947 q 747 953 682 947 q 844 960 813 960 q 901 906 901 960 q 853 856 901 856 q 814 860 840 856 q 775 864 788 864 q 710 781 710 864 l 710 360 q 622 83 710 183 q 356 -22 529 -22 q 129 51 218 -22 q 33 264 33 129 q 90 410 33 347 q 228 474 146 474 q 322 441 283 474 q 361 354 361 408 q 286 272 361 272 q 219 332 219 272 q 226 349 219 338 q 232 367 232 360 q 222 378 232 378 q 163 342 183 378 q 144 269 144 311 q 211 131 144 185 q 361 81 274 81 q 543 161 490 81 q 586 365 586 228 z "},"K":{"ha":1063,"x_min":25,"x_max":1038,"o":"m 986 375 q 1022 358 1007 375 q 1038 319 1038 340 l 1038 165 q 864 -7 1038 -7 q 728 49 764 -7 q 701 185 701 90 q 701 238 701 201 q 703 290 703 272 q 638 426 703 393 q 478 450 592 450 q 358 394 358 450 l 358 172 q 375 108 358 126 q 436 89 392 89 q 474 93 449 89 q 511 97 499 97 q 564 46 564 97 q 482 -7 564 -7 q 388 -1 450 -7 q 293 6 325 6 q 190 -1 258 6 q 89 -7 122 -7 q 28 47 28 -7 q 81 97 28 97 q 119 93 93 97 q 158 89 146 89 q 233 172 233 89 l 233 771 q 217 838 233 817 q 156 858 200 858 q 118 856 143 858 q 81 853 93 853 q 25 906 25 853 q 92 958 25 958 q 182 953 122 958 q 272 947 242 947 q 367 953 304 947 q 463 958 431 958 q 531 901 531 958 q 516 868 531 883 q 483 853 501 853 q 453 856 474 853 q 422 858 432 858 q 368 833 382 858 q 358 771 358 815 l 358 599 q 399 549 358 558 q 471 546 413 546 q 660 656 622 546 q 696 857 678 756 q 865 967 728 967 q 1013 835 1013 967 q 944 740 1013 740 q 883 800 883 740 q 892 819 883 808 q 900 842 900 831 q 865 871 900 871 q 795 796 804 871 q 778 644 786 721 q 678 514 758 550 l 678 510 q 793 414 763 489 q 814 265 814 363 q 814 235 814 254 q 814 207 814 215 q 824 121 814 146 q 872 86 836 86 q 936 188 936 86 q 935 236 936 203 q 933 286 933 269 q 986 375 933 375 z "},"L":{"ha":861,"x_min":28,"x_max":839,"o":"m 236 172 l 236 781 q 165 861 236 861 q 123 858 151 861 q 81 856 94 856 q 28 906 28 856 q 89 960 28 960 q 190 953 122 960 q 293 947 258 947 q 390 953 325 947 q 486 960 454 960 q 567 908 567 960 q 551 871 567 886 q 514 856 536 856 q 478 858 501 856 q 442 861 454 861 q 378 844 396 861 q 361 781 361 826 l 361 190 q 372 117 361 135 q 439 92 388 92 l 604 92 q 713 117 682 92 q 744 217 744 142 q 740 275 744 236 q 736 333 736 314 q 751 378 736 358 q 792 397 767 397 q 839 336 839 397 q 835 258 839 310 q 831 181 831 207 q 835 122 831 161 q 839 64 839 83 q 769 -7 839 -7 q 697 -1 744 -7 q 624 6 649 6 l 299 6 q 194 -1 264 6 q 89 -7 124 -7 q 28 47 28 -7 q 43 85 28 69 q 81 100 58 100 q 119 96 93 100 q 158 92 146 92 q 236 172 236 92 z "},"M":{"ha":1314,"x_min":33,"x_max":1281,"o":"m 229 172 l 229 779 q 213 841 229 824 q 153 858 197 858 q 117 856 140 858 q 81 853 93 853 q 33 908 33 853 q 108 958 33 958 q 190 953 136 958 q 272 947 244 947 q 324 953 290 947 q 375 958 358 958 q 464 867 439 958 l 657 158 l 850 867 q 938 958 875 958 q 989 953 954 958 q 1042 947 1024 947 q 1124 953 1069 947 q 1206 958 1178 958 q 1281 908 1281 958 q 1233 853 1281 853 q 1197 856 1221 853 q 1161 858 1174 858 q 1100 841 1117 858 q 1083 779 1083 824 l 1083 172 q 1156 92 1083 92 q 1192 94 1168 92 q 1228 97 1215 97 q 1281 49 1281 97 q 1214 -7 1281 -7 q 1131 0 1186 -7 q 1047 7 1075 7 q 958 0 1018 7 q 869 -7 899 -7 q 806 49 806 -7 q 818 83 806 68 q 850 97 831 97 q 878 94 860 97 q 906 92 896 92 q 957 114 943 92 q 967 172 967 132 q 972 861 967 756 l 957 861 l 728 81 q 708 24 714 35 q 657 -7 690 -7 q 604 22 622 -7 q 582 79 594 36 l 353 861 l 342 861 q 347 172 347 756 q 357 115 347 131 q 407 92 369 92 q 436 94 417 92 q 465 97 456 97 q 508 49 508 97 q 444 -7 508 -7 q 356 0 415 -7 q 267 7 296 7 q 182 0 239 7 q 97 -7 125 -7 q 33 49 33 -7 q 86 97 33 97 q 122 94 99 97 q 158 92 146 92 q 229 172 229 92 z "},"N":{"ha":1158,"x_min":33,"x_max":1144,"o":"m 829 135 l 835 135 l 835 782 q 819 844 835 828 q 757 861 803 861 q 719 858 744 861 q 681 856 693 856 q 640 871 658 856 q 622 908 622 886 q 701 958 622 958 q 797 953 733 958 q 892 947 860 947 q 985 953 924 947 q 1079 958 1047 958 q 1144 906 1144 958 q 1094 856 1144 856 q 1058 858 1082 856 q 1021 861 1033 861 q 950 782 950 861 l 950 122 q 843 -7 950 -7 q 774 17 799 -7 q 733 81 758 32 l 353 821 l 347 821 l 347 172 q 364 109 347 126 q 426 92 381 92 q 463 94 439 92 q 500 97 488 97 q 553 47 553 97 q 481 -7 553 -7 q 379 -1 447 -7 q 278 6 311 6 q 188 -1 247 6 q 97 -7 128 -7 q 33 49 33 -7 q 86 97 33 97 q 122 94 99 97 q 158 92 146 92 q 229 172 229 92 l 229 779 q 153 861 229 861 q 117 858 140 861 q 81 856 93 856 q 33 908 33 856 q 108 958 33 958 q 188 953 135 958 q 267 947 240 947 q 315 952 283 947 q 363 957 347 957 q 426 929 401 957 q 464 867 440 914 l 829 135 z "},"O":{"ha":990,"x_min":60,"x_max":931,"o":"m 931 474 q 822 125 931 257 q 494 -19 706 -19 q 167 124 282 -19 q 60 474 60 256 q 167 825 60 692 q 494 969 282 969 q 822 824 704 969 q 931 474 931 689 m 494 81 q 728 206 647 81 q 794 474 794 311 q 728 743 794 636 q 494 869 647 869 q 261 743 342 869 q 194 474 194 636 q 261 206 194 311 q 494 81 342 81 z "},"P":{"ha":900,"x_min":28,"x_max":869,"o":"m 236 172 l 236 781 q 165 867 236 867 q 123 861 151 867 q 81 856 94 856 q 28 906 28 856 q 89 960 28 960 q 184 953 121 960 q 279 947 247 947 q 413 953 324 947 q 546 960 501 960 q 869 683 869 960 q 750 456 869 519 q 518 411 674 415 q 360 393 375 408 q 356 375 356 382 l 356 172 q 373 108 356 126 q 436 89 390 89 q 474 93 449 89 q 511 97 499 97 q 564 46 564 97 q 482 -7 564 -7 q 388 -1 450 -7 q 293 6 325 6 q 190 -1 258 6 q 89 -7 122 -7 q 28 47 28 -7 q 81 97 28 97 q 115 93 92 97 q 150 89 139 89 q 236 172 236 89 m 356 786 l 356 546 q 389 508 356 515 q 447 506 399 506 q 649 525 593 506 q 747 681 747 563 q 674 835 747 792 q 497 867 618 867 q 356 786 356 867 z "},"Q":{"ha":989,"x_min":60,"x_max":936,"o":"m 572 -14 q 500 -19 543 -19 q 167 121 283 -19 q 60 474 60 251 q 167 825 60 692 q 494 969 282 969 q 822 824 704 969 q 931 474 931 689 q 872 199 931 317 q 672 11 804 61 l 672 -58 q 683 -147 672 -121 q 753 -190 700 -190 q 831 -150 813 -190 q 843 -74 831 -147 q 883 -33 849 -33 q 936 -107 936 -33 q 883 -231 936 -183 q 753 -278 831 -278 q 594 -200 631 -278 q 572 -14 572 -153 m 333 122 q 308 229 308 169 q 367 353 308 308 q 500 394 419 394 q 650 314 614 394 q 672 132 672 264 q 769 285 736 169 q 794 471 794 372 q 728 742 794 635 q 494 869 649 869 q 261 740 342 869 q 194 471 194 633 q 333 122 194 197 m 572 83 l 572 161 q 561 261 572 233 q 483 310 543 310 q 408 276 436 310 q 381 194 381 242 q 415 104 381 138 q 508 71 450 71 q 572 83 543 71 z "},"R":{"ha":1056,"x_min":28,"x_max":1025,"o":"m 681 488 l 681 483 q 818 293 818 460 q 816 232 818 272 q 814 175 814 192 q 872 86 814 86 q 938 196 938 86 q 935 247 938 213 q 933 297 933 282 q 981 386 933 386 q 1025 331 1025 386 l 1025 165 q 989 35 1025 76 q 864 -7 953 -7 q 728 50 764 -7 q 701 185 701 90 q 701 238 701 201 q 703 290 703 272 q 615 425 703 394 q 439 442 569 442 q 383 436 397 442 q 356 394 356 428 l 356 172 q 373 108 356 126 q 436 89 390 89 q 474 93 449 89 q 511 97 499 97 q 564 46 564 97 q 482 -7 564 -7 q 388 -1 450 -7 q 293 6 325 6 q 190 -1 258 6 q 89 -7 122 -7 q 28 47 28 -7 q 81 97 28 97 q 119 93 93 97 q 158 89 146 89 q 236 172 236 89 l 236 781 q 153 867 236 867 q 115 861 140 867 q 78 856 90 856 q 28 906 28 856 q 89 960 28 960 q 190 953 122 960 q 290 947 257 947 q 426 953 336 947 q 561 960 517 960 q 869 717 869 960 q 821 562 869 624 q 681 488 772 500 m 356 792 l 356 572 q 389 535 356 542 q 447 533 399 533 q 649 550 596 533 q 756 697 756 583 q 676 839 756 800 q 506 867 622 867 q 408 860 433 867 q 356 792 356 844 z "},"S":{"ha":783,"x_min":64,"x_max":739,"o":"m 171 72 l 167 72 q 171 29 171 39 q 115 -19 171 -19 q 64 39 64 -19 q 69 110 64 63 q 74 181 74 157 q 69 266 74 210 q 64 351 64 322 q 117 422 64 422 q 167 374 160 422 q 175 263 171 318 q 238 142 186 186 q 410 83 303 83 q 560 125 504 83 q 622 264 622 172 q 481 414 622 371 q 219 486 350 450 q 78 692 78 546 q 165 896 78 819 q 378 969 249 969 q 596 894 506 969 q 639 954 596 954 q 689 917 689 954 q 685 844 689 893 q 681 772 681 796 q 685 700 681 749 q 689 628 689 651 q 640 567 689 567 q 586 646 592 567 q 561 790 581 757 q 375 869 518 869 q 250 829 296 869 q 200 710 200 788 q 211 643 200 669 q 378 551 236 583 q 617 483 569 508 q 739 281 739 421 q 649 58 739 136 q 414 -19 560 -19 q 171 72 276 -19 z "},"T":{"ha":858,"x_min":28,"x_max":831,"o":"m 367 190 l 367 764 q 351 842 367 824 q 272 861 335 861 q 163 842 192 861 q 122 736 122 815 q 126 678 122 717 q 131 619 131 639 q 115 576 131 594 q 75 558 99 558 q 28 617 28 558 q 33 695 28 643 q 38 774 38 747 q 33 832 38 793 q 28 890 28 871 q 107 960 28 960 q 232 953 149 960 q 357 947 315 947 l 501 947 q 627 953 543 947 q 753 960 711 960 q 831 890 831 960 q 826 832 831 871 q 821 774 821 793 q 826 695 821 747 q 831 617 831 643 q 783 558 831 558 q 744 576 760 558 q 728 619 728 594 q 732 678 728 639 q 736 736 736 717 q 697 840 736 815 q 583 861 667 861 q 506 839 524 861 q 492 764 492 822 l 492 190 q 512 116 492 138 q 585 94 532 94 q 618 99 596 94 q 651 103 640 103 q 714 53 714 103 q 631 -7 714 -7 q 529 1 596 -7 q 429 10 463 10 q 329 1 396 10 q 228 -7 263 -7 q 172 6 196 -7 q 144 51 144 22 q 197 103 144 103 q 236 99 210 103 q 275 94 263 94 q 348 115 329 94 q 367 190 367 136 z "},"U":{"ha":1156,"x_min":13,"x_max":1143,"o":"m 579 -19 q 303 63 386 -19 q 221 339 221 146 l 221 781 q 149 861 221 861 q 107 857 135 861 q 65 853 79 853 q 13 906 13 853 q 72 960 13 960 q 167 953 104 960 q 263 947 231 947 q 362 953 296 947 q 461 960 428 960 q 535 908 535 960 q 486 853 535 853 q 452 857 475 853 q 418 861 429 861 q 360 842 375 861 q 346 781 346 824 l 346 322 q 398 139 346 194 q 578 83 450 83 q 754 137 701 83 q 807 314 807 190 l 807 779 q 796 839 807 822 q 738 861 781 861 q 703 857 726 861 q 668 853 679 853 q 618 908 618 853 q 693 960 618 960 q 792 953 726 960 q 892 947 858 947 q 987 953 924 947 q 1082 960 1050 960 q 1143 906 1143 960 q 1088 853 1143 853 q 1046 857 1074 853 q 1004 861 1018 861 q 954 844 975 861 q 933 797 933 826 l 933 317 q 848 58 933 136 q 579 -19 763 -19 z "},"V":{"ha":1117,"x_min":0,"x_max":1117,"o":"m 553 -19 q 486 13 511 -19 q 454 83 474 31 l 206 771 q 103 861 172 861 q 85 858 97 861 q 67 856 74 856 q 0 906 0 856 q 19 944 0 929 q 64 958 39 958 q 175 951 101 958 q 286 944 249 944 q 374 951 315 944 q 461 958 432 958 q 515 903 515 958 q 454 856 515 856 q 417 858 442 856 q 381 861 393 861 q 336 815 336 861 q 344 768 336 793 l 558 139 l 772 768 q 783 825 783 801 q 736 861 783 861 q 699 858 724 861 q 661 856 674 856 q 600 903 600 856 q 658 958 600 958 q 744 951 688 958 q 831 944 801 944 q 943 951 868 944 q 1056 958 1018 958 q 1098 944 1079 958 q 1117 906 1117 929 q 1103 871 1117 886 q 1069 856 1089 856 q 1045 858 1061 856 q 1021 861 1029 861 q 949 838 974 861 q 911 771 929 819 l 653 78 q 619 10 635 28 q 553 -19 596 -19 z "},"W":{"ha":1353,"x_min":0,"x_max":1353,"o":"m 114 861 q 83 858 104 861 q 53 856 63 856 q 16 872 32 856 q 0 911 0 889 q 64 960 0 960 q 174 954 100 960 q 285 949 249 949 q 362 954 310 949 q 439 960 414 960 q 494 908 494 960 q 433 856 494 856 q 399 858 422 856 q 364 861 375 861 q 319 856 331 861 q 300 818 300 847 q 310 743 300 792 l 428 147 l 586 856 q 678 960 610 960 q 742 928 721 960 q 767 856 756 907 l 926 147 l 1044 743 q 1056 818 1056 799 q 989 861 1056 861 q 955 858 978 861 q 921 856 932 856 q 860 908 860 856 q 915 960 860 960 q 992 954 940 960 q 1069 949 1044 949 q 1180 954 1106 949 q 1290 960 1254 960 q 1333 947 1314 960 q 1353 911 1353 933 q 1337 872 1353 889 q 1300 856 1321 856 q 1271 858 1290 856 q 1242 861 1251 861 q 1190 831 1208 861 q 1172 774 1182 815 l 1017 86 q 992 13 1004 33 q 926 -22 969 -22 q 833 75 854 -22 l 676 797 l 519 75 q 428 -22 499 -22 q 363 13 385 -22 q 338 86 350 35 l 181 774 q 163 833 169 819 q 114 861 147 861 z "},"X":{"ha":1136,"x_min":0,"x_max":1133,"o":"m 567 594 l 731 811 q 753 850 739 824 q 708 864 747 864 q 676 860 697 864 q 644 856 656 856 q 600 908 600 856 q 656 963 600 963 q 733 956 682 963 q 811 949 785 949 q 922 956 849 949 q 1032 963 994 963 q 1075 949 1056 963 q 1094 911 1094 935 q 1078 872 1094 888 q 1039 856 1063 856 q 1005 860 1028 856 q 971 864 982 864 q 853 779 919 864 l 639 506 l 899 176 q 1013 92 965 92 q 1046 94 1024 92 q 1079 97 1068 97 q 1117 83 1100 97 q 1133 47 1133 68 q 1072 -7 1133 -7 q 955 -1 1033 -7 q 838 6 876 6 q 756 -1 810 6 q 674 -7 701 -7 q 619 49 619 -7 q 668 97 619 97 q 702 94 679 97 q 736 92 725 92 q 782 117 782 92 q 682 272 782 143 q 567 415 625 343 q 453 272 510 343 q 353 118 353 143 q 394 92 353 92 q 431 94 407 92 q 467 97 454 97 q 514 49 514 97 q 461 -7 514 -7 q 379 -1 433 -7 q 297 6 325 6 q 179 -1 258 6 q 61 -7 100 -7 q 18 8 36 -7 q 0 47 0 24 q 17 83 0 68 q 56 97 33 97 q 89 94 67 97 q 122 92 111 92 q 231 169 169 92 l 497 506 l 281 779 q 232 836 244 824 q 164 864 200 864 q 129 860 153 864 q 94 856 106 856 q 55 872 71 856 q 39 911 39 888 q 59 949 39 935 q 103 963 79 963 q 213 956 140 963 q 324 949 286 949 q 401 956 350 949 q 478 963 451 963 q 533 908 533 963 q 520 872 533 888 q 488 856 507 856 q 456 860 476 856 q 424 864 435 864 q 383 847 383 864 q 469 718 383 832 q 567 594 518 657 z "},"Y":{"ha":1099,"x_min":0,"x_max":1099,"o":"m 610 361 l 610 171 q 681 89 610 89 q 722 93 694 89 q 764 97 750 97 q 819 47 819 97 q 758 -8 819 -8 q 653 -1 724 -8 q 547 6 582 6 q 444 -1 513 6 q 342 -8 376 -8 q 281 47 281 -8 q 335 97 281 97 q 377 93 349 97 q 419 89 406 89 q 489 171 489 89 l 489 361 l 213 789 q 172 839 189 826 q 111 858 149 858 q 81 856 101 858 q 50 853 60 853 q 15 869 29 853 q 0 906 0 885 q 21 943 0 929 q 67 957 42 957 q 163 951 99 957 q 260 944 228 944 q 350 951 290 944 q 440 957 410 957 q 506 903 506 957 q 451 853 506 853 q 418 856 440 853 q 385 858 396 858 q 338 832 338 858 q 440 635 338 803 q 550 460 494 547 q 658 632 604 546 q 761 831 761 800 q 714 858 761 858 q 681 856 703 858 q 647 853 658 853 q 594 903 594 853 q 654 957 594 957 q 753 951 688 957 q 853 944 819 944 q 944 951 883 944 q 1035 957 1004 957 q 1079 943 1060 957 q 1099 906 1099 929 q 1084 869 1099 885 q 1050 853 1069 853 q 1019 856 1040 853 q 989 858 999 858 q 886 789 931 858 l 610 361 z "},"Z":{"ha":861,"x_min":51,"x_max":800,"o":"m 189 94 l 567 94 q 675 118 644 94 q 706 217 706 142 q 701 275 706 236 q 697 333 697 314 q 713 378 697 358 q 753 397 728 397 q 800 336 800 397 q 796 258 800 310 q 792 181 792 207 q 796 122 792 161 q 800 64 800 83 q 725 -7 800 -7 q 659 -3 703 -7 q 593 0 615 0 l 296 0 q 217 -3 269 0 q 139 -6 165 -6 q 51 75 51 -6 q 94 174 51 121 l 653 853 l 325 853 q 217 829 247 853 q 186 731 186 806 q 190 672 186 711 q 194 614 194 633 q 178 571 194 589 q 139 553 163 553 q 89 611 89 553 q 94 690 89 638 q 100 768 100 742 q 94 826 100 788 q 89 885 89 865 q 185 954 89 954 q 245 950 206 954 q 304 946 285 946 l 554 946 q 638 949 582 946 q 721 953 693 953 q 800 897 800 953 q 747 778 800 843 l 189 94 z "},"[":{"ha":704,"x_min":197,"x_max":592,"o":"m 296 -131 q 313 -229 296 -204 q 410 -264 336 -264 q 457 -261 425 -264 q 504 -258 489 -258 q 592 -300 592 -258 q 528 -336 592 -336 q 466 -333 507 -336 q 404 -331 425 -331 q 340 -333 382 -331 q 275 -336 297 -336 q 207 -289 224 -336 q 197 -199 197 -262 l 197 817 q 204 914 197 893 q 275 961 218 961 q 340 958 296 961 q 404 954 383 954 q 466 958 425 954 q 528 961 507 961 q 592 922 592 961 q 500 883 592 883 q 452 886 483 883 q 404 889 421 889 q 313 854 335 889 q 296 753 296 828 l 296 -131 z "},"\\":{"ha":392,"x_min":10,"x_max":408,"o":"m 10 922 q 42 949 10 949 q 89 903 74 949 l 399 -67 q 408 -104 408 -97 q 375 -131 408 -131 q 328 -83 343 -131 l 19 883 q 10 922 10 914 z "},"]":{"ha":704,"x_min":113,"x_max":507,"o":"m 408 753 q 392 853 408 826 q 300 889 368 889 q 252 886 283 889 q 204 883 221 883 q 113 922 113 883 q 176 961 113 961 q 238 958 197 961 q 300 954 279 954 q 365 958 321 954 q 429 961 408 961 q 500 914 486 961 q 507 817 507 893 l 507 -199 q 497 -289 507 -262 q 429 -336 481 -336 q 365 -333 407 -336 q 300 -331 322 -331 q 238 -333 279 -331 q 176 -336 197 -336 q 113 -300 113 -336 q 200 -258 113 -258 q 247 -261 215 -258 q 294 -264 279 -264 q 392 -229 368 -264 q 408 -131 408 -204 l 408 753 z "},"^":{"ha":1422,"x_min":293,"x_max":1128,"o":"m 654 1013 l 767 1013 l 1128 625 l 1018 625 l 711 931 l 404 625 l 293 625 l 654 1013 z "},"_":{"ha":711,"x_min":0,"x_max":711,"o":"m 0 -253 l 711 -253 l 711 -336 l 0 -336 l 0 -253 z "},"`":{"ha":711,"x_min":225,"x_max":533,"o":"m 533 808 q 508 792 528 792 q 357 869 481 792 q 225 986 225 951 q 240 1025 225 1008 q 275 1042 254 1042 q 417 938 310 1042 q 533 808 508 846 z "},"a":{"ha":786,"x_min":33,"x_max":783,"o":"m 500 250 l 500 360 q 364 321 465 332 q 211 292 247 307 q 139 179 139 260 q 179 97 139 126 q 269 69 215 69 q 428 111 364 69 q 500 250 500 160 m 517 85 q 269 -8 443 -8 q 33 185 33 -8 q 153 361 33 315 q 375 407 264 385 q 494 511 494 432 q 449 607 494 572 q 343 636 407 636 q 257 619 303 636 q 197 567 197 599 q 218 536 199 565 q 231 503 231 518 q 209 456 231 474 q 158 439 188 439 q 75 533 75 439 q 174 676 75 628 q 357 714 251 714 q 546 658 488 714 q 604 471 604 601 l 604 150 q 649 69 604 69 q 696 113 689 69 q 701 195 699 153 q 739 238 704 238 q 783 164 783 238 q 760 38 783 71 q 638 -8 729 -8 q 517 85 522 -8 z "},"b":{"ha":817,"x_min":-58,"x_max":764,"o":"m 228 383 l 228 293 q 419 71 228 71 q 597 153 538 71 q 649 347 649 225 q 599 536 649 463 q 429 622 540 622 q 275 551 329 622 q 228 383 228 486 m 232 58 q 225 -3 232 10 q 168 -19 214 -19 q 121 33 121 -19 l 121 765 q 111 844 121 826 q 50 861 101 861 q 35 861 46 861 q 21 861 25 861 q -58 908 -58 861 q -3 950 -58 950 q 43 947 13 950 q 89 943 74 943 q 138 947 106 943 q 186 950 169 950 q 238 885 238 950 q 228 603 238 831 q 450 717 303 717 q 686 604 600 717 q 764 349 764 503 q 685 86 764 183 q 436 -19 597 -19 q 232 58 313 -19 z "},"c":{"ha":726,"x_min":53,"x_max":681,"o":"m 53 346 q 136 610 53 511 q 386 715 224 715 q 569 668 490 715 q 664 515 664 613 q 628 425 664 461 q 539 389 593 389 q 474 450 474 389 q 506 505 474 476 q 539 547 539 533 q 483 608 539 588 q 394 625 442 625 q 215 536 275 625 q 164 333 164 460 q 214 150 164 224 q 378 67 272 67 q 518 124 469 67 q 574 229 540 149 q 628 286 597 286 q 681 236 681 286 q 581 46 681 121 q 372 -22 490 -22 q 131 86 217 -22 q 53 346 53 186 z "},"d":{"ha":861,"x_min":53,"x_max":858,"o":"m 589 293 l 589 383 q 540 551 589 488 q 386 622 488 622 q 218 536 276 622 q 168 347 168 463 q 219 154 168 225 q 394 71 278 71 q 589 293 589 71 m 589 603 l 589 750 q 573 847 589 826 q 506 867 557 867 q 489 867 500 867 q 474 867 478 867 q 408 906 408 867 q 465 951 408 951 l 644 951 q 685 939 676 951 q 694 893 694 926 l 694 175 q 708 93 694 107 q 765 78 722 79 l 792 78 q 858 33 858 78 q 803 -10 858 -10 q 756 -5 788 -10 q 707 0 724 0 q 663 -5 692 0 q 619 -10 635 -10 q 586 13 592 -10 q 585 58 585 19 q 378 -19 504 -19 q 135 82 222 -19 q 53 336 53 178 q 126 601 53 499 q 367 717 211 717 q 589 603 511 717 z "},"e":{"ha":733,"x_min":53,"x_max":683,"o":"m 167 333 l 167 328 q 217 150 167 219 q 378 69 274 69 q 519 122 467 69 q 581 219 546 149 q 631 272 607 272 q 678 222 678 272 q 661 160 678 197 q 372 -22 581 -22 q 131 86 217 -22 q 53 346 53 186 q 131 606 53 506 q 372 714 217 714 q 599 629 515 714 q 683 401 683 544 q 669 347 683 361 q 617 333 656 333 l 167 333 m 174 424 l 567 424 l 567 433 q 514 571 567 519 q 375 622 461 622 q 235 567 288 622 q 174 424 183 513 z "},"f":{"ha":478,"x_min":7,"x_max":585,"o":"m 175 607 q 114 605 154 607 q 53 603 74 603 q 7 643 7 603 q 63 689 7 689 q 109 686 78 689 q 156 683 140 683 l 175 683 l 174 713 q 408 951 163 951 q 526 924 478 951 q 585 824 585 889 q 521 756 585 756 q 456 806 456 756 q 458 828 456 813 q 461 850 461 843 q 407 869 461 869 q 278 719 278 869 q 317 681 278 681 q 354 685 329 681 q 392 689 379 689 q 453 644 453 689 q 375 601 453 601 q 324 604 356 601 q 283 607 292 607 l 283 172 q 303 88 283 100 q 392 83 311 83 q 453 36 453 83 q 397 -7 453 -7 q 308 -1 368 -7 q 219 4 249 4 q 142 -1 193 4 q 64 -7 90 -7 q 7 36 7 -7 q 64 82 7 82 q 86 82 72 82 q 107 81 101 81 q 168 103 156 81 q 175 172 175 117 l 175 607 z "},"g":{"ha":750,"x_min":54,"x_max":771,"o":"m 251 483 q 297 386 251 422 q 401 351 339 351 q 506 387 463 351 q 550 483 550 422 q 507 581 550 544 q 401 617 464 617 q 297 582 339 617 q 251 483 251 544 m 161 -33 q 250 -132 161 -101 q 394 -153 310 -153 q 538 -131 476 -153 q 625 -33 625 -100 q 539 67 625 35 q 394 89 478 89 q 250 65 314 89 q 161 -33 161 33 m 553 669 q 654 485 654 606 q 576 314 654 374 q 392 261 506 261 q 286 282 351 261 q 217 303 221 303 q 185 285 197 303 q 172 247 172 268 q 310 169 172 169 q 365 172 331 169 q 408 174 399 174 q 624 133 540 174 q 733 -39 733 79 q 614 -208 733 -151 q 394 -251 522 -251 q 174 -210 264 -251 q 54 -39 54 -154 q 87 56 54 14 q 169 119 119 99 q 69 246 69 158 q 175 378 69 346 q 147 485 147 429 q 224 651 147 593 q 404 704 293 704 q 472 699 440 704 q 517 796 472 761 q 625 831 561 831 q 726 799 685 831 q 771 704 771 763 q 704 631 771 631 q 647 683 647 631 q 669 728 647 690 q 619 753 658 753 q 553 669 553 753 z "},"h":{"ha":946,"x_min":-4,"x_max":946,"o":"m 174 760 q 93 872 174 872 q 64 871 83 872 q 36 869 44 869 q -4 908 -4 869 q 51 953 -4 953 l 233 953 q 272 936 264 953 q 278 890 278 925 l 278 592 q 508 704 367 704 q 739 603 676 704 q 785 363 785 528 q 783 271 785 333 q 782 178 782 208 q 797 96 782 108 q 886 83 811 83 q 946 36 946 83 q 890 -7 946 -7 q 815 -1 865 -7 q 739 4 764 4 q 656 -1 711 4 q 572 -7 600 -7 q 521 36 521 -7 q 576 83 521 83 q 601 82 585 83 q 625 81 618 81 q 671 114 663 81 q 675 178 675 126 l 675 381 q 642 549 675 496 q 492 617 599 617 q 314 515 365 617 q 278 299 278 440 l 278 178 q 290 94 278 104 q 378 83 303 83 q 431 36 431 83 q 381 -7 431 -7 q 297 -1 353 -7 q 214 4 242 4 q 138 -1 189 4 q 63 -7 88 -7 q 7 36 7 -7 q 63 82 7 82 q 85 82 71 82 q 106 81 100 81 q 167 103 154 81 q 174 172 174 117 l 174 760 z "},"i":{"ha":472,"x_min":25,"x_max":464,"o":"m 192 510 q 119 610 192 610 q 92 608 110 610 q 65 606 74 606 q 25 647 25 606 q 74 692 25 692 l 251 692 q 292 679 283 692 q 300 633 300 667 l 300 178 q 307 107 300 124 q 367 78 321 78 q 386 81 374 78 q 404 83 399 83 q 464 36 464 83 q 408 -7 464 -7 q 333 -1 383 -7 q 258 4 283 4 q 169 -1 228 4 q 81 -7 110 -7 q 25 36 25 -7 q 83 83 25 83 q 103 81 90 83 q 124 78 117 78 q 183 104 171 78 q 192 174 192 119 l 192 510 m 150 829 q 172 883 150 861 q 226 906 194 906 q 279 883 258 906 q 300 829 300 861 q 278 775 300 797 q 226 753 257 753 q 172 775 194 753 q 150 829 150 797 z "},"j":{"ha":472,"x_min":-122,"x_max":325,"o":"m 174 829 q 196 883 174 861 q 250 906 218 906 q 303 883 282 906 q 325 829 325 861 q 303 775 325 797 q 250 753 282 753 q 196 775 218 753 q 174 829 174 797 m 222 7 l 222 474 q 221 543 222 533 q 193 601 217 586 q 142 611 178 611 q 121 611 135 611 q 100 611 107 611 q 36 651 36 611 q 83 694 36 694 q 133 692 100 694 q 182 689 165 689 q 230 692 199 689 q 278 694 261 694 q 317 681 308 694 q 325 633 325 668 l 325 38 q 71 -272 325 -272 q -56 -237 1 -272 q -122 -132 -122 -197 q -103 -72 -122 -96 q -49 -49 -83 -49 q 19 -117 19 -49 q 9 -142 19 -126 q -1 -167 -1 -157 q 75 -190 17 -190 q 222 7 222 -190 z "},"k":{"ha":882,"x_min":10,"x_max":854,"o":"m 219 950 q 270 940 257 950 q 283 892 283 931 l 283 465 q 313 417 283 428 q 375 413 326 413 q 481 432 451 413 q 519 532 519 457 q 675 717 519 717 q 838 576 838 717 q 772 493 838 493 q 713 551 713 493 q 721 576 713 561 q 729 601 729 592 q 686 632 729 632 q 632 588 642 632 q 621 489 626 538 q 568 388 611 422 l 568 383 q 660 269 639 350 q 675 142 661 265 q 719 81 682 81 q 756 128 756 81 q 756 153 756 136 q 754 179 754 171 q 806 238 754 238 q 854 176 854 238 q 854 151 854 168 q 853 129 853 136 q 710 -8 853 -8 q 586 47 613 -8 q 569 171 575 71 q 526 292 565 254 q 404 338 479 338 q 324 335 333 338 q 283 278 283 325 l 283 165 q 292 100 283 114 q 351 81 304 81 q 380 84 361 81 q 408 88 399 88 q 463 43 463 88 q 390 -8 463 -8 q 313 -1 364 -8 q 235 6 261 6 q 159 -1 210 6 q 82 -8 108 -8 q 10 43 10 -8 q 24 74 10 61 q 56 88 38 88 q 83 84 65 88 q 110 81 100 81 q 169 100 156 81 q 179 165 179 115 l 179 742 q 143 863 179 851 q 114 865 132 865 q 92 865 107 865 q 68 864 76 864 q 11 906 11 864 q 64 950 11 950 l 219 950 z "},"l":{"ha":472,"x_min":25,"x_max":464,"o":"m 192 767 q 119 869 192 869 q 91 867 110 869 q 64 865 72 865 q 25 906 25 865 q 78 950 25 950 l 251 950 q 291 937 282 950 q 300 892 300 924 l 300 178 q 314 96 300 108 q 404 83 328 83 q 464 36 464 83 q 408 -7 464 -7 q 333 -1 383 -7 q 258 4 283 4 q 169 -1 228 4 q 81 -7 110 -7 q 25 36 25 -7 q 81 82 25 82 q 103 82 89 82 q 124 81 118 81 q 183 104 171 81 q 192 172 192 119 l 192 767 z "},"m":{"ha":1333,"x_min":25,"x_max":1328,"o":"m 296 336 l 296 171 q 303 97 296 107 q 369 83 313 83 q 418 36 418 83 q 372 -7 418 -7 q 308 -1 351 -7 q 243 4 265 4 q 162 -1 217 4 q 81 -7 107 -7 q 25 36 25 -7 q 60 81 25 74 q 122 81 60 81 q 183 107 171 81 q 190 178 190 122 l 190 497 q 144 607 190 603 q 72 608 108 608 q 25 646 25 613 q 83 692 25 692 l 243 692 q 290 635 290 692 q 290 611 290 628 q 289 588 289 594 q 500 706 357 706 q 692 606 614 706 q 911 706 771 706 q 1125 597 1065 706 q 1168 356 1168 518 q 1166 265 1168 325 q 1164 178 1164 204 q 1178 96 1164 108 q 1267 83 1192 83 q 1328 36 1328 83 q 1272 -7 1328 -7 q 1196 -1 1247 -7 q 1118 4 1144 4 q 1047 -1 1094 4 q 975 -7 999 -7 q 931 36 931 -7 q 975 82 931 82 q 994 82 981 82 q 1015 81 1008 81 q 1053 114 1046 81 q 1054 171 1054 124 l 1054 343 q 1040 528 1054 485 q 899 619 1010 619 q 753 519 793 619 q 728 328 728 456 l 728 171 q 738 93 728 103 q 815 83 749 83 q 864 36 864 83 q 818 -7 864 -7 q 745 -1 794 -7 q 672 4 696 4 q 602 -1 649 4 q 532 -7 556 -7 q 486 36 486 -7 q 535 83 486 83 q 557 82 542 83 q 579 81 572 81 q 617 114 608 81 q 619 171 619 125 l 619 400 q 597 549 619 503 q 475 617 565 617 q 296 336 296 617 z "},"n":{"ha":972,"x_min":25,"x_max":964,"o":"m 692 175 l 692 378 q 658 547 692 493 q 508 617 615 617 q 332 515 382 617 q 296 299 296 442 l 296 156 q 306 96 296 110 q 344 82 317 82 q 367 82 350 82 q 394 83 383 83 q 450 36 450 83 q 400 -7 450 -7 q 316 -1 372 -7 q 232 4 260 4 q 156 -1 207 4 q 81 -7 106 -7 q 25 36 25 -7 q 60 81 25 74 q 122 81 60 81 q 181 101 167 81 q 190 165 190 117 l 190 508 q 114 613 190 613 q 88 611 106 613 q 64 610 71 610 q 25 646 25 610 q 83 692 25 692 l 243 692 q 290 632 290 692 q 290 607 290 624 q 289 582 289 589 q 526 704 382 704 q 757 603 694 704 q 803 363 803 528 q 801 271 803 333 q 800 178 800 208 q 814 94 800 113 q 840 82 822 85 q 875 81 853 79 q 906 83 903 83 q 964 36 964 83 q 908 -7 964 -7 q 832 -1 883 -7 q 756 4 781 4 q 672 -1 728 4 q 589 -7 617 -7 q 539 36 539 -7 q 594 83 539 83 q 621 82 604 83 q 644 81 638 81 q 689 113 681 81 q 692 175 692 124 z "},"o":{"ha":814,"x_min":53,"x_max":760,"o":"m 165 346 q 222 151 165 221 q 407 75 285 75 q 589 153 525 75 q 647 346 647 225 q 590 543 647 469 q 407 625 526 625 q 224 543 288 625 q 165 346 165 468 m 53 346 q 147 612 53 511 q 406 713 242 713 q 666 613 572 713 q 760 346 760 514 q 667 82 760 176 q 404 -12 574 -12 q 146 84 239 -12 q 53 346 53 181 z "},"p":{"ha":861,"x_min":1,"x_max":808,"o":"m 275 394 l 275 272 q 326 124 275 176 q 472 71 378 71 q 642 156 585 71 q 692 347 692 229 q 642 536 692 463 q 474 622 583 622 q 324 554 378 622 q 275 394 275 493 m 275 58 l 275 -78 q 285 -156 275 -139 q 329 -172 296 -172 q 357 -172 336 -172 q 392 -171 378 -171 q 453 -219 453 -171 q 397 -264 453 -264 q 299 -258 364 -264 q 200 -253 233 -253 q 133 -258 178 -253 q 65 -264 88 -264 q 17 -222 17 -264 q 63 -174 17 -174 q 83 -174 68 -174 q 104 -175 97 -175 q 160 -146 149 -175 q 165 -78 165 -132 l 165 488 q 161 561 165 542 q 115 606 150 604 q 46 608 81 607 q 1 647 1 614 q 42 692 1 692 q 64 689 49 692 q 86 686 79 686 q 158 689 110 686 q 231 692 207 692 q 274 664 268 692 q 275 603 275 660 q 494 717 349 717 q 732 601 646 717 q 808 342 808 499 q 725 85 808 183 q 481 -22 636 -22 q 275 58 360 -22 z "},"q":{"ha":824,"x_min":56,"x_max":879,"o":"m 590 272 l 590 394 q 539 554 590 492 q 389 622 485 622 q 221 536 279 622 q 171 347 171 463 q 221 156 171 229 q 392 71 279 71 q 538 124 486 71 q 590 272 590 176 m 815 -181 q 879 -231 879 -181 q 819 -272 879 -272 q 740 -267 793 -272 q 660 -261 686 -261 q 563 -267 628 -261 q 467 -272 499 -272 q 411 -229 411 -272 q 475 -181 411 -181 q 508 -183 486 -181 q 538 -185 529 -185 q 586 -153 575 -185 q 590 -89 590 -139 l 590 58 q 383 -19 504 -19 q 139 82 228 -19 q 56 336 56 178 q 129 601 56 499 q 369 717 214 717 q 590 603 515 717 q 593 671 590 664 q 650 692 603 692 q 692 684 685 692 q 700 642 700 676 l 700 -89 q 710 -165 700 -149 q 753 -182 721 -182 q 781 -182 760 -182 q 815 -181 801 -181 z "},"r":{"ha":708,"x_min":25,"x_max":669,"o":"m 300 171 q 310 98 300 114 q 353 82 321 82 q 379 82 360 82 q 413 83 399 83 q 475 36 475 83 q 418 -7 475 -7 q 325 -1 388 -7 q 232 4 263 4 q 155 -1 207 4 q 78 -7 103 -7 q 25 36 25 -7 q 58 81 25 74 q 121 81 60 81 q 182 107 169 81 q 189 178 189 122 l 189 506 q 115 613 189 613 q 88 610 106 613 q 61 608 69 608 q 25 646 25 608 q 81 692 25 692 l 240 692 q 289 640 289 692 q 288 618 289 632 q 286 594 286 600 q 471 711 343 711 q 613 657 557 711 q 669 517 669 603 q 558 386 669 386 q 482 456 482 386 q 522 506 482 486 q 561 544 561 525 q 526 601 561 578 q 456 625 490 625 q 319 513 354 625 q 300 315 300 450 l 300 171 z "},"s":{"ha":700,"x_min":67,"x_max":642,"o":"m 158 51 q 111 -25 158 -25 q 67 31 67 -25 q 71 86 67 49 q 75 142 75 124 q 71 196 75 160 q 67 250 67 232 q 81 286 67 271 q 115 301 96 301 q 156 268 150 301 q 161 190 158 229 q 217 107 171 138 q 375 67 275 67 q 536 190 536 67 q 421 286 536 263 q 204 331 211 328 q 89 506 89 378 q 169 664 89 610 q 347 711 239 711 q 533 649 460 711 q 532 667 532 657 q 569 711 532 711 q 606 636 606 711 q 601 552 606 608 q 597 467 597 496 q 556 419 597 419 q 518 472 525 419 q 490 572 508 546 q 347 625 453 625 q 240 600 282 625 q 190 508 190 569 q 307 413 190 436 q 525 371 415 392 q 642 208 642 328 q 560 33 642 97 q 369 -25 485 -25 q 158 51 229 -25 z "},"t":{"ha":582,"x_min":17,"x_max":543,"o":"m 193 892 q 250 811 250 892 q 248 766 250 796 q 246 724 246 736 q 249 696 246 706 q 324 693 264 689 q 417 693 392 697 q 463 644 463 683 q 401 596 463 596 l 265 596 q 246 556 246 596 l 246 243 q 254 129 246 153 q 340 74 271 74 q 432 142 414 74 q 436 267 436 161 q 485 333 436 333 q 543 236 543 333 q 331 -22 543 -22 q 176 39 221 -22 q 139 206 139 90 l 139 556 q 135 590 139 576 q 104 597 125 597 q 88 597 99 597 q 71 596 76 596 q 17 643 17 596 q 74 692 17 692 q 92 692 81 692 q 108 690 103 690 q 143 713 143 690 l 143 847 q 193 892 143 892 z "},"u":{"ha":942,"x_min":-1,"x_max":931,"o":"m -1 653 q 51 694 -1 694 q 105 692 69 694 q 158 689 140 689 q 194 692 171 689 q 229 694 217 694 q 267 671 261 694 q 269 619 269 664 l 269 314 q 303 142 269 196 q 453 71 344 71 q 629 174 579 71 q 665 392 665 247 l 665 511 q 663 575 665 564 q 617 608 653 608 q 550 608 553 608 q 514 653 514 615 q 564 694 514 694 q 613 692 581 694 q 663 689 646 689 q 697 692 674 689 q 731 694 719 694 q 768 671 763 694 q 771 619 771 664 l 771 229 q 782 111 771 139 q 844 83 793 83 q 860 83 850 83 q 874 83 869 83 q 931 44 931 83 q 881 -4 931 -4 l 719 -4 q 672 56 672 -4 q 674 83 672 65 q 675 108 675 101 q 436 -14 578 -14 q 204 89 267 -14 q 158 328 158 164 q 160 419 158 358 q 161 511 161 481 q 152 594 161 579 q 101 610 143 610 q 83 608 96 610 q 64 608 69 608 q -1 653 -1 608 z "},"v":{"ha":853,"x_min":-31,"x_max":883,"o":"m 425 -17 q 353 33 372 -17 l 157 533 q 81 611 126 611 q 55 608 72 611 q 29 606 38 606 q -31 649 -31 606 q 33 694 -31 694 q 123 688 64 694 q 213 681 182 681 q 277 688 235 681 q 340 694 319 694 q 388 651 388 694 q 339 606 388 606 q 314 608 331 606 q 289 611 297 611 q 258 575 258 611 q 333 349 258 551 q 425 104 379 226 q 517 347 471 226 q 592 575 592 550 q 564 611 592 611 q 538 608 556 611 q 513 606 521 606 q 464 651 464 606 q 511 694 464 694 q 574 688 532 694 q 639 681 617 681 q 728 688 669 681 q 818 694 788 694 q 883 649 883 694 q 822 606 883 606 q 797 608 814 606 q 772 611 781 611 q 694 533 725 611 l 500 33 q 425 -17 481 -17 z "},"w":{"ha":1169,"x_min":-39,"x_max":1185,"o":"m 368 81 l 492 611 q 575 697 511 697 q 657 611 636 697 l 783 81 q 847 336 815 208 q 899 575 899 542 q 867 611 899 611 q 833 608 856 611 q 800 606 811 606 q 736 650 736 606 q 797 694 736 694 q 874 688 824 694 q 951 681 925 681 q 1036 688 979 681 q 1121 694 1093 694 q 1185 650 1185 694 q 1126 606 1185 606 q 1101 608 1118 606 q 1075 611 1083 611 q 1019 590 1036 611 q 997 533 1008 576 l 901 167 q 865 54 881 86 q 783 -17 832 -17 q 694 40 721 -17 q 665 153 685 60 l 575 585 l 482 153 q 454 40 461 57 q 364 -17 428 -17 q 246 167 293 -17 l 150 533 q 126 592 139 578 q 68 611 108 611 q 46 608 61 611 q 22 606 31 606 q -39 649 -39 606 q 31 694 -39 694 q 115 688 58 694 q 200 681 172 681 q 276 688 225 681 q 353 694 328 694 q 414 650 414 694 q 350 606 414 606 q 317 608 339 606 q 285 611 296 611 q 253 571 253 611 q 303 333 253 535 q 368 81 336 207 z "},"x":{"ha":856,"x_min":1,"x_max":840,"o":"m 421 428 q 496 511 458 469 q 553 597 553 578 q 535 607 553 607 q 517 604 529 607 q 500 601 506 601 q 456 646 456 601 q 506 692 456 692 q 562 686 524 692 q 619 681 600 681 q 696 686 644 681 q 772 692 747 692 q 826 649 826 692 q 769 601 826 601 q 753 604 764 601 q 736 607 742 607 q 653 561 690 607 l 483 356 l 678 124 q 757 78 717 78 q 773 81 763 78 q 789 83 783 83 q 840 39 840 83 q 792 -7 840 -7 q 724 -1 769 -7 q 657 6 679 6 q 583 -1 632 6 q 508 -7 533 -7 q 458 36 458 -7 q 514 83 458 83 q 538 81 522 83 q 561 78 553 78 q 582 89 582 78 q 508 189 571 118 q 421 288 464 239 q 335 188 378 238 q 261 89 261 100 q 283 78 261 78 q 306 81 290 78 q 328 83 321 83 q 383 36 383 83 q 333 -7 383 -7 q 259 -1 308 -7 q 185 6 210 6 q 119 -1 163 6 q 53 -7 75 -7 q 1 39 1 -7 q 54 83 1 83 q 70 81 60 83 q 86 78 81 78 q 164 124 126 78 l 358 357 l 186 561 q 103 607 147 607 q 86 604 97 607 q 69 601 75 601 q 13 649 13 601 q 68 692 13 692 q 144 686 93 692 q 219 681 194 681 q 278 686 239 681 q 336 692 317 692 q 383 651 383 692 q 328 601 383 601 q 316 604 324 601 q 304 607 308 607 q 286 597 286 607 q 347 513 286 583 q 421 428 383 469 z "},"y":{"ha":851,"x_min":-17,"x_max":851,"o":"m 169 -275 q 40 -237 92 -275 q -17 -122 -17 -197 q 7 -54 -17 -81 q 71 -28 31 -28 q 142 -89 142 -28 q 122 -126 142 -106 q 103 -158 103 -147 q 171 -185 103 -185 q 305 -124 242 -185 q 368 7 368 -62 q 365 33 368 26 l 179 533 q 106 611 150 611 q 81 608 97 611 q 57 606 65 606 q -1 649 -1 606 q 65 694 -1 694 q 149 688 93 694 q 232 681 204 681 q 294 688 253 681 q 357 694 336 694 q 400 651 400 694 q 354 606 400 606 q 331 608 346 606 q 307 611 315 611 q 278 575 278 611 q 438 128 278 565 q 593 575 593 565 q 561 611 593 611 q 538 608 553 611 q 515 606 524 606 q 471 651 471 606 q 514 694 471 694 q 575 688 533 694 q 638 681 617 681 q 715 688 664 681 q 793 694 767 694 q 851 650 851 694 q 799 606 851 606 q 779 608 792 606 q 760 611 767 611 q 689 533 718 611 l 504 33 q 169 -275 390 -275 z "},"z":{"ha":710,"x_min":46,"x_max":658,"o":"m 517 599 l 250 599 q 188 590 206 599 q 161 539 161 578 q 164 510 161 529 q 167 482 167 492 q 119 428 167 428 q 78 482 78 428 q 79 523 78 496 q 81 564 81 550 q 79 590 81 572 q 79 617 79 608 q 142 692 79 692 q 181 689 154 692 q 219 686 207 686 l 500 686 q 535 689 511 686 q 569 692 558 692 q 653 628 653 692 q 614 558 653 599 l 174 100 l 479 100 q 547 111 526 100 q 575 169 575 126 q 572 211 575 183 q 569 253 569 239 q 617 317 569 317 q 658 251 658 317 q 657 184 658 229 q 656 117 656 139 q 651 26 656 38 q 581 -4 640 -4 q 363 -2 508 -4 q 144 0 217 0 q 46 67 46 0 q 78 142 46 108 l 517 599 z "},"{":{"ha":711,"x_min":119,"x_max":596,"o":"m 596 1025 l 596 938 l 564 939 q 446 901 478 943 q 417 779 417 865 q 421 692 417 753 q 425 600 425 631 q 283 368 425 408 q 424 132 424 333 q 421 45 424 103 q 418 -37 418 -12 q 449 -164 418 -128 q 596 -200 479 -200 l 596 -287 l 572 -287 q 358 -221 414 -287 q 315 -42 315 -169 q 317 43 315 -17 q 319 136 319 103 q 278 288 319 250 q 119 325 236 325 l 119 413 l 150 411 q 293 467 253 407 q 324 614 324 513 q 320 703 324 642 q 317 793 317 764 q 389 989 317 943 q 572 1025 444 1025 l 596 1025 z "},"|":{"ha":711,"x_min":311,"x_max":400,"o":"m 311 1086 l 400 1086 l 400 -336 l 311 -336 l 311 1086 z "},"}":{"ha":711,"x_min":115,"x_max":593,"o":"m 593 413 l 593 325 q 429 282 467 325 q 392 133 392 239 q 394 40 392 100 q 396 -44 396 -19 q 353 -221 396 -169 q 144 -287 299 -287 l 115 -287 l 115 -200 q 131 -201 119 -200 q 147 -203 142 -203 q 268 -160 239 -203 q 290 -31 290 -126 q 288 43 290 -8 q 286 122 286 94 q 428 368 286 332 q 288 596 288 408 q 292 687 288 626 q 296 775 296 747 q 264 903 296 864 q 194 936 243 929 q 115 939 176 939 l 115 1025 l 139 1025 q 322 989 268 1025 q 396 746 396 940 q 394 666 396 715 q 392 603 392 617 q 435 449 392 488 q 593 413 478 410 z "},"~":{"ha":1185,"x_min":124,"x_max":1063,"o":"m 1063 526 l 1063 436 q 794 336 922 336 q 593 383 725 336 q 392 431 461 431 q 124 319 281 431 l 124 413 q 392 514 268 514 q 594 465 463 514 q 794 417 726 417 q 1063 526 906 417 z "},"":{"ha":861,"x_min":60,"x_max":803,"o":"m 650 617 q 586 769 650 706 q 433 833 522 833 q 279 769 344 833 q 214 617 214 706 q 278 462 214 526 q 433 397 343 397 q 586 463 522 397 q 650 617 650 528 m 110 986 l 253 842 q 431 906 335 906 q 611 842 529 906 l 753 986 l 803 935 l 661 792 q 721 614 721 714 q 661 436 721 514 l 803 294 l 753 243 l 611 386 q 431 325 531 325 q 253 386 331 325 l 110 243 l 60 294 l 203 436 q 142 614 142 518 q 203 792 142 711 l 60 935 l 110 986 z "},"":{"ha":711,"x_min":311,"x_max":400,"o":"m 311 283 l 400 283 l 400 -243 l 311 -243 l 311 283 m 311 994 l 400 994 l 400 468 l 311 468 l 311 994 z "},"":{"ha":711,"x_min":58,"x_max":653,"o":"m 517 136 q 588 -11 588 78 q 513 -164 588 -104 q 347 -219 443 -219 q 172 -158 239 -219 q 128 -226 172 -226 q 75 -187 75 -226 q 79 -121 75 -165 q 83 -54 83 -76 q 79 4 83 -35 q 75 63 75 43 q 125 114 75 114 q 182 39 182 114 q 179 17 182 32 q 176 -6 176 1 q 333 -129 176 -129 q 426 -103 386 -129 q 472 -22 472 -72 q 365 110 472 40 q 165 236 265 172 q 58 421 58 321 q 186 625 58 556 q 124 756 124 681 q 193 914 124 854 q 358 969 258 969 q 500 914 432 969 q 543 975 500 975 q 594 936 594 975 q 591 869 594 914 q 588 803 588 825 q 591 744 588 783 q 594 686 594 706 q 543 636 594 636 q 490 697 500 636 q 469 811 476 797 q 351 872 442 872 q 272 844 304 872 q 240 769 240 817 q 347 640 240 704 q 546 524 446 582 q 653 333 653 442 q 517 136 653 196 m 458 188 q 542 310 542 232 q 414 468 542 389 l 251 569 q 164 450 164 525 q 188 379 164 410 q 458 188 214 344 z "},"":{"ha":1422,"x_min":100,"x_max":1325,"o":"m 1250 399 q 1094 782 1250 626 q 710 938 938 938 q 338 772 501 938 q 175 399 175 607 q 335 22 175 182 q 710 -139 494 -139 q 1091 19 932 -139 q 1250 399 1250 176 m 710 1013 q 1153 842 982 1013 q 1325 399 1325 671 q 1152 -42 1325 131 q 710 -214 979 -214 q 274 -38 449 -214 q 100 399 100 138 q 277 833 100 654 q 710 1013 454 1013 m 890 668 q 892 714 890 708 q 922 740 897 740 q 956 707 956 740 q 952 647 956 688 q 949 588 949 607 q 952 533 949 569 q 956 479 956 497 q 919 435 956 435 q 883 490 883 435 q 842 624 883 571 q 715 679 796 679 q 546 589 604 679 q 497 394 497 513 q 543 199 497 274 q 713 107 600 107 q 858 164 814 107 q 900 272 882 194 q 939 329 914 329 q 979 276 979 329 q 905 98 979 161 q 713 35 831 35 q 483 138 560 35 q 414 388 414 231 q 481 636 414 540 q 703 747 557 747 q 890 668 824 747 z "},"":{"ha":714,"x_min":69,"x_max":617,"o":"m 617 147 q 575 119 617 119 q 522 140 539 119 q 429 249 476 194 q 353 356 357 335 q 428 464 358 383 q 522 569 475 517 q 575 593 542 593 q 617 564 617 593 q 544 456 617 543 q 472 356 472 369 q 544 254 472 340 q 617 147 617 168 m 333 147 q 293 119 333 119 q 239 142 257 119 q 146 250 193 196 q 69 356 69 342 q 144 463 69 374 q 239 569 192 515 q 293 593 258 593 q 333 564 333 593 q 261 458 333 542 q 189 356 189 375 q 261 254 189 339 q 333 147 333 169 z "},"":{"ha":1185,"x_min":176,"x_max":978,"o":"m 176 500 l 978 500 l 978 181 l 897 181 l 897 419 l 176 419 l 176 500 z "},"":{"ha":1422,"x_min":100,"x_max":1325,"o":"m 1250 399 q 1094 784 1250 626 q 710 942 938 942 q 338 774 501 942 q 175 399 175 607 q 335 21 175 182 q 710 -140 494 -140 q 1091 19 932 -140 q 1250 399 1250 178 m 710 1013 q 1153 842 982 1013 q 1325 399 1325 671 q 1152 -42 1325 129 q 710 -212 979 -212 q 275 -37 450 -212 q 100 399 100 138 q 277 833 100 654 q 710 1013 454 1013 m 847 403 l 847 400 q 947 264 947 382 q 945 217 947 247 q 943 175 943 188 q 983 115 943 115 q 1032 196 1032 115 q 1031 231 1032 207 q 1029 267 1029 256 q 1063 329 1029 329 q 1094 289 1094 329 l 1094 171 q 1069 78 1094 106 q 979 46 1043 46 q 869 113 889 46 q 863 260 863 135 q 801 357 863 335 q 674 369 768 369 q 613 335 613 369 l 613 175 q 671 115 613 115 q 698 118 681 115 q 725 121 715 121 q 763 85 763 121 q 704 46 763 46 q 636 51 682 46 q 568 56 590 56 q 494 51 543 56 q 421 46 446 46 q 376 85 376 46 q 415 121 376 121 q 443 118 425 121 q 471 115 461 115 q 526 175 526 115 l 526 614 q 467 675 526 675 q 440 672 457 675 q 413 668 422 668 q 376 703 376 668 q 421 743 376 743 q 493 738 444 743 q 565 733 542 733 q 663 738 599 733 q 761 743 728 743 q 983 568 983 743 q 948 456 983 501 q 847 403 913 411 m 613 621 l 613 464 q 636 436 613 442 q 679 435 643 435 q 824 447 785 435 q 901 553 901 471 q 844 656 901 628 q 721 675 806 675 q 651 669 669 675 q 613 621 613 658 z "},"":{"ha":500,"x_min":46,"x_max":454,"o":"m 361 782 q 331 868 361 833 q 250 903 300 903 q 169 868 200 903 q 139 782 139 833 q 169 694 139 731 q 250 657 200 657 q 331 694 300 657 q 361 782 361 731 m 250 982 q 392 922 331 982 q 454 782 454 863 q 392 640 454 700 q 249 581 331 581 q 106 640 165 581 q 46 782 46 699 q 108 922 46 863 q 250 982 169 982 z "},"":{"ha":1185,"x_min":176,"x_max":1008,"o":"m 176 110 l 1008 110 l 1008 28 l 176 28 l 176 110 m 553 819 l 633 819 l 633 581 l 1008 581 l 1008 500 l 633 500 l 633 261 l 553 261 l 553 500 l 176 500 l 176 581 l 553 581 l 553 819 z "},"":{"ha":711,"x_min":53,"x_max":658,"o":"m 658 1028 l 658 972 l 572 972 l 572 0 l 506 0 l 506 972 l 381 972 l 381 0 l 314 0 l 314 543 q 129 608 200 549 q 53 785 53 674 q 133 965 53 900 q 325 1028 208 1028 l 658 1028 z "},"":{"ha":714,"x_min":104,"x_max":649,"o":"m 383 564 q 425 593 383 593 q 479 569 460 593 q 574 463 526 515 q 649 356 649 374 q 572 250 649 342 q 479 142 525 196 q 425 119 461 119 q 383 147 383 119 q 456 251 383 164 q 529 357 529 338 q 456 459 529 369 q 383 564 383 549 m 104 564 q 144 593 104 593 q 200 569 181 593 q 294 463 247 517 q 368 356 368 376 q 292 250 368 342 q 200 142 246 196 q 144 119 182 119 q 104 147 104 119 q 174 250 104 169 q 249 357 243 331 q 171 463 243 378 q 104 564 104 543 z "},"":{"ha":783,"x_min":-78,"x_max":731,"o":"m 142 742 l 251 742 l 164 329 q 153 233 153 276 q 304 75 153 75 q 538 360 475 75 l 622 742 l 731 742 l 617 219 q 601 125 601 150 q 625 85 601 94 q 675 81 638 81 l 657 -6 q 593 -12 625 -12 q 492 89 500 -12 q 292 -12 432 -12 q 110 83 169 -12 l 31 -296 l -78 -296 l 142 742 z "},"":{"ha":997,"x_min":28,"x_max":899,"o":"m 578 1139 q 601 1193 578 1169 q 656 1217 625 1217 q 710 1194 686 1217 q 733 1139 733 1171 q 656 1060 733 1060 q 600 1083 622 1060 q 578 1139 578 1106 m 311 1139 q 335 1193 311 1169 q 389 1217 358 1217 q 443 1194 419 1217 q 467 1139 467 1171 q 389 1060 467 1060 q 311 1139 311 1060 m 236 185 l 236 781 q 158 864 236 864 q 119 858 146 864 q 81 853 93 853 q 43 868 58 853 q 28 906 28 883 q 89 956 28 956 q 187 951 121 956 q 285 947 253 947 l 671 947 q 742 951 694 947 q 814 956 790 956 q 881 885 881 956 q 876 826 881 865 q 872 768 872 788 q 879 699 872 744 q 886 629 886 653 q 833 553 886 553 q 794 571 810 553 q 778 614 778 589 q 781 672 778 633 q 785 731 785 711 q 756 828 785 804 q 651 853 728 853 l 431 853 q 367 829 382 853 q 356 758 356 811 l 356 599 q 419 543 356 543 q 524 550 503 543 q 571 631 571 567 q 568 669 571 643 q 565 707 565 694 q 614 763 565 763 q 658 678 658 763 q 653 594 658 650 q 647 511 647 539 q 653 427 647 483 q 658 343 658 371 q 614 258 658 258 q 565 315 565 258 q 568 349 565 326 q 571 383 571 372 q 524 469 571 453 q 414 476 503 476 q 356 422 356 476 l 356 190 q 368 115 356 133 q 436 92 383 92 l 669 92 q 774 117 746 92 q 803 217 803 143 q 799 275 803 236 q 794 333 794 314 q 810 378 794 358 q 850 397 825 397 q 899 336 899 397 q 894 258 899 310 q 890 181 890 207 q 894 122 890 161 q 899 64 899 83 q 831 -7 899 -7 q 760 -3 807 -7 q 689 0 713 0 l 269 0 q 179 -3 239 0 q 89 -7 119 -7 q 28 47 28 -7 q 81 97 28 97 q 117 94 93 97 q 153 92 140 92 q 219 113 201 92 q 236 185 236 135 z "},"":{"ha":1117,"x_min":0,"x_max":1117,"o":"m 564 822 l 442 471 q 433 442 436 454 l 440 431 q 465 428 454 428 l 653 428 q 676 432 663 428 l 683 444 q 678 471 682 460 l 564 822 m 693 339 l 415 339 q 372 296 388 339 q 342 210 357 253 q 325 122 325 158 q 372 89 325 89 q 408 92 385 89 q 444 94 432 94 q 506 44 506 94 q 450 -8 506 -8 q 345 -1 415 -8 q 240 6 275 6 q 151 -1 210 6 q 63 -8 92 -8 q 19 5 39 -8 q 0 42 0 18 q 14 78 0 61 q 47 94 28 94 q 69 92 54 94 q 92 89 85 89 q 167 110 142 89 q 206 178 188 128 l 464 869 q 558 958 497 958 q 628 932 604 958 q 664 864 646 914 l 911 178 q 946 114 928 132 q 1014 89 971 89 q 1028 92 1019 89 q 1043 94 1038 94 q 1117 42 1117 94 q 1097 5 1117 18 q 1054 -8 1078 -8 q 964 -1 1024 -8 q 874 6 904 6 q 773 -1 840 6 q 672 -8 706 -8 q 617 44 617 -8 q 675 94 617 94 q 711 92 688 94 q 747 89 735 89 q 789 133 789 89 q 781 181 789 156 q 756 269 768 225 q 693 339 729 339 z "},"":{"ha":900,"x_min":28,"x_max":869,"o":"m 581 946 q 663 951 608 946 q 744 956 717 956 q 822 885 822 956 q 817 839 822 869 q 813 793 813 808 q 817 727 813 771 q 822 661 822 683 q 775 603 822 603 q 733 621 750 603 q 717 664 717 639 q 720 711 717 679 q 724 758 724 743 q 689 842 724 822 q 593 853 665 853 l 439 853 q 371 833 386 853 q 356 758 356 814 l 356 578 q 360 561 356 571 q 469 542 385 542 q 509 542 482 542 q 551 542 536 542 q 765 500 696 542 q 869 269 869 438 q 546 -7 869 -7 q 408 -1 500 -7 q 269 6 315 6 q 179 -1 239 6 q 89 -7 119 -7 q 28 47 28 -7 q 81 97 28 97 q 123 92 94 97 q 165 86 151 86 q 236 172 236 86 l 236 781 q 158 861 236 861 q 122 857 146 861 q 86 853 99 853 q 28 903 28 853 q 117 956 28 956 q 236 951 157 956 q 356 946 315 946 l 581 946 m 356 167 q 400 93 356 108 q 497 86 421 86 q 674 118 618 86 q 747 272 747 161 q 647 425 747 388 q 447 447 588 447 q 389 444 399 447 q 356 407 356 438 l 356 167 z "},"":{"ha":983,"x_min":25,"x_max":911,"o":"m 232 189 l 232 781 q 161 867 232 867 q 119 863 147 867 q 78 858 92 858 q 25 906 25 858 q 83 960 25 960 q 175 953 114 960 q 267 947 236 947 q 408 953 314 947 q 550 960 503 960 q 869 731 869 960 q 710 525 869 585 q 911 272 911 476 q 799 54 911 128 q 550 -7 703 -7 q 417 -1 506 -7 q 283 6 328 6 q 183 -1 250 6 q 83 -7 117 -7 q 25 47 25 -7 q 78 94 25 94 q 117 90 90 94 q 156 86 143 86 q 219 115 203 86 q 232 189 232 138 m 351 383 l 351 179 q 414 93 351 110 q 538 86 438 86 q 786 278 786 86 q 694 439 786 394 q 497 471 629 471 q 394 465 413 471 q 351 383 351 450 m 351 792 l 351 604 q 450 564 351 564 q 643 586 583 564 q 744 731 744 622 q 658 847 744 817 q 500 867 606 867 q 401 861 421 867 q 351 792 351 849 z "},"":{"ha":928,"x_min":28,"x_max":860,"o":"m 621 946 q 701 951 647 946 q 782 956 756 956 q 860 885 860 956 q 855 826 860 865 q 850 768 850 788 q 855 690 850 742 q 860 611 860 638 q 813 553 860 553 q 771 571 788 553 q 754 614 754 589 q 758 674 754 633 q 761 733 761 714 q 733 831 761 808 q 629 853 706 853 l 439 853 q 372 831 388 853 q 360 758 360 814 l 360 172 q 467 89 360 89 q 508 93 481 89 q 550 97 536 97 q 607 47 607 97 q 542 -7 607 -7 q 422 -1 501 -7 q 303 6 343 6 q 196 -1 267 6 q 89 -7 125 -7 q 28 47 28 -7 q 78 97 28 97 q 117 93 90 97 q 156 89 143 89 q 221 114 203 89 q 236 183 236 135 l 236 764 q 158 861 236 861 q 122 857 146 861 q 86 853 99 853 q 28 903 28 853 q 117 956 28 956 q 235 951 156 956 q 353 946 314 946 l 621 946 z "},"":{"ha":1214,"x_min":21,"x_max":1188,"o":"m 317 414 l 317 781 q 231 861 317 861 q 190 858 217 861 q 150 856 164 856 q 97 906 97 856 q 169 957 97 947 q 276 960 190 960 q 460 953 338 960 q 643 947 582 947 q 797 953 694 947 q 951 960 900 960 q 1072 956 1044 960 q 1161 906 1161 946 q 1106 856 1161 856 q 1067 858 1093 856 q 1028 861 1040 861 q 951 781 951 861 l 951 174 q 1022 92 951 92 q 1064 95 1036 92 q 1106 99 1092 99 q 1188 26 1188 99 q 1183 -19 1188 11 q 1178 -65 1178 -50 q 1183 -131 1178 -87 q 1188 -197 1188 -175 q 1140 -256 1188 -256 q 1099 -237 1115 -256 q 1082 -194 1082 -219 q 1085 -147 1082 -179 q 1089 -100 1089 -115 q 1038 -8 1089 -26 q 921 0 1014 0 q 774 -3 872 0 q 625 -7 675 -7 q 471 -3 574 -7 q 317 0 368 0 q 190 -10 225 0 q 119 -99 119 -31 q 123 -146 119 -114 q 126 -193 126 -178 q 110 -236 126 -218 q 68 -254 93 -254 q 21 -196 21 -254 q 26 -130 21 -174 q 31 -64 31 -86 q 26 -18 31 -49 q 21 28 21 13 q 86 99 21 99 q 126 95 100 99 q 165 92 151 92 q 317 414 317 92 m 392 131 q 519 92 392 92 l 660 92 q 769 100 744 92 q 826 179 826 117 l 826 779 q 811 842 826 824 q 753 861 796 861 q 681 858 729 861 q 610 856 633 856 q 560 858 593 856 q 511 861 528 861 q 453 842 468 861 q 439 781 439 824 l 439 411 q 415 256 439 357 q 392 131 392 154 z "},"":{"ha":997,"x_min":28,"x_max":899,"o":"m 236 185 l 236 781 q 158 864 236 864 q 119 858 146 864 q 81 853 93 853 q 43 868 58 853 q 28 906 28 883 q 89 956 28 956 q 187 951 121 956 q 285 947 253 947 l 672 947 q 743 951 696 947 q 814 956 790 956 q 881 885 881 956 q 876 826 881 865 q 872 768 872 788 q 876 690 872 742 q 881 611 881 638 q 833 553 881 553 q 794 571 810 553 q 778 614 778 589 q 781 672 778 633 q 785 731 785 711 q 756 828 785 804 q 651 853 728 853 l 431 853 q 367 829 382 853 q 356 758 356 811 l 356 599 q 419 543 356 543 q 532 553 504 543 q 565 597 560 563 q 567 707 567 608 q 614 763 567 763 q 658 678 658 763 q 654 594 658 650 q 650 511 650 539 q 654 427 650 483 q 658 343 658 371 q 614 258 658 258 q 567 319 567 258 q 568 346 567 329 q 569 369 569 363 q 547 458 569 440 q 450 476 524 476 q 385 474 394 476 q 356 422 356 464 l 356 190 q 368 115 356 133 q 436 92 383 92 l 669 92 q 774 117 746 92 q 803 217 803 143 q 799 275 803 236 q 794 333 794 314 q 810 378 794 358 q 850 397 825 397 q 899 336 899 397 q 894 258 899 310 q 890 181 890 207 q 894 122 890 161 q 899 64 899 83 q 831 -7 899 -7 q 763 -3 808 -7 q 696 0 718 0 l 263 0 q 176 -3 233 0 q 89 -7 118 -7 q 28 47 28 -7 q 81 97 28 97 q 117 94 93 97 q 153 92 140 92 q 219 113 201 92 q 236 185 236 135 z "},"":{"ha":1433,"x_min":13,"x_max":1421,"o":"m 178 86 q 226 121 214 86 q 236 207 236 146 q 236 236 236 217 q 236 267 236 256 q 257 414 236 363 q 371 510 288 489 l 371 514 q 272 644 292 550 q 257 797 264 721 q 185 871 246 871 q 150 842 150 871 q 158 819 150 831 q 167 800 167 808 q 106 740 167 740 q 38 835 38 740 q 185 967 38 967 q 353 857 317 967 q 389 656 371 757 q 542 546 421 546 q 614 550 600 546 q 654 599 654 560 l 654 771 q 644 833 654 815 q 590 858 631 858 q 560 856 581 858 q 529 853 539 853 q 497 868 511 853 q 482 901 482 883 q 550 958 482 958 q 635 953 578 958 q 719 947 692 947 q 801 953 747 947 q 883 958 856 958 q 951 901 951 958 q 937 868 951 883 q 904 853 922 853 q 874 856 894 853 q 843 858 853 858 q 789 833 803 858 q 779 771 779 815 l 779 599 q 819 550 779 560 q 892 546 833 546 q 1044 656 1013 546 q 1081 857 1063 756 q 1249 967 1117 967 q 1396 835 1396 967 q 1328 740 1396 740 q 1267 800 1267 740 q 1275 819 1267 808 q 1283 842 1283 831 q 1249 871 1283 871 q 1178 796 1188 871 q 1161 644 1169 721 q 1063 514 1142 550 l 1063 510 q 1176 414 1146 489 q 1197 265 1197 363 q 1197 236 1197 256 q 1197 207 1197 217 q 1207 121 1197 146 q 1256 86 1219 86 q 1319 188 1319 86 q 1318 237 1319 204 q 1317 285 1317 269 q 1369 375 1317 375 q 1406 358 1390 375 q 1421 319 1421 340 l 1421 165 q 1247 -7 1421 -7 q 1114 43 1150 -7 q 1088 163 1088 81 q 1089 213 1088 179 q 1089 261 1089 244 q 1058 393 1089 351 q 899 450 1014 450 q 779 394 779 450 l 779 172 q 786 110 779 124 q 840 89 797 89 q 867 93 850 89 q 894 97 885 97 q 947 46 947 97 q 865 -7 947 -7 q 792 -1 840 -7 q 719 6 744 6 q 644 -1 694 6 q 568 -7 593 -7 q 486 46 486 -7 q 539 97 486 97 q 566 93 549 97 q 593 89 583 89 q 647 110 636 89 q 654 172 654 124 l 654 394 q 535 450 654 450 q 375 393 419 450 q 344 261 344 351 q 344 213 344 244 q 346 163 346 178 q 319 43 346 81 q 186 -7 283 -7 q 13 165 13 -7 l 13 319 q 28 358 13 342 q 64 375 43 375 q 117 285 117 375 q 115 237 117 269 q 114 188 114 204 q 178 86 114 86 z "},"":{"ha":874,"x_min":63,"x_max":807,"o":"m 415 -19 q 176 46 275 -19 q 63 256 63 122 q 100 363 63 318 q 199 407 138 407 q 257 385 233 407 q 281 328 281 363 q 231 266 281 286 q 182 236 182 246 q 265 117 182 163 q 417 78 336 78 q 603 124 531 78 q 690 286 690 179 q 606 447 690 404 q 447 483 571 465 q 363 538 363 494 q 432 588 363 581 q 560 608 542 601 q 629 729 629 638 q 444 869 629 869 q 268 800 314 869 q 233 674 246 769 q 182 604 224 604 q 131 675 131 604 q 135 743 131 697 q 139 811 139 789 q 135 866 139 829 q 131 922 131 903 q 146 955 131 940 q 179 969 161 969 q 224 894 224 969 q 319 950 224 926 q 442 969 394 969 q 653 910 574 969 q 742 717 742 843 q 629 536 742 589 q 769 448 731 504 q 807 283 807 392 q 681 53 807 136 q 415 -19 571 -19 z "},"":{"ha":1185,"x_min":28,"x_max":1158,"o":"m 236 172 l 236 781 q 165 861 236 861 q 123 858 151 861 q 81 856 94 856 q 28 906 28 856 q 89 960 28 960 q 183 953 121 960 q 278 947 246 947 q 376 953 311 947 q 475 960 442 960 q 550 908 550 960 q 500 856 550 856 q 467 858 489 856 q 433 861 444 861 q 376 842 390 861 q 361 781 361 824 l 361 450 q 376 379 361 388 q 431 408 399 382 l 763 672 q 824 779 824 721 q 808 842 824 824 q 750 861 793 861 q 717 858 739 861 q 683 856 694 856 q 633 908 633 856 q 708 960 633 960 q 808 953 742 960 q 908 947 875 947 q 1003 953 940 947 q 1097 960 1065 960 q 1158 906 1158 960 q 1103 856 1158 856 q 1064 858 1090 856 q 1025 861 1038 861 q 949 781 949 861 l 949 174 q 1019 92 949 92 q 1061 94 1033 92 q 1103 97 1089 97 q 1158 49 1158 97 q 1097 -7 1158 -7 q 1003 0 1065 -7 q 908 7 940 7 q 809 0 875 7 q 710 -7 743 -7 q 633 46 633 -7 q 683 97 633 97 q 718 94 694 97 q 753 92 742 92 q 813 114 797 92 q 824 179 824 132 l 824 542 q 822 581 824 563 l 815 588 q 774 565 799 585 l 436 297 q 381 244 393 263 q 361 172 361 218 q 376 110 361 129 q 433 92 392 92 q 467 94 444 92 q 500 97 489 97 q 550 44 550 97 q 475 -7 550 -7 q 376 0 442 -7 q 278 7 311 7 q 183 0 246 7 q 89 -7 121 -7 q 28 47 28 -7 q 81 97 28 97 q 123 94 94 97 q 165 92 151 92 q 236 172 236 92 z "},"":{"ha":1185,"x_min":28,"x_max":1160,"o":"m 236 172 l 236 781 q 165 861 236 861 q 123 858 151 861 q 81 856 94 856 q 28 906 28 856 q 89 960 28 960 q 183 953 121 960 q 278 947 246 947 q 376 953 311 947 q 475 960 442 960 q 550 908 550 960 q 500 856 550 856 q 467 858 489 856 q 433 861 444 861 q 376 842 390 861 q 361 781 361 824 l 361 450 q 376 379 361 388 q 431 408 397 382 l 764 672 q 825 779 825 721 q 810 842 825 824 q 751 861 794 861 q 718 858 740 861 q 685 856 696 856 q 635 908 635 856 q 710 960 635 960 q 810 953 743 960 q 910 947 876 947 q 1004 953 942 947 q 1099 960 1067 960 q 1160 906 1160 960 q 1104 856 1160 856 q 1065 858 1092 856 q 1026 861 1039 861 q 950 781 950 861 l 950 174 q 1021 92 950 92 q 1063 94 1035 92 q 1104 97 1090 97 q 1160 49 1160 97 q 1099 -7 1160 -7 q 1004 0 1067 -7 q 910 7 942 7 q 810 0 876 7 q 711 -7 744 -7 q 635 46 635 -7 q 685 97 635 97 q 719 94 696 97 q 754 92 743 92 q 814 114 799 92 q 825 179 825 132 l 825 542 q 824 581 825 563 l 817 588 q 775 565 800 585 l 436 297 q 381 244 393 263 q 361 172 361 218 q 376 110 361 129 q 433 92 392 92 q 467 94 444 92 q 500 97 489 97 q 550 44 550 97 q 475 -7 550 -7 q 376 0 442 -7 q 278 7 311 7 q 183 0 246 7 q 89 -7 121 -7 q 28 47 28 -7 q 81 97 28 97 q 123 94 94 97 q 165 92 151 92 q 236 172 236 92 m 590 1044 q 446 1071 503 1044 q 368 1182 368 1106 q 438 1256 368 1256 q 513 1201 513 1256 q 507 1177 513 1193 q 501 1153 501 1161 q 590 1126 501 1126 q 685 1153 685 1126 q 679 1177 685 1161 q 674 1201 674 1193 q 749 1256 674 1256 q 818 1182 818 1256 q 590 1044 818 1044 z "},"":{"ha":1063,"x_min":25,"x_max":1038,"o":"m 986 375 q 1022 358 1007 375 q 1038 319 1038 340 l 1038 165 q 864 -7 1038 -7 q 728 49 764 -7 q 701 185 701 90 q 701 238 701 201 q 703 290 703 272 q 638 426 703 393 q 478 450 592 450 q 358 394 358 450 l 358 172 q 375 108 358 126 q 436 89 392 89 q 474 93 449 89 q 511 97 499 97 q 564 46 564 97 q 482 -7 564 -7 q 388 -1 450 -7 q 293 6 325 6 q 190 -1 258 6 q 89 -7 122 -7 q 28 47 28 -7 q 81 97 28 97 q 119 93 93 97 q 158 89 146 89 q 233 172 233 89 l 233 771 q 217 838 233 817 q 156 858 200 858 q 118 856 143 858 q 81 853 93 853 q 25 906 25 853 q 92 958 25 958 q 182 953 122 958 q 272 947 242 947 q 367 953 304 947 q 463 958 431 958 q 531 901 531 958 q 516 868 531 883 q 483 853 501 853 q 453 856 474 853 q 422 858 432 858 q 368 833 382 858 q 358 771 358 815 l 358 599 q 399 549 358 558 q 471 546 413 546 q 615 583 568 546 q 672 682 654 615 q 696 821 683 751 q 739 924 708 890 q 865 967 781 967 q 1013 835 1013 967 q 944 740 1013 740 q 883 800 883 740 q 892 819 883 808 q 900 842 900 831 q 865 871 900 871 q 788 789 803 871 q 772 686 782 761 q 678 514 756 558 l 678 510 q 806 372 782 483 q 814 182 808 358 q 872 86 817 86 q 936 188 936 86 q 935 236 936 203 q 933 286 933 269 q 986 375 933 375 z "},"":{"ha":1265,"x_min":8,"x_max":1232,"o":"m 250 81 q 375 138 331 81 q 414 272 414 189 l 414 781 q 331 861 414 861 q 282 858 314 861 q 233 856 250 856 q 181 906 181 856 q 222 947 181 935 q 376 960 263 960 q 545 953 433 960 q 714 947 657 947 q 868 953 765 947 q 1022 960 971 960 q 1143 957 1115 960 q 1232 906 1232 946 q 1176 856 1232 856 q 1138 858 1164 856 q 1099 861 1111 861 q 1022 781 1022 861 l 1022 174 q 1093 92 1022 92 q 1135 94 1107 92 q 1176 97 1163 97 q 1232 49 1232 97 q 1171 -7 1232 -7 q 1076 0 1139 -7 q 982 7 1014 7 q 883 0 949 7 q 783 -7 817 -7 q 707 46 707 -7 q 757 97 707 97 q 792 94 768 97 q 826 92 815 92 q 886 114 871 92 q 897 179 897 132 l 897 779 q 882 842 897 824 q 824 861 867 861 q 769 858 806 861 q 714 856 732 856 q 660 858 696 856 q 607 861 625 861 q 547 842 564 861 q 531 781 531 824 l 531 258 q 457 63 531 133 q 258 -7 383 -7 q 88 44 158 -7 q 8 199 8 101 q 43 315 8 265 q 146 372 83 372 q 258 269 258 372 q 200 213 258 213 q 142 258 154 213 q 113 210 113 247 q 250 81 113 81 z "},"":{"ha":1314,"x_min":33,"x_max":1281,"o":"m 229 172 l 229 779 q 213 841 229 824 q 153 858 197 858 q 117 856 140 858 q 81 853 93 853 q 33 908 33 853 q 108 958 33 958 q 190 953 136 958 q 272 947 244 947 q 324 953 290 947 q 375 958 358 958 q 464 867 439 958 l 657 158 l 850 867 q 938 958 875 958 q 989 953 954 958 q 1042 947 1024 947 q 1124 953 1069 947 q 1206 958 1178 958 q 1281 908 1281 958 q 1233 853 1281 853 q 1197 856 1221 853 q 1161 858 1174 858 q 1100 841 1117 858 q 1083 779 1083 824 l 1083 172 q 1156 92 1083 92 q 1192 94 1168 92 q 1228 97 1215 97 q 1281 49 1281 97 q 1214 -7 1281 -7 q 1131 0 1186 -7 q 1047 7 1075 7 q 958 0 1018 7 q 869 -7 899 -7 q 806 49 806 -7 q 818 83 806 68 q 850 97 831 97 q 878 94 860 97 q 906 92 896 92 q 957 114 943 92 q 967 172 967 132 q 972 861 967 756 l 957 861 l 728 81 q 708 24 714 35 q 657 -7 690 -7 q 604 22 622 -7 q 582 79 594 36 l 353 861 l 342 861 q 347 172 347 756 q 357 115 347 131 q 407 92 369 92 q 436 94 417 92 q 465 97 456 97 q 508 49 508 97 q 444 -7 508 -7 q 356 0 415 -7 q 267 7 296 7 q 182 0 239 7 q 97 -7 125 -7 q 33 49 33 -7 q 86 97 33 97 q 122 94 99 97 q 158 92 146 92 q 229 172 229 92 z "},"":{"ha":1181,"x_min":25,"x_max":1156,"o":"m 358 781 l 358 556 q 476 551 397 556 q 594 547 556 547 q 708 551 632 547 q 821 556 783 556 l 821 779 q 806 842 821 824 q 747 861 790 861 q 714 858 736 861 q 681 856 692 856 q 631 908 631 856 q 706 960 631 960 q 806 953 739 960 q 906 947 872 947 q 1000 953 938 947 q 1094 960 1063 960 q 1156 906 1156 960 q 1100 856 1156 856 q 1061 858 1088 856 q 1022 861 1035 861 q 946 781 946 861 l 946 174 q 1017 92 946 92 q 1058 94 1031 92 q 1100 97 1086 97 q 1156 49 1156 97 q 1094 -7 1156 -7 q 1000 0 1063 -7 q 906 7 938 7 q 806 0 872 7 q 707 -7 740 -7 q 631 46 631 -7 q 681 97 631 97 q 715 94 692 97 q 750 92 739 92 q 810 114 794 92 q 821 179 821 132 l 821 447 q 703 450 782 447 q 585 453 624 453 q 472 450 547 453 q 358 447 396 447 l 358 172 q 374 110 358 129 q 431 92 389 92 q 464 94 442 92 q 497 97 486 97 q 547 44 547 97 q 472 -7 547 -7 q 374 0 439 -7 q 275 7 308 7 q 181 0 243 7 q 86 -7 118 -7 q 25 47 25 -7 q 78 97 25 97 q 120 94 92 97 q 163 92 149 92 q 233 172 233 92 l 233 781 q 163 861 233 861 q 120 858 149 861 q 78 856 92 856 q 25 906 25 856 q 86 960 25 960 q 181 953 118 960 q 275 947 243 947 q 374 953 308 947 q 472 960 439 960 q 547 908 547 960 q 497 856 547 856 q 464 858 486 856 q 431 861 442 861 q 373 842 388 861 q 358 781 358 824 z "},"":{"ha":990,"x_min":60,"x_max":931,"o":"m 931 474 q 822 125 931 257 q 494 -19 706 -19 q 167 124 282 -19 q 60 474 60 256 q 167 825 60 692 q 494 969 282 969 q 822 824 704 969 q 931 474 931 689 m 494 81 q 728 206 647 81 q 794 474 794 311 q 728 743 794 636 q 494 869 647 869 q 261 743 342 869 q 194 474 194 636 q 261 206 194 311 q 494 81 342 81 z "},"":{"ha":1181,"x_min":25,"x_max":1156,"o":"m 358 781 l 358 172 q 374 110 358 129 q 431 92 389 92 q 464 94 442 92 q 497 97 486 97 q 547 44 547 97 q 472 -7 547 -7 q 374 0 439 -7 q 275 7 308 7 q 181 0 243 7 q 86 -7 118 -7 q 25 47 25 -7 q 78 97 25 97 q 120 94 92 97 q 163 92 149 92 q 233 172 233 92 l 233 781 q 163 861 233 861 q 120 858 149 861 q 78 856 92 856 q 25 906 25 856 q 113 957 25 946 q 233 960 138 960 q 410 953 293 960 q 588 947 528 947 q 750 953 642 947 q 913 960 858 960 q 1156 906 1156 960 q 1100 856 1156 856 q 1061 858 1088 856 q 1022 861 1035 861 q 946 781 946 861 l 946 174 q 1017 92 946 92 q 1058 94 1031 92 q 1100 97 1086 97 q 1156 49 1156 97 q 1094 -7 1156 -7 q 1000 0 1063 -7 q 906 7 938 7 q 806 0 872 7 q 707 -7 740 -7 q 631 46 631 -7 q 681 97 631 97 q 715 94 692 97 q 750 92 739 92 q 810 114 794 92 q 821 179 821 132 l 821 779 q 806 842 821 824 q 747 861 790 861 q 667 858 721 861 q 588 854 614 854 q 509 858 561 854 q 431 861 457 861 q 373 842 388 861 q 358 781 358 824 z "},"":{"ha":900,"x_min":28,"x_max":869,"o":"m 236 172 l 236 781 q 165 867 236 867 q 123 861 151 867 q 81 856 94 856 q 28 906 28 856 q 89 960 28 960 q 184 953 121 960 q 279 947 247 947 q 413 953 324 947 q 546 960 501 960 q 869 683 869 960 q 750 456 869 519 q 518 411 674 415 q 360 393 375 408 q 356 375 356 382 l 356 172 q 373 108 356 126 q 436 89 390 89 q 474 93 449 89 q 511 97 499 97 q 564 46 564 97 q 482 -7 564 -7 q 388 -1 450 -7 q 293 6 325 6 q 190 -1 258 6 q 89 -7 122 -7 q 28 47 28 -7 q 81 97 28 97 q 115 93 92 97 q 150 89 139 89 q 236 172 236 89 m 356 786 l 356 546 q 389 508 356 515 q 447 506 399 506 q 649 525 593 506 q 747 681 747 563 q 674 835 747 792 q 497 867 618 867 q 356 786 356 867 z "},"":{"ha":925,"x_min":60,"x_max":864,"o":"m 742 861 q 743 924 742 915 q 785 960 751 960 q 832 914 832 960 q 827 831 832 886 q 822 749 822 776 q 827 674 822 724 q 832 599 832 624 q 782 536 832 536 q 743 553 756 536 q 729 638 731 571 q 714 736 728 706 q 625 837 685 799 q 497 875 565 875 q 263 750 343 875 q 194 481 194 643 q 258 207 194 313 q 494 81 338 81 q 696 161 633 81 q 754 308 728 203 q 808 389 774 389 q 864 317 864 389 q 758 65 864 156 q 494 -19 658 -19 q 167 124 282 -19 q 60 474 60 256 q 163 819 60 683 q 481 969 276 969 q 742 861 650 969 z "},"":{"ha":858,"x_min":28,"x_max":831,"o":"m 367 190 l 367 764 q 351 842 367 824 q 272 861 335 861 q 163 842 192 861 q 122 736 122 815 q 126 678 122 717 q 131 619 131 639 q 115 576 131 594 q 75 558 99 558 q 28 617 28 558 q 33 695 28 643 q 38 774 38 747 q 33 832 38 793 q 28 890 28 871 q 107 960 28 960 q 232 953 149 960 q 357 947 315 947 l 501 947 q 627 953 543 947 q 753 960 711 960 q 831 890 831 960 q 826 832 831 871 q 821 774 821 793 q 826 695 821 747 q 831 617 831 643 q 783 558 831 558 q 744 576 760 558 q 728 619 728 594 q 732 678 728 639 q 736 736 736 717 q 697 840 736 815 q 583 861 667 861 q 506 839 524 861 q 492 764 492 822 l 492 190 q 512 116 492 138 q 585 94 532 94 q 618 99 596 94 q 651 103 640 103 q 714 53 714 103 q 631 -7 714 -7 q 529 1 596 -7 q 429 10 463 10 q 329 1 396 10 q 228 -7 263 -7 q 172 6 196 -7 q 144 51 144 22 q 197 103 144 103 q 236 99 210 103 q 275 94 263 94 q 348 115 329 94 q 367 190 367 136 z "},"":{"ha":1132,"x_min":33,"x_max":1132,"o":"m 603 397 l 782 792 q 790 835 790 810 q 747 858 790 858 q 714 856 736 858 q 681 853 692 853 q 628 903 628 853 q 686 958 628 958 q 765 951 713 958 q 843 944 817 944 q 956 951 881 944 q 1068 958 1031 958 q 1113 944 1093 958 q 1132 906 1132 929 q 1117 869 1132 885 q 1083 853 1103 853 q 1053 856 1074 853 q 1022 858 1032 858 q 919 789 953 858 l 629 179 q 533 36 581 76 q 371 -14 472 -14 q 219 47 279 -14 q 158 200 158 108 q 193 317 158 267 q 296 374 233 374 q 408 271 408 374 q 350 214 408 214 q 292 260 304 214 q 263 211 263 250 q 292 127 263 165 q 368 89 322 89 q 475 144 428 89 q 522 260 522 199 q 504 335 522 303 l 246 789 q 207 842 224 828 q 144 858 185 858 q 114 856 135 858 q 83 853 93 853 q 48 869 63 853 q 33 906 33 885 q 53 944 33 929 q 97 958 72 958 q 210 951 135 958 q 322 944 285 944 q 398 951 347 944 q 474 958 449 958 q 539 903 539 958 q 485 853 539 853 q 451 856 474 853 q 418 858 429 858 q 375 832 375 858 q 393 775 375 807 l 603 397 z "},"":{"ha":1222,"x_min":38,"x_max":1185,"o":"m 671 594 l 671 365 q 704 328 671 335 q 763 325 717 325 q 960 346 901 325 q 1063 494 1063 383 q 993 640 1063 599 q 826 672 939 672 q 725 667 746 672 q 671 594 671 651 m 607 7 q 516 0 576 7 q 425 -7 456 -7 q 343 47 343 -7 q 358 85 343 69 q 396 100 374 100 q 433 96 408 100 q 471 92 458 92 q 542 118 525 92 q 551 197 551 138 q 481 233 551 233 q 433 231 463 233 q 396 228 403 228 q 38 497 38 228 q 354 764 38 764 q 432 760 381 764 q 510 757 483 757 q 545 767 539 757 q 551 806 551 776 q 471 864 551 864 q 433 860 458 864 q 396 856 408 856 q 343 906 343 856 q 404 960 343 960 q 506 953 438 960 q 607 947 574 947 q 713 953 642 947 q 818 960 783 960 q 879 906 879 960 q 826 856 879 856 q 789 860 814 856 q 751 864 764 864 q 688 847 704 864 q 671 783 671 829 q 713 757 671 757 q 790 760 739 757 q 868 764 842 764 q 1185 497 1185 764 q 1031 260 1185 314 q 726 232 951 232 q 680 222 689 232 q 671 172 671 213 q 688 109 671 126 q 751 92 706 92 q 789 96 764 92 q 826 100 814 100 q 864 85 849 100 q 879 47 879 69 q 797 -7 879 -7 q 702 0 765 -7 q 607 7 639 7 m 551 594 q 497 667 551 651 q 396 672 476 672 q 229 640 283 672 q 160 494 160 599 q 263 346 160 383 q 460 325 321 325 q 518 328 506 325 q 551 365 551 335 l 551 594 z "},"":{"ha":1136,"x_min":0,"x_max":1133,"o":"m 567 594 l 731 811 q 753 850 739 824 q 708 864 747 864 q 676 860 697 864 q 644 856 656 856 q 600 908 600 856 q 656 963 600 963 q 733 956 682 963 q 811 949 785 949 q 922 956 849 949 q 1032 963 994 963 q 1075 949 1056 963 q 1094 911 1094 935 q 1078 872 1094 888 q 1039 856 1063 856 q 1005 860 1028 856 q 971 864 982 864 q 853 779 919 864 l 639 506 l 899 176 q 1013 92 965 92 q 1046 94 1024 92 q 1079 97 1068 97 q 1117 83 1100 97 q 1133 47 1133 68 q 1072 -7 1133 -7 q 955 -1 1033 -7 q 838 6 876 6 q 756 -1 810 6 q 674 -7 701 -7 q 619 49 619 -7 q 668 97 619 97 q 702 94 679 97 q 736 92 725 92 q 782 117 782 92 q 682 272 782 143 q 567 415 625 343 q 453 272 510 343 q 353 118 353 143 q 394 92 353 92 q 431 94 407 92 q 467 97 454 97 q 514 49 514 97 q 461 -7 514 -7 q 379 -1 433 -7 q 297 6 325 6 q 179 -1 258 6 q 61 -7 100 -7 q 18 8 36 -7 q 0 47 0 24 q 17 83 0 68 q 56 97 33 97 q 89 94 67 97 q 122 92 111 92 q 231 169 169 92 l 497 506 l 281 779 q 232 836 244 824 q 164 864 200 864 q 129 860 153 864 q 94 856 106 856 q 55 872 71 856 q 39 911 39 888 q 59 949 39 935 q 103 963 79 963 q 213 956 140 963 q 324 949 286 949 q 401 956 350 949 q 478 963 451 963 q 533 908 533 963 q 520 872 533 888 q 488 856 507 856 q 456 860 476 856 q 424 864 435 864 q 383 847 383 864 q 469 718 383 832 q 567 594 518 657 z "},"":{"ha":1200,"x_min":28,"x_max":1185,"o":"m 361 172 q 376 110 361 129 q 433 92 390 92 q 512 95 460 92 q 590 99 564 99 q 670 95 617 99 q 750 92 724 92 q 808 110 793 92 q 824 174 824 129 l 824 774 q 813 839 824 821 q 753 861 797 861 q 718 858 742 861 q 683 856 694 856 q 633 907 633 856 q 710 960 633 960 q 809 953 743 960 q 908 946 875 946 q 1003 953 940 946 q 1097 960 1065 960 q 1158 904 1158 960 q 1103 856 1158 856 q 1061 858 1089 856 q 1019 861 1033 861 q 949 779 949 861 l 949 172 q 1015 92 949 92 q 1059 95 1031 92 q 1103 99 1088 99 q 1185 26 1185 99 q 1180 -19 1185 11 q 1175 -65 1175 -50 q 1180 -131 1175 -87 q 1185 -197 1185 -175 q 1138 -256 1185 -256 q 1096 -237 1113 -256 q 1079 -194 1079 -219 q 1083 -147 1079 -179 q 1086 -100 1086 -115 q 1050 -19 1086 -36 q 822 -1 1028 -8 q 590 6 663 6 q 413 -1 531 6 q 236 -7 296 -7 q 115 -4 140 -7 q 28 47 28 7 q 81 97 28 97 q 123 94 94 97 q 165 92 151 92 q 236 172 236 92 l 236 781 q 165 861 236 861 q 123 858 151 861 q 81 856 94 856 q 28 906 28 856 q 89 960 28 960 q 183 953 121 960 q 278 946 246 946 q 376 953 311 946 q 475 960 442 960 q 550 908 550 960 q 500 856 550 856 q 467 858 489 856 q 433 861 444 861 q 376 842 392 861 q 361 781 361 824 l 361 172 z "},"":{"ha":1094,"x_min":39,"x_max":1069,"o":"m 742 172 l 742 375 q 739 393 742 385 q 574 411 726 406 q 340 461 413 418 q 229 696 229 528 q 229 728 229 707 q 229 758 229 749 q 218 833 229 811 q 158 863 203 863 q 123 858 146 863 q 89 853 100 853 q 39 908 39 853 q 114 960 39 960 q 206 953 144 960 q 297 947 267 947 q 385 953 326 947 q 474 960 444 960 q 535 906 535 960 q 479 853 535 853 q 446 858 468 853 q 411 863 424 863 q 350 797 350 863 l 350 681 q 449 525 350 563 q 650 506 504 506 q 708 507 699 506 q 742 546 742 515 l 742 781 q 679 863 742 863 q 647 858 668 863 q 614 853 625 853 q 560 906 560 853 q 618 960 560 960 q 714 953 650 960 q 810 947 778 947 q 909 953 843 947 q 1008 960 975 960 q 1068 906 1068 960 q 1015 853 1068 853 q 975 858 1001 853 q 935 863 949 863 q 861 781 861 863 l 861 172 q 947 89 861 89 q 982 93 958 89 q 1017 97 1006 97 q 1069 47 1069 97 q 1008 -7 1069 -7 q 909 -1 975 -7 q 810 6 843 6 q 704 -1 775 6 q 599 -7 633 -7 q 504 46 504 -7 q 557 97 504 97 q 601 93 572 97 q 644 89 631 89 q 742 172 742 89 z "},"":{"ha":1535,"x_min":25,"x_max":1510,"o":"m 708 485 q 706 588 708 519 q 703 690 703 656 q 767 792 703 792 q 832 690 832 792 q 828 585 832 656 q 825 479 825 514 l 825 240 q 854 115 825 146 q 947 89 878 89 q 999 90 961 89 q 1063 92 1038 92 q 1150 114 1125 92 q 1175 199 1175 136 l 1175 774 q 1164 839 1175 821 q 1104 861 1149 861 q 1069 858 1093 861 q 1035 856 1046 856 q 985 907 985 856 q 1061 960 985 960 q 1160 953 1094 960 q 1260 946 1226 946 q 1354 953 1292 946 q 1449 960 1417 960 q 1510 904 1510 960 q 1454 856 1510 856 q 1413 858 1440 856 q 1371 861 1385 861 q 1300 779 1300 861 l 1300 172 q 1376 92 1300 92 q 1415 94 1389 92 q 1454 97 1442 97 q 1510 47 1510 97 q 1267 -7 1510 -7 q 1017 -1 1183 -7 q 767 6 850 6 q 500 -1 678 6 q 233 -7 322 -7 q 113 -4 138 -7 q 25 47 25 7 q 78 97 25 97 q 120 94 92 97 q 163 92 149 92 q 233 172 233 92 l 233 781 q 163 861 233 861 q 120 858 149 861 q 78 856 92 856 q 25 906 25 856 q 86 960 25 960 q 181 953 118 960 q 275 946 243 946 q 374 953 308 946 q 472 960 439 960 q 547 908 547 960 q 497 856 547 856 q 464 858 486 856 q 431 861 442 861 q 374 842 389 861 q 358 781 358 824 l 358 199 q 383 114 358 136 q 471 92 407 92 l 608 92 q 694 136 674 92 q 708 240 708 165 l 708 485 z "},"":{"ha":1553,"x_min":25,"x_max":1536,"o":"m 708 483 q 706 587 708 518 q 703 690 703 656 q 767 792 703 792 q 832 690 832 792 q 828 587 832 656 q 825 483 825 518 l 825 242 q 854 115 825 146 q 949 89 878 89 q 1001 90 963 89 q 1063 92 1039 92 q 1150 114 1125 92 q 1175 199 1175 136 l 1175 774 q 1164 839 1175 821 q 1104 861 1149 861 q 1069 858 1093 861 q 1035 856 1046 856 q 985 907 985 856 q 1061 960 985 960 q 1160 953 1094 960 q 1260 946 1226 946 q 1354 953 1292 946 q 1449 960 1417 960 q 1510 904 1510 960 q 1454 856 1510 856 q 1413 858 1440 856 q 1371 861 1385 861 q 1300 779 1300 861 l 1300 172 q 1311 114 1300 131 q 1367 92 1326 92 q 1410 94 1382 92 q 1454 97 1439 97 q 1536 26 1536 97 q 1531 -19 1536 11 q 1526 -65 1526 -50 q 1531 -131 1526 -87 q 1536 -197 1536 -175 q 1489 -256 1536 -256 q 1447 -237 1464 -256 q 1431 -194 1431 -219 q 1434 -147 1431 -179 q 1438 -100 1438 -115 q 1407 -26 1438 -46 q 767 6 1356 6 q 500 -1 678 6 q 233 -7 322 -7 q 113 -4 138 -7 q 25 47 25 7 q 78 97 25 97 q 120 94 92 97 q 163 92 149 92 q 233 172 233 92 l 233 781 q 163 861 233 861 q 120 858 149 861 q 78 856 92 856 q 25 906 25 856 q 86 960 25 960 q 181 953 118 960 q 275 946 243 946 q 374 953 308 946 q 472 960 439 960 q 547 908 547 960 q 497 856 547 856 q 464 858 486 856 q 431 861 442 861 q 374 842 389 861 q 358 781 358 824 l 358 199 q 383 114 358 136 q 471 92 407 92 l 608 92 q 694 138 674 92 q 708 242 708 167 l 708 483 z "},"":{"ha":989,"x_min":25,"x_max":960,"o":"m 326 190 l 326 764 q 310 842 326 824 q 232 861 294 861 q 136 832 158 861 q 119 736 119 810 q 124 678 119 717 q 128 619 128 639 q 112 576 128 594 q 72 558 96 558 q 25 617 25 558 q 30 695 25 643 q 35 774 35 747 q 30 832 35 793 q 25 890 25 871 q 104 960 25 960 q 242 953 150 960 q 382 947 335 947 q 477 953 414 947 q 572 960 540 960 q 654 907 654 960 q 601 856 654 856 q 564 860 589 856 q 526 864 539 864 q 463 845 481 864 q 446 781 446 826 l 446 578 q 450 560 446 572 q 611 542 468 543 q 842 501 767 542 q 960 269 960 439 q 636 -7 960 -7 q 510 -1 594 -7 q 382 6 425 6 q 285 -1 350 6 q 188 -7 221 -7 q 132 6 156 -7 q 104 51 104 22 q 157 103 104 103 q 196 99 169 103 q 235 94 222 94 q 308 115 289 94 q 326 190 326 136 m 446 167 q 489 92 446 106 q 588 86 506 86 q 764 119 707 86 q 838 272 838 163 q 739 428 838 390 q 538 447 683 447 q 479 444 489 447 q 446 407 446 438 l 446 167 z "},"":{"ha":1419,"x_min":28,"x_max":1392,"o":"m 236 781 q 150 864 236 864 q 115 860 139 864 q 81 856 92 856 q 28 906 28 856 q 89 960 28 960 q 188 953 122 960 q 288 947 254 947 q 385 953 321 947 q 482 960 450 960 q 564 907 564 960 q 511 856 564 856 q 474 860 499 856 q 436 864 449 864 q 373 845 390 864 q 356 781 356 826 l 356 578 q 360 560 356 572 q 465 543 379 543 q 490 543 474 543 q 514 543 506 543 q 743 504 668 543 q 860 269 860 442 q 546 -7 860 -7 q 408 -1 500 -7 q 269 6 315 6 q 179 -1 239 6 q 89 -7 119 -7 q 28 47 28 -7 q 81 97 28 97 q 123 92 94 97 q 165 86 151 86 q 236 172 236 86 l 236 781 m 356 167 q 399 92 356 106 q 497 86 415 86 q 671 119 618 86 q 738 272 738 161 q 644 428 738 392 q 447 447 592 447 q 389 446 399 447 q 356 407 356 438 l 356 167 m 1056 172 l 1056 781 q 985 864 1056 864 q 943 860 971 864 q 901 856 915 856 q 849 906 849 856 q 907 960 849 960 q 1015 953 943 960 q 1124 947 1088 947 q 1228 953 1158 947 q 1332 960 1297 960 q 1392 906 1392 960 q 1338 856 1392 856 q 1296 860 1324 856 q 1254 864 1268 864 q 1185 781 1185 864 l 1185 172 q 1256 86 1185 86 q 1297 92 1269 86 q 1338 97 1324 97 q 1392 47 1392 97 q 1332 -7 1392 -7 q 1228 -1 1297 -7 q 1124 6 1158 6 q 1028 -1 1092 6 q 932 -7 964 -7 q 874 47 874 -7 q 926 97 874 97 q 962 92 939 97 q 997 86 985 86 q 1056 172 1056 86 z "},"":{"ha":900,"x_min":28,"x_max":869,"o":"m 236 781 q 150 864 236 864 q 115 860 139 864 q 81 856 92 856 q 28 906 28 856 q 89 960 28 960 q 188 953 122 960 q 288 947 254 947 q 385 953 321 947 q 482 960 450 960 q 564 907 564 960 q 511 856 564 856 q 474 860 499 856 q 436 864 449 864 q 373 845 390 864 q 356 781 356 826 l 356 578 q 360 560 356 572 q 521 543 378 543 q 751 501 676 542 q 869 269 869 439 q 546 -7 869 -7 q 408 -1 500 -7 q 269 6 315 6 q 179 -1 239 6 q 89 -7 119 -7 q 28 47 28 -7 q 81 97 28 97 q 123 92 94 97 q 165 86 151 86 q 236 172 236 86 l 236 781 m 356 167 q 399 92 356 106 q 497 86 415 86 q 674 118 618 86 q 747 272 747 161 q 649 428 747 390 q 447 447 593 447 q 389 444 399 447 q 356 407 356 438 l 356 167 z "},"":{"ha":918,"x_min":54,"x_max":858,"o":"m 424 -19 q 160 65 260 -19 q 54 317 54 156 q 110 389 54 389 q 164 308 146 389 q 222 161 190 201 q 424 81 283 81 q 638 165 560 81 q 717 385 717 249 q 644 456 717 456 q 613 454 635 456 q 579 453 592 453 q 504 450 554 453 q 429 447 454 447 q 364 503 364 447 q 429 561 364 561 q 502 557 454 561 q 575 553 550 553 l 668 553 q 717 599 717 553 q 640 799 717 724 q 439 875 564 875 q 303 839 367 875 q 208 739 239 803 q 190 638 193 707 q 175 553 186 569 q 136 536 164 536 q 86 599 86 536 q 91 668 86 622 q 96 738 96 714 q 91 826 96 767 q 86 914 86 885 q 133 960 86 960 q 175 924 167 960 q 176 861 176 915 q 438 969 268 969 q 767 843 664 969 q 858 497 858 729 q 424 -19 858 -19 z "},"":{"ha":1439,"x_min":28,"x_max":1381,"o":"m 690 469 q 754 208 690 317 q 975 78 832 78 q 1196 208 1118 78 q 1260 469 1260 317 q 1196 729 1260 622 q 975 858 1118 858 q 756 729 833 858 q 690 469 690 621 m 235 172 l 235 781 q 164 864 235 864 q 122 860 150 864 q 81 856 94 856 q 28 906 28 856 q 86 960 28 960 q 194 953 122 960 q 303 947 267 947 q 399 953 335 947 q 494 960 463 960 q 554 906 554 960 q 500 856 554 856 q 463 860 488 856 q 425 864 438 864 q 364 781 364 864 l 364 554 l 575 554 q 694 840 596 732 q 975 960 803 960 q 1281 807 1169 960 q 1381 469 1381 671 q 1282 132 1381 267 q 975 -19 1171 -19 q 674 125 788 -19 q 569 450 569 258 l 364 450 l 364 172 q 425 89 364 89 q 463 93 438 89 q 500 97 488 97 q 554 47 554 97 q 494 -7 554 -7 q 399 -1 463 -7 q 303 6 335 6 q 207 -1 271 6 q 111 -7 143 -7 q 53 47 53 -7 q 106 97 53 97 q 140 93 117 97 q 176 89 164 89 q 235 172 235 89 z "},"":{"ha":1042,"x_min":13,"x_max":1014,"o":"m 806 781 l 806 172 q 892 89 806 89 q 926 93 903 89 q 961 97 950 97 q 1014 47 1014 97 q 953 -7 1014 -7 q 851 -1 919 -7 q 749 6 783 6 q 654 -1 717 6 q 560 -7 592 -7 q 478 46 478 -7 q 531 97 478 97 q 568 93 543 97 q 606 89 593 89 q 669 108 651 89 q 686 172 686 126 l 686 358 q 650 411 686 411 q 358 375 394 411 q 329 263 329 346 q 331 219 329 249 q 331 176 331 192 q 306 50 331 90 q 174 -7 269 -7 q 47 36 86 -7 q 13 165 13 75 l 13 319 q 64 375 13 375 q 117 322 117 375 q 126 107 117 125 q 161 89 135 89 q 218 171 218 89 q 217 215 218 183 q 215 263 215 246 q 293 442 215 390 q 143 683 143 496 q 467 960 143 960 q 615 953 517 960 q 763 947 714 947 q 845 953 790 947 q 928 960 900 960 q 989 906 989 960 q 936 856 989 856 q 901 861 925 856 q 864 867 876 867 q 806 781 806 867 m 265 681 q 336 528 265 568 q 511 500 388 500 q 686 546 686 500 l 686 786 q 515 867 686 867 q 339 833 396 867 q 265 681 265 792 z "},"":{"ha":786,"x_min":33,"x_max":783,"o":"m 500 250 l 500 360 q 364 321 465 332 q 211 292 247 307 q 139 179 139 260 q 179 97 139 126 q 269 69 215 69 q 428 111 364 69 q 500 250 500 160 m 517 85 q 269 -8 443 -8 q 33 185 33 -8 q 153 361 33 315 q 375 407 264 385 q 494 511 494 432 q 449 607 494 572 q 343 636 407 636 q 257 619 303 636 q 197 567 197 599 q 218 536 199 565 q 231 503 231 518 q 209 456 231 474 q 158 439 188 439 q 75 533 75 439 q 174 676 75 628 q 357 714 251 714 q 546 658 488 714 q 604 471 604 601 l 604 150 q 649 69 604 69 q 696 113 689 69 q 701 195 699 153 q 739 238 704 238 q 783 164 783 238 q 760 38 783 71 q 638 -8 729 -8 q 517 85 522 -8 z "},"":{"ha":806,"x_min":54,"x_max":735,"o":"m 165 332 q 403 75 165 75 q 569 151 511 75 q 622 332 622 219 q 403 596 622 596 q 224 521 286 596 q 165 332 165 451 m 54 332 l 54 450 q 82 706 54 611 q 242 890 126 853 q 443 910 300 910 q 561 925 535 910 q 590 994 582 938 q 651 1040 597 1040 q 708 975 708 1040 q 649 862 708 901 q 451 818 590 822 q 254 790 304 815 q 165 596 165 744 q 401 683 244 683 q 650 590 565 683 q 735 332 735 497 q 644 83 735 178 q 400 -12 553 -12 q 147 79 239 -12 q 54 332 54 171 z "},"":{"ha":853,"x_min":25,"x_max":803,"o":"m 207 126 l 207 551 q 144 617 207 617 q 108 614 132 617 q 71 611 83 611 q 25 653 25 611 q 76 692 25 692 q 157 687 103 692 q 238 682 211 682 q 362 687 279 682 q 486 692 444 692 q 767 503 767 692 q 649 356 767 394 l 649 353 q 764 297 731 331 q 803 178 803 257 q 696 18 803 60 q 486 -7 631 -7 q 369 -1 447 -7 q 253 6 292 6 q 165 -1 224 6 q 76 -7 106 -7 q 25 36 25 -7 q 71 74 25 74 q 106 70 82 74 q 140 67 129 67 q 207 126 207 67 m 313 243 l 313 158 q 365 74 313 92 q 476 67 389 67 q 621 79 583 67 q 694 186 694 103 q 440 321 694 321 q 354 310 381 321 q 313 243 313 293 m 313 560 l 313 442 q 361 397 313 406 q 439 396 372 396 q 583 407 546 396 q 658 511 658 431 q 443 617 658 617 q 361 613 378 617 q 313 560 313 603 z "},"":{"ha":682,"x_min":25,"x_max":657,"o":"m 194 519 q 189 579 194 565 q 143 606 179 606 q 106 601 131 606 q 69 596 82 596 q 25 642 25 596 q 97 692 25 692 q 181 686 125 692 q 265 681 238 681 q 427 686 319 681 q 589 692 535 692 q 657 631 657 692 q 653 590 657 617 q 649 550 649 564 q 653 494 649 531 q 657 438 657 457 q 615 386 657 386 q 581 402 594 386 q 567 439 567 418 q 570 478 567 451 q 574 517 574 504 q 515 599 574 581 q 403 606 490 606 q 326 590 346 606 q 306 519 306 575 l 306 168 q 311 117 306 131 q 349 86 319 92 q 392 83 364 83 q 420 87 401 83 q 449 90 439 90 q 503 46 503 90 q 431 -6 503 -6 q 340 1 400 -6 q 250 8 281 8 q 174 1 225 8 q 97 -6 124 -6 q 25 46 25 -6 q 39 77 25 64 q 71 90 53 90 q 98 87 81 90 q 125 83 115 83 q 185 103 172 83 q 194 168 194 117 l 194 519 z "},"":{"ha":988,"x_min":17,"x_max":967,"o":"m 251 335 l 251 546 q 178 610 251 610 q 145 608 167 610 q 115 607 124 607 q 74 647 74 607 q 132 689 74 682 q 218 692 147 692 q 369 686 268 692 q 521 681 471 681 q 649 686 564 681 q 776 692 733 692 q 874 689 851 692 q 944 647 944 681 q 893 607 944 607 q 863 609 882 607 q 836 611 843 611 q 776 546 776 611 l 776 140 q 832 74 776 74 q 866 77 843 74 q 900 81 889 81 q 967 21 967 81 q 963 -19 967 7 q 958 -60 958 -46 q 963 -110 958 -76 q 967 -160 967 -143 q 928 -208 967 -208 q 894 -193 907 -208 q 881 -157 881 -178 q 883 -119 881 -144 q 886 -81 886 -93 q 843 -7 886 -22 q 750 0 824 0 q 653 -3 718 0 q 556 -6 588 -6 l 457 -6 q 357 -3 424 -6 q 257 0 290 0 q 154 -8 183 0 q 97 -81 97 -25 q 100 -119 97 -93 q 103 -157 103 -144 q 89 -193 103 -178 q 56 -208 75 -208 q 17 -158 17 -208 q 21 -105 17 -140 q 25 -51 25 -69 q 21 -15 25 -39 q 17 22 17 10 q 69 81 17 81 q 101 77 81 81 q 133 74 122 74 q 229 179 199 74 q 251 335 251 251 m 317 106 q 421 74 317 74 l 535 74 q 624 81 603 74 q 668 144 668 93 l 668 544 q 657 596 668 581 q 610 611 646 611 l 414 611 q 368 597 381 611 q 356 546 356 583 q 357 451 356 522 q 358 356 360 392 q 350 261 357 303 q 331 183 347 247 q 317 106 317 132 z "},"":{"ha":733,"x_min":53,"x_max":683,"o":"m 167 333 l 167 328 q 217 150 167 219 q 378 69 274 69 q 519 122 467 69 q 581 219 546 149 q 631 272 607 272 q 678 222 678 272 q 661 160 678 197 q 372 -22 581 -22 q 131 86 217 -22 q 53 346 53 186 q 131 606 53 506 q 372 714 217 714 q 599 629 515 714 q 683 401 683 544 q 669 347 683 361 q 617 333 656 333 l 167 333 m 174 424 l 567 424 l 567 433 q 514 571 567 519 q 375 622 461 622 q 235 567 288 622 q 174 424 183 513 z "},"":{"ha":1215,"x_min":6,"x_max":1211,"o":"m 139 81 q 183 133 179 81 q 193 249 192 240 q 290 358 213 322 l 290 363 q 238 464 247 397 q 226 563 232 513 q 172 607 217 607 q 132 576 132 607 q 138 553 132 568 q 144 526 144 538 q 92 468 144 468 q 19 551 19 468 q 183 692 19 692 q 322 613 294 692 q 342 467 332 540 q 433 388 356 388 q 556 440 556 388 l 556 525 q 521 607 556 607 q 496 604 513 607 q 471 601 479 601 q 428 649 428 601 q 482 692 428 692 q 546 685 504 692 q 610 679 588 679 q 672 685 631 679 q 733 692 713 692 q 788 649 788 692 q 744 601 788 601 q 719 604 736 601 q 694 607 703 607 q 660 525 660 607 l 660 440 q 782 388 660 388 q 874 467 860 388 q 893 613 883 539 q 1032 692 921 692 q 1196 551 1196 692 q 1124 468 1196 468 q 1071 526 1071 468 q 1077 553 1071 538 q 1083 576 1083 568 q 1043 607 1083 607 q 989 563 999 607 q 978 464 983 513 q 925 363 968 397 l 925 358 q 1022 247 1003 321 q 1032 133 1024 240 q 1076 81 1035 81 q 1114 128 1114 81 q 1113 153 1114 136 q 1111 179 1111 171 q 1163 238 1111 238 q 1211 175 1211 238 q 1211 151 1211 167 q 1210 129 1210 136 q 1067 -8 1210 -8 q 943 47 969 -8 q 928 165 931 71 q 890 279 925 246 q 811 313 856 313 q 717 310 732 313 q 660 253 660 299 l 660 165 q 665 104 660 118 q 715 81 676 81 q 744 84 725 81 q 772 88 763 88 q 826 43 826 88 q 754 -8 826 -8 q 680 -1 729 -8 q 606 6 631 6 q 534 -1 582 6 q 461 -8 486 -8 q 389 43 389 -8 q 443 88 389 88 q 472 84 453 88 q 500 81 490 81 q 550 104 539 81 q 556 165 556 118 l 556 253 q 499 310 556 299 q 404 313 483 313 q 326 279 361 313 q 289 165 292 246 q 272 47 285 72 q 149 -8 246 -8 q 22 49 51 -8 q 6 193 6 83 q 53 238 6 238 q 104 179 104 238 q 103 153 104 171 q 103 128 103 136 q 139 81 103 81 z "},"":{"ha":742,"x_min":42,"x_max":696,"o":"m 351 -7 q 153 25 232 -7 q 42 172 42 71 q 76 251 42 221 q 161 282 111 282 q 211 267 189 282 q 233 225 233 251 q 192 180 233 194 q 146 157 150 165 q 353 68 146 68 q 501 93 442 68 q 585 204 585 128 q 513 308 585 279 q 378 336 485 319 q 306 375 306 347 q 364 413 306 406 q 472 428 457 422 q 531 515 531 449 q 483 610 531 578 q 378 638 442 638 q 240 613 282 638 q 193 521 199 589 q 146 465 186 465 q 101 515 101 465 q 105 556 101 529 q 108 597 108 583 q 105 638 108 611 q 101 678 101 664 q 115 703 101 693 q 144 713 129 713 q 183 658 183 713 q 268 699 183 682 q 375 713 336 713 q 554 663 481 713 q 639 506 639 606 q 531 375 639 417 q 696 206 696 343 q 575 32 696 86 q 351 -7 488 -7 z "},"":{"ha":1004,"x_min":25,"x_max":979,"o":"m 813 172 q 821 103 813 119 q 881 78 833 78 q 901 81 888 78 q 921 83 914 83 q 979 36 979 83 q 924 -7 979 -7 q 839 -1 894 -7 q 754 6 783 6 q 675 -1 728 6 q 596 -7 622 -7 q 540 36 540 -7 q 600 83 540 83 q 618 81 606 83 q 638 78 631 78 q 696 104 682 78 q 704 172 704 121 l 704 431 l 343 189 q 300 122 300 160 q 319 83 300 93 q 367 78 332 78 q 386 81 374 78 q 404 83 399 83 q 464 36 464 83 q 408 -7 464 -7 q 329 -1 382 -7 q 250 6 276 6 q 165 -1 221 6 q 81 -7 110 -7 q 25 36 25 -7 q 83 83 25 83 q 103 81 90 83 q 124 78 117 78 q 183 103 171 78 q 192 172 192 119 l 192 513 q 183 582 192 565 q 124 607 171 607 q 103 604 117 607 q 83 601 90 601 q 25 649 25 601 q 81 692 25 692 q 164 686 108 692 q 247 681 219 681 q 328 686 274 681 q 408 692 382 692 q 464 649 464 692 q 404 601 464 601 q 386 604 399 601 q 367 607 374 607 q 308 581 322 607 q 300 513 300 564 l 300 254 l 704 539 q 690 592 704 578 q 638 607 676 607 q 618 604 631 607 q 600 601 606 601 q 540 649 540 601 q 596 692 540 692 q 676 686 622 692 q 757 681 731 681 q 840 686 785 681 q 924 692 896 692 q 979 649 979 692 q 921 601 979 601 q 901 604 914 601 q 881 607 888 607 q 821 582 833 607 q 813 513 813 565 l 813 172 z "},"":{"ha":1004,"x_min":25,"x_max":979,"o":"m 813 172 q 821 103 813 119 q 881 78 833 78 q 901 81 888 78 q 921 83 914 83 q 979 36 979 83 q 924 -7 979 -7 q 839 -1 894 -7 q 754 6 783 6 q 675 -1 728 6 q 596 -7 622 -7 q 540 36 540 -7 q 600 83 540 83 q 618 81 606 83 q 638 78 631 78 q 696 104 682 78 q 704 172 704 121 l 704 431 l 343 189 q 300 122 300 160 q 319 83 300 93 q 367 78 332 78 q 386 81 374 78 q 404 83 399 83 q 464 36 464 83 q 408 -7 464 -7 q 329 -1 382 -7 q 250 6 276 6 q 165 -1 221 6 q 81 -7 110 -7 q 25 36 25 -7 q 83 83 25 83 q 103 81 90 83 q 124 78 117 78 q 183 103 171 78 q 192 172 192 119 l 192 513 q 183 582 192 565 q 124 607 171 607 q 103 604 117 607 q 83 601 90 601 q 25 649 25 601 q 81 692 25 692 q 164 686 108 692 q 247 681 219 681 q 328 686 274 681 q 408 692 382 692 q 464 649 464 692 q 404 601 464 601 q 386 604 399 601 q 367 607 374 607 q 308 581 322 607 q 300 513 300 564 l 300 254 l 704 539 q 690 592 704 578 q 638 607 676 607 q 618 604 631 607 q 600 601 606 601 q 540 649 540 601 q 596 692 540 692 q 676 686 622 692 q 757 681 731 681 q 840 686 785 681 q 924 692 896 692 q 979 649 979 692 q 921 601 979 601 q 901 604 914 601 q 881 607 888 607 q 821 582 833 607 q 813 513 813 565 l 813 172 m 501 767 q 311 890 311 767 q 375 957 311 957 q 442 907 442 957 q 437 885 442 900 q 432 864 432 871 q 501 840 432 840 q 578 864 578 840 q 572 885 578 871 q 567 907 567 900 q 635 957 567 957 q 697 890 697 957 q 501 767 697 767 z "},"":{"ha":926,"x_min":25,"x_max":900,"o":"m 194 165 l 194 525 q 185 586 194 571 q 128 607 171 607 q 108 604 121 607 q 90 601 96 601 q 31 649 31 601 q 86 692 31 692 q 163 685 113 692 q 240 679 214 679 q 306 685 263 679 q 372 692 350 692 q 426 649 426 692 q 383 601 426 601 q 358 604 375 601 q 333 607 342 607 q 299 525 299 607 l 299 440 q 421 388 299 388 q 526 406 497 388 q 565 507 565 431 q 721 692 565 692 q 883 551 883 692 q 818 468 883 468 q 758 526 758 468 q 767 551 758 536 q 775 576 775 567 q 732 607 775 607 q 678 563 688 607 q 667 464 672 513 q 614 363 657 397 l 614 358 q 711 247 692 321 q 721 133 713 240 q 765 81 724 81 q 803 128 803 81 q 801 153 803 136 q 800 179 800 171 q 851 238 800 238 q 900 175 900 238 q 900 151 900 167 q 899 129 899 136 q 756 -8 899 -8 q 622 75 642 -8 q 606 229 614 151 q 450 313 581 313 q 356 310 371 313 q 299 253 299 299 l 299 165 q 307 100 299 114 q 367 81 319 81 q 395 84 376 81 q 424 88 414 88 q 478 43 478 88 q 406 -8 478 -8 q 328 -1 379 -8 q 250 6 276 6 q 174 -1 225 6 q 97 -8 124 -8 q 25 43 25 -8 q 39 74 25 61 q 71 88 53 88 q 98 84 81 88 q 125 81 115 81 q 185 100 172 81 q 194 165 194 114 z "},"":{"ha":985,"x_min":0,"x_max":960,"o":"m 685 178 l 685 507 q 678 578 685 561 q 618 607 664 607 q 580 604 606 607 q 540 601 554 601 q 490 604 524 601 q 439 607 456 607 q 379 578 393 607 q 372 507 372 561 l 372 304 q 344 90 372 157 q 176 -12 300 -12 q 60 25 113 -12 q 0 128 0 67 q 19 188 0 164 q 74 211 39 211 q 142 143 142 211 q 131 118 142 133 q 121 93 121 103 q 181 69 135 69 q 260 140 242 69 q 268 261 268 174 l 268 507 q 257 581 268 563 q 192 607 242 607 q 172 604 185 607 q 151 601 158 601 q 93 649 93 601 q 176 692 93 692 q 358 686 238 692 q 540 681 479 681 q 713 686 597 681 q 885 692 828 692 q 960 649 960 692 q 901 601 960 601 q 881 604 894 601 q 861 607 868 607 q 800 579 813 607 q 793 507 793 564 l 793 178 q 800 106 793 121 q 861 78 813 78 q 881 81 868 78 q 901 83 894 83 q 960 36 960 83 q 904 -7 960 -7 q 820 -1 876 -7 q 735 4 764 4 q 656 -1 708 4 q 576 -7 603 -7 q 521 36 521 -7 q 581 83 521 83 q 599 81 586 83 q 618 78 611 78 q 678 107 664 78 q 685 178 685 124 z "},"":{"ha":1172,"x_min":25,"x_max":1147,"o":"m 586 150 l 760 617 q 839 692 788 692 q 885 687 854 692 q 932 682 917 682 q 1006 687 957 682 q 1079 692 1054 692 q 1147 651 1147 692 q 1104 606 1147 606 q 1072 608 1093 606 q 1039 611 1050 611 q 969 546 969 611 l 969 139 q 1035 74 969 74 q 1067 76 1046 74 q 1100 79 1089 79 q 1147 39 1147 79 q 1088 -7 1147 -7 q 1013 -1 1063 -7 q 938 6 963 6 q 857 -1 911 6 q 776 -7 803 -7 q 719 39 719 -7 q 760 79 719 79 q 785 76 768 79 q 810 74 801 74 q 864 139 864 74 q 863 296 864 175 q 863 454 861 394 q 869 613 864 542 l 856 613 l 650 106 q 631 57 650 79 q 586 35 613 35 q 539 56 560 35 q 518 104 518 78 l 313 613 l 301 613 q 307 139 307 526 q 361 74 307 74 q 388 76 369 74 q 414 79 406 79 q 451 39 451 79 q 394 -7 451 -7 q 315 -1 368 -7 q 235 6 261 6 q 158 -1 210 6 q 82 -7 107 -7 q 25 39 25 -7 q 72 79 25 79 q 105 76 83 79 q 138 74 126 74 q 200 139 200 74 l 200 546 q 185 597 200 582 q 132 611 171 611 q 99 608 121 611 q 67 606 78 606 q 25 651 25 606 q 92 692 25 692 q 165 687 117 692 q 239 682 214 682 q 285 687 254 682 q 332 692 317 692 q 413 617 385 692 l 586 150 z "},"":{"ha":1004,"x_min":25,"x_max":979,"o":"m 813 172 q 821 103 813 119 q 881 78 833 78 q 901 81 888 78 q 921 83 914 83 q 979 36 979 83 q 924 -7 979 -7 q 839 -1 894 -7 q 754 6 783 6 q 675 -1 728 6 q 596 -7 622 -7 q 540 36 540 -7 q 600 83 540 83 q 618 81 606 83 q 638 78 631 78 q 696 104 682 78 q 704 172 704 121 l 704 313 l 300 313 l 300 172 q 308 104 300 121 q 367 78 322 78 q 386 81 374 78 q 404 83 399 83 q 464 36 464 83 q 408 -7 464 -7 q 329 -1 382 -7 q 250 6 276 6 q 165 -1 221 6 q 81 -7 110 -7 q 25 36 25 -7 q 83 83 25 83 q 103 81 90 83 q 124 78 117 78 q 183 103 171 78 q 192 172 192 119 l 192 513 q 183 582 192 565 q 124 607 171 607 q 103 604 117 607 q 83 601 90 601 q 25 649 25 601 q 81 692 25 692 q 164 686 108 692 q 247 681 219 681 q 328 686 274 681 q 408 692 382 692 q 464 649 464 692 q 404 601 464 601 q 386 604 399 601 q 367 607 374 607 q 308 581 322 607 q 300 513 300 564 l 300 400 l 704 400 l 704 513 q 696 581 704 564 q 638 607 682 607 q 618 604 631 607 q 600 601 606 601 q 540 649 540 601 q 596 692 540 692 q 676 686 622 692 q 757 681 731 681 q 840 686 785 681 q 924 692 896 692 q 979 649 979 692 q 921 601 979 601 q 901 604 914 601 q 881 607 888 607 q 821 582 833 607 q 813 513 813 565 l 813 172 z "},"":{"ha":814,"x_min":53,"x_max":760,"o":"m 165 346 q 222 151 165 221 q 407 75 285 75 q 589 153 525 75 q 647 346 647 225 q 590 543 647 469 q 407 625 526 625 q 224 543 288 625 q 165 346 165 468 m 53 346 q 147 612 53 511 q 406 713 242 713 q 666 613 572 713 q 760 346 760 514 q 667 82 760 176 q 404 -12 574 -12 q 146 84 239 -12 q 53 346 53 181 z "},"":{"ha":994,"x_min":25,"x_max":969,"o":"m 192 178 l 192 507 q 185 579 192 564 q 124 607 172 607 q 103 604 117 607 q 83 601 90 601 q 25 649 25 601 q 97 692 25 692 q 250 686 149 692 q 401 681 351 681 l 590 681 q 742 686 642 681 q 894 692 843 692 q 969 649 969 692 q 911 601 969 601 q 891 604 904 601 q 871 607 878 607 q 810 579 822 607 q 803 507 803 564 l 803 178 q 810 106 803 121 q 871 78 822 78 q 891 81 878 78 q 911 83 904 83 q 969 36 969 83 q 914 -7 969 -7 q 829 -1 885 -7 q 744 6 774 6 q 665 -1 718 6 q 586 -7 613 -7 q 531 36 531 -7 q 590 83 531 83 q 608 81 596 83 q 628 78 621 78 q 688 107 674 78 q 694 178 694 124 l 694 507 q 688 578 694 561 q 628 607 674 607 q 563 604 606 607 q 497 601 519 601 q 432 604 475 601 q 367 607 389 607 q 307 578 321 607 q 300 507 300 561 l 300 178 q 307 107 300 124 q 367 78 321 78 q 386 81 374 78 q 404 83 399 83 q 464 36 464 83 q 408 -7 464 -7 q 329 -1 382 -7 q 250 6 276 6 q 165 -1 221 6 q 81 -7 110 -7 q 25 36 25 -7 q 83 83 25 83 q 103 81 90 83 q 124 78 117 78 q 185 106 172 78 q 192 178 192 121 z "},"":{"ha":861,"x_min":1,"x_max":808,"o":"m 275 394 l 275 272 q 326 124 275 176 q 472 71 378 71 q 642 156 585 71 q 692 347 692 229 q 642 536 692 463 q 474 622 583 622 q 324 554 378 622 q 275 394 275 493 m 275 58 l 275 -78 q 285 -156 275 -139 q 329 -172 296 -172 q 357 -172 336 -172 q 392 -171 378 -171 q 453 -219 453 -171 q 397 -264 453 -264 q 299 -258 364 -264 q 200 -253 233 -253 q 133 -258 178 -253 q 65 -264 88 -264 q 17 -222 17 -264 q 63 -174 17 -174 q 83 -174 68 -174 q 104 -175 97 -175 q 160 -146 149 -175 q 165 -78 165 -132 l 165 488 q 161 561 165 542 q 115 606 150 604 q 46 608 81 607 q 1 647 1 614 q 42 692 1 692 q 64 689 49 692 q 86 686 79 686 q 158 689 110 686 q 231 692 207 692 q 274 664 268 692 q 275 603 275 660 q 494 717 349 717 q 732 601 646 717 q 808 342 808 499 q 725 85 808 183 q 481 -22 636 -22 q 275 58 360 -22 z "},"":{"ha":726,"x_min":53,"x_max":681,"o":"m 53 346 q 136 610 53 511 q 386 715 224 715 q 569 668 490 715 q 664 515 664 613 q 628 425 664 461 q 539 389 593 389 q 474 450 474 389 q 506 505 474 476 q 539 547 539 533 q 483 608 539 588 q 394 625 442 625 q 215 536 275 625 q 164 333 164 460 q 214 150 164 224 q 378 67 272 67 q 518 124 469 67 q 574 229 540 149 q 628 286 597 286 q 681 236 681 286 q 581 46 681 121 q 372 -22 490 -22 q 131 86 217 -22 q 53 346 53 186 z "},"":{"ha":756,"x_min":25,"x_max":731,"o":"m 322 519 q 308 589 322 572 q 239 606 293 606 q 143 599 158 606 q 107 517 107 583 q 111 477 107 503 q 115 439 115 451 q 101 402 115 418 q 67 386 88 386 q 25 438 25 386 q 29 494 25 457 q 33 550 33 531 q 29 590 33 564 q 25 631 25 617 q 94 692 25 692 q 203 686 131 692 q 314 681 276 681 l 444 681 q 553 686 481 681 q 663 692 626 692 q 731 631 731 692 q 726 590 731 617 q 722 550 722 564 q 726 494 722 531 q 731 438 731 457 q 689 386 731 386 q 654 402 668 386 q 640 439 640 418 q 644 478 640 451 q 647 517 647 504 q 611 599 647 585 q 514 606 596 606 q 447 588 461 606 q 433 519 433 569 l 433 168 q 444 104 433 119 q 503 83 457 83 q 526 87 511 83 q 549 90 540 90 q 603 46 603 90 q 531 -6 603 -6 q 453 1 504 -6 q 378 8 403 8 q 302 1 353 8 q 225 -6 251 -6 q 153 46 153 -6 q 167 77 153 64 q 199 90 181 90 q 226 87 208 90 q 253 83 243 83 q 313 103 300 83 q 322 168 322 118 l 322 519 z "},"":{"ha":851,"x_min":-17,"x_max":851,"o":"m 169 -275 q 40 -237 92 -275 q -17 -122 -17 -197 q 7 -54 -17 -81 q 71 -28 31 -28 q 142 -89 142 -28 q 122 -126 142 -106 q 103 -158 103 -147 q 171 -185 103 -185 q 305 -124 242 -185 q 368 7 368 -62 q 365 33 368 26 l 179 533 q 106 611 150 611 q 81 608 97 611 q 57 606 65 606 q -1 649 -1 606 q 65 694 -1 694 q 149 688 93 694 q 232 681 204 681 q 294 688 253 681 q 357 694 336 694 q 400 651 400 694 q 354 606 400 606 q 331 608 346 606 q 307 611 315 611 q 278 575 278 611 q 438 128 278 565 q 593 575 593 565 q 561 611 593 611 q 538 608 553 611 q 515 606 524 606 q 471 651 471 606 q 514 694 471 694 q 575 688 533 694 q 638 681 617 681 q 715 688 664 681 q 793 694 767 694 q 851 650 851 694 q 799 606 851 606 q 779 608 792 606 q 760 611 767 611 q 689 533 718 611 l 504 33 q 169 -275 390 -275 z "},"":{"ha":1265,"x_min":54,"x_max":1211,"o":"m 683 394 l 683 272 q 735 124 683 176 q 883 71 788 71 q 1049 157 994 71 q 1094 347 1094 229 q 1049 535 1094 463 q 885 622 993 622 q 735 554 789 622 q 683 394 683 492 m 515 -175 q 571 -146 560 -175 q 576 -78 576 -132 l 576 58 q 374 -22 497 -22 q 132 88 217 -22 q 54 349 54 188 q 128 604 54 503 q 360 717 211 717 q 576 603 507 717 l 576 742 q 563 844 576 822 q 503 867 550 867 q 483 867 496 867 q 464 865 469 865 q 413 903 413 865 q 464 950 413 950 q 497 947 475 950 q 529 944 518 944 q 586 947 549 944 q 643 950 624 950 q 689 892 689 950 l 689 603 q 906 717 758 717 q 1138 604 1054 717 q 1211 349 1211 503 q 1133 88 1211 188 q 892 -22 1049 -22 q 689 58 768 -22 l 689 -78 q 699 -156 689 -139 q 742 -172 708 -172 q 768 -172 747 -172 q 803 -171 789 -171 q 864 -219 864 -171 q 808 -264 864 -264 q 714 -258 776 -264 q 619 -251 651 -251 q 548 -258 596 -251 q 476 -264 500 -264 q 428 -222 428 -264 q 472 -172 428 -172 q 494 -174 479 -172 q 515 -175 508 -175 m 582 394 q 531 554 582 492 q 381 622 476 622 q 217 535 272 622 q 171 347 171 463 q 217 157 171 229 q 382 71 271 71 q 530 124 478 71 q 582 272 582 176 l 582 394 z "},"":{"ha":856,"x_min":1,"x_max":840,"o":"m 421 428 q 496 511 458 469 q 553 597 553 578 q 535 607 553 607 q 517 604 529 607 q 500 601 506 601 q 456 646 456 601 q 506 692 456 692 q 562 686 524 692 q 619 681 600 681 q 696 686 644 681 q 772 692 747 692 q 826 649 826 692 q 769 601 826 601 q 753 604 764 601 q 736 607 742 607 q 653 561 690 607 l 483 356 l 678 124 q 757 78 717 78 q 773 81 763 78 q 789 83 783 83 q 840 39 840 83 q 792 -7 840 -7 q 724 -1 769 -7 q 657 6 679 6 q 583 -1 632 6 q 508 -7 533 -7 q 458 36 458 -7 q 514 83 458 83 q 538 81 522 83 q 561 78 553 78 q 582 89 582 78 q 508 189 571 118 q 421 288 464 239 q 335 188 378 238 q 261 89 261 100 q 283 78 261 78 q 306 81 290 78 q 328 83 321 83 q 383 36 383 83 q 333 -7 383 -7 q 259 -1 308 -7 q 185 6 210 6 q 119 -1 163 6 q 53 -7 75 -7 q 1 39 1 -7 q 54 83 1 83 q 70 81 60 83 q 86 78 81 78 q 164 124 126 78 l 358 357 l 186 561 q 103 607 147 607 q 86 604 97 607 q 69 601 75 601 q 13 649 13 601 q 68 692 13 692 q 144 686 93 692 q 219 681 194 681 q 278 686 239 681 q 336 692 317 692 q 383 651 383 692 q 328 601 383 601 q 316 604 324 601 q 304 607 308 607 q 286 597 286 607 q 347 513 286 583 q 421 428 383 469 z "},"":{"ha":994,"x_min":25,"x_max":979,"o":"m 803 172 q 811 103 803 119 q 871 78 824 78 q 891 81 878 78 q 911 83 904 83 q 979 22 979 83 q 975 -18 979 8 q 971 -58 971 -44 q 975 -108 971 -75 q 979 -157 979 -140 q 938 -208 979 -208 q 903 -192 917 -208 q 889 -156 889 -176 q 892 -117 889 -143 q 896 -78 896 -90 q 883 -19 896 -29 q 700 -1 869 -10 q 497 6 557 6 q 299 -1 431 6 q 100 -7 167 -7 q 25 36 25 -7 q 83 83 25 83 q 103 81 90 83 q 124 78 117 78 q 183 103 171 78 q 192 172 192 119 l 192 513 q 183 582 192 565 q 124 607 171 607 q 103 604 117 607 q 83 601 90 601 q 25 649 25 601 q 81 692 25 692 q 165 686 108 692 q 250 681 221 681 q 329 686 276 681 q 408 692 382 692 q 464 649 464 692 q 404 601 464 601 q 386 604 399 601 q 367 607 374 607 q 308 581 322 607 q 300 513 300 564 l 300 172 q 308 104 300 121 q 367 78 322 78 q 432 81 389 78 q 497 83 475 83 q 563 81 519 83 q 628 78 606 78 q 686 104 672 78 q 694 172 694 121 l 694 513 q 686 581 694 564 q 628 607 672 607 q 608 604 621 607 q 590 601 596 601 q 531 649 531 601 q 586 692 531 692 q 665 686 613 692 q 744 681 718 681 q 830 686 774 681 q 914 692 886 692 q 969 649 969 692 q 911 601 969 601 q 891 604 904 601 q 871 607 878 607 q 811 582 824 607 q 803 513 803 565 l 803 172 z "},"":{"ha":935,"x_min":17,"x_max":910,"o":"m 740 167 q 750 101 740 117 q 810 82 764 82 q 837 85 819 82 q 864 89 854 89 q 910 44 910 89 q 838 -7 910 -7 q 760 0 811 -7 q 685 7 710 7 q 594 0 654 7 q 504 -7 535 -7 q 432 44 432 -7 q 486 89 432 89 q 515 85 496 89 q 543 82 533 82 q 615 97 597 82 q 632 167 632 111 l 632 333 q 415 231 563 231 q 201 315 264 231 q 154 479 160 372 q 142 594 149 586 q 97 607 131 607 q 77 604 90 607 q 57 601 64 601 q 17 647 17 601 q 54 692 17 692 q 131 686 81 692 q 208 681 182 681 q 289 686 235 681 q 369 692 343 692 q 425 649 425 692 q 365 601 425 601 q 347 604 360 601 q 328 607 335 607 q 264 576 275 607 q 261 496 261 568 q 421 314 261 314 q 575 377 518 314 q 632 539 632 440 q 611 600 632 589 q 564 607 597 607 q 544 604 557 607 q 524 601 531 601 q 465 649 465 601 q 521 692 465 692 q 604 686 549 692 q 688 681 660 681 q 768 686 714 681 q 849 692 822 692 q 904 649 904 692 q 844 601 904 601 q 826 604 839 601 q 807 607 814 607 q 749 588 760 607 q 740 539 740 574 l 740 167 z "},"":{"ha":1338,"x_min":24,"x_max":1314,"o":"m 617 389 q 613 474 617 417 q 610 560 610 532 q 668 642 610 642 q 726 560 726 642 q 723 474 726 532 q 719 389 719 417 l 719 194 q 746 93 719 118 q 824 71 767 71 q 868 72 836 71 q 921 74 900 74 q 997 90 974 74 q 1019 161 1019 107 l 1019 540 q 965 611 1019 611 q 934 609 957 611 q 897 607 911 607 q 853 649 853 607 q 919 692 853 692 q 1007 686 949 692 q 1094 681 1065 681 q 1178 686 1122 681 q 1261 692 1233 692 q 1314 646 1314 692 q 1256 607 1314 607 q 1221 609 1243 607 q 1192 611 1199 611 q 1131 544 1131 611 l 1131 139 q 1197 74 1131 74 q 1231 76 1208 74 q 1265 79 1254 79 q 1314 39 1314 79 q 1100 -7 1314 -7 q 919 -1 1040 -7 q 739 6 799 6 l 603 6 q 405 -1 536 6 q 207 -7 274 -7 q 100 -4 121 -7 q 24 39 24 4 q 69 79 24 79 q 107 76 82 79 q 144 74 132 74 q 207 139 207 74 l 207 546 q 139 611 207 611 q 104 609 128 611 q 69 607 81 607 q 24 647 24 607 q 76 692 24 692 q 160 686 104 692 q 243 681 215 681 q 330 686 272 681 q 417 692 388 692 q 483 650 483 692 q 433 607 483 607 q 406 609 424 607 q 381 611 388 611 q 331 597 344 611 q 317 546 317 583 l 317 161 q 428 69 317 69 q 479 72 444 69 q 529 74 514 74 q 604 108 585 74 q 617 194 617 132 l 617 389 z "},"":{"ha":1338,"x_min":24,"x_max":1333,"o":"m 617 389 q 613 474 617 418 q 610 560 610 531 q 668 642 610 642 q 726 560 726 642 q 723 474 726 531 q 719 389 719 418 l 719 194 q 746 93 719 118 q 824 71 767 71 q 868 72 836 71 q 921 74 900 74 q 997 91 974 74 q 1019 161 1019 108 l 1019 540 q 965 611 1019 611 q 934 609 957 611 q 897 607 911 607 q 853 649 853 607 q 919 692 853 692 q 1007 686 949 692 q 1094 681 1065 681 q 1178 686 1122 681 q 1261 692 1233 692 q 1314 646 1314 692 q 1256 607 1314 607 q 1221 609 1243 607 q 1192 611 1199 611 q 1131 544 1131 611 l 1131 139 q 1197 74 1131 74 q 1231 76 1208 74 q 1265 79 1254 79 q 1333 18 1333 79 q 1329 -22 1333 4 q 1325 -62 1325 -49 q 1329 -110 1325 -78 q 1333 -157 1333 -142 q 1292 -208 1333 -208 q 1257 -192 1271 -208 q 1243 -156 1243 -176 q 1247 -122 1243 -144 q 1250 -86 1250 -99 q 1214 -22 1250 -37 q 983 -1 1185 -10 q 739 6 832 6 l 603 6 q 405 -1 536 6 q 207 -7 274 -7 q 100 -4 121 -7 q 24 39 24 4 q 69 79 24 79 q 107 76 82 79 q 144 74 132 74 q 207 139 207 74 l 207 546 q 140 611 207 611 q 104 609 128 611 q 69 607 81 607 q 24 647 24 607 q 76 692 24 692 q 160 686 104 692 q 243 681 215 681 q 330 686 272 681 q 417 692 388 692 q 483 650 483 692 q 433 607 483 607 q 406 609 424 607 q 381 611 388 611 q 331 597 344 611 q 317 546 317 583 l 317 161 q 428 69 317 69 q 479 72 444 69 q 529 74 514 74 q 604 108 585 74 q 617 194 617 132 l 617 389 z "},"":{"ha":913,"x_min":25,"x_max":871,"o":"m 297 126 l 297 519 q 283 589 297 572 q 214 606 268 606 q 132 597 147 606 q 107 525 107 583 q 111 492 107 514 q 115 460 115 471 q 67 407 115 407 q 25 458 25 407 q 29 508 25 475 q 33 558 33 542 q 29 594 33 571 q 25 631 25 618 q 94 692 25 692 q 193 686 128 692 q 292 681 258 681 l 410 681 q 472 686 431 681 q 533 692 513 692 q 606 640 606 692 q 551 596 606 596 q 523 599 542 596 q 494 603 504 603 q 425 590 440 603 q 406 518 406 574 l 406 442 q 446 403 406 413 q 544 396 472 396 l 568 396 q 769 369 707 396 q 871 196 871 325 q 579 -7 871 -7 q 463 -1 540 -7 q 346 6 385 6 q 258 -1 317 6 q 169 -7 199 -7 q 118 36 118 -7 q 164 74 118 74 q 199 70 175 74 q 233 67 222 67 q 297 126 297 67 m 406 243 l 406 158 q 458 74 406 92 q 569 67 482 67 q 763 186 763 67 q 569 321 763 321 q 463 315 483 321 q 406 243 406 301 z "},"":{"ha":1264,"x_min":25,"x_max":1239,"o":"m 204 126 l 204 518 q 194 583 204 568 q 135 603 181 603 q 108 599 125 603 q 81 596 90 596 q 49 609 63 596 q 35 640 35 622 q 107 692 35 692 q 184 685 133 692 q 260 678 235 678 q 350 685 290 678 q 440 692 410 692 q 513 640 513 692 q 458 596 513 596 q 430 599 449 596 q 401 603 411 603 q 332 590 347 603 q 313 518 313 574 l 313 442 q 433 396 313 397 q 657 376 601 394 q 778 196 778 335 q 486 -7 778 -7 q 369 -1 447 -7 q 253 6 292 6 q 165 -1 224 6 q 76 -7 106 -7 q 25 36 25 -7 q 71 74 25 74 q 106 70 82 74 q 140 67 129 67 q 204 126 204 67 m 313 243 l 313 158 q 365 74 313 92 q 476 67 389 67 q 669 186 669 67 q 476 321 669 321 q 369 315 390 321 q 313 243 313 301 m 1069 172 q 1078 103 1069 119 q 1138 78 1090 78 q 1158 81 1144 78 q 1178 83 1171 83 q 1236 36 1236 83 q 1181 -7 1236 -7 q 1096 -1 1151 -7 q 1011 6 1040 6 q 932 -1 985 6 q 853 -7 879 -7 q 797 36 797 -7 q 857 83 797 83 q 875 81 863 83 q 894 78 888 78 q 953 104 939 78 q 961 172 961 121 l 961 524 q 950 585 961 568 q 897 603 939 603 q 869 599 888 603 q 840 596 850 596 q 786 640 786 596 q 858 692 786 692 q 936 685 885 692 q 1014 678 988 678 q 1090 685 1039 678 q 1167 692 1140 692 q 1239 640 1239 692 q 1225 609 1239 622 q 1193 596 1211 596 q 1166 599 1183 596 q 1139 603 1149 603 q 1079 583 1092 603 q 1069 518 1069 569 l 1069 172 z "},"":{"ha":819,"x_min":25,"x_max":778,"o":"m 204 126 l 204 518 q 194 583 204 568 q 135 603 181 603 q 108 599 125 603 q 81 596 90 596 q 49 609 63 596 q 35 640 35 622 q 107 692 35 692 q 184 685 133 692 q 260 678 235 678 q 350 685 290 678 q 440 692 410 692 q 513 640 513 692 q 458 596 513 596 q 430 599 449 596 q 401 603 411 603 q 332 590 347 603 q 313 518 313 574 l 313 442 q 433 396 313 397 q 657 376 601 394 q 778 196 778 335 q 486 -7 778 -7 q 369 -1 447 -7 q 253 6 292 6 q 165 -1 224 6 q 76 -7 106 -7 q 25 36 25 -7 q 71 74 25 74 q 106 70 82 74 q 140 67 129 67 q 204 126 204 67 m 313 243 l 313 158 q 365 74 313 92 q 476 67 389 67 q 669 186 669 67 q 476 321 669 321 q 369 315 390 321 q 313 243 313 301 z "},"":{"ha":725,"x_min":46,"x_max":674,"o":"m 343 715 q 674 346 674 715 q 596 86 674 185 q 354 -22 511 -22 q 64 161 138 -22 q 46 236 46 206 q 99 286 46 286 q 153 229 129 286 q 208 124 186 149 q 349 67 257 67 q 494 132 433 67 q 554 283 554 197 q 526 314 554 310 q 476 314 529 314 q 428 311 460 314 q 381 308 397 308 q 326 357 326 308 q 381 399 326 399 q 449 396 403 399 q 517 393 494 393 q 554 421 554 393 q 496 570 554 515 q 343 625 438 625 q 247 604 296 625 q 188 538 188 578 q 220 505 188 531 q 253 450 253 479 q 176 389 253 389 q 93 421 124 389 q 63 506 63 453 q 154 668 63 611 q 343 715 232 715 z "},"":{"ha":1232,"x_min":25,"x_max":1178,"o":"m 592 346 q 829 75 592 75 q 1008 154 947 75 q 1065 346 1065 225 q 1010 543 1065 469 q 829 625 949 625 q 647 543 710 625 q 592 346 592 469 m 189 178 l 189 507 q 182 578 189 561 q 122 607 168 607 q 103 604 115 607 q 85 601 92 601 q 25 649 25 601 q 81 692 25 692 q 158 685 107 692 q 235 679 208 679 q 319 685 264 679 q 404 692 375 692 q 460 649 460 692 q 401 601 460 601 q 381 604 394 601 q 361 607 368 607 q 300 579 313 607 q 293 507 293 564 l 293 393 l 481 393 q 585 628 493 543 q 828 713 678 713 q 1086 613 994 713 q 1178 346 1178 514 q 1086 82 1178 176 q 826 -12 994 -12 q 581 74 672 -12 q 481 314 490 160 l 293 314 l 293 178 q 300 106 293 121 q 361 78 313 78 q 381 81 368 78 q 401 83 394 83 q 460 36 460 83 q 404 -7 460 -7 q 319 -1 375 -7 q 235 6 264 6 q 158 -1 208 6 q 81 -7 107 -7 q 25 36 25 -7 q 85 83 25 83 q 103 81 92 83 q 122 78 115 78 q 182 107 168 78 q 189 178 189 124 z "},"":{"ha":914,"x_min":6,"x_max":889,"o":"m 710 557 l 710 165 q 719 100 710 115 q 779 81 733 81 q 806 84 789 81 q 833 88 824 88 q 865 74 851 88 q 879 43 879 61 q 807 -8 879 -8 q 730 -1 781 -8 q 654 6 679 6 q 576 -1 628 6 q 499 -8 525 -8 q 426 43 426 -8 q 481 88 426 88 q 509 84 490 88 q 538 81 528 81 q 594 101 583 81 q 601 165 601 114 l 601 242 q 525 286 601 278 q 418 288 514 288 q 313 266 336 288 q 290 168 290 244 q 274 49 289 81 q 149 -8 244 -8 q 22 49 51 -8 q 6 193 6 83 q 53 238 6 238 q 104 179 104 238 q 103 153 104 171 q 103 128 103 136 q 139 81 103 81 q 183 119 175 81 q 185 188 183 122 q 240 314 186 279 q 136 488 136 354 q 428 690 136 690 q 544 684 467 690 q 661 678 622 678 q 749 684 690 678 q 838 690 808 690 q 889 647 889 690 q 843 610 889 610 q 808 613 832 610 q 774 617 785 617 q 710 557 710 617 m 601 440 l 601 525 q 549 610 601 592 q 438 617 525 617 q 244 497 244 617 q 438 363 244 363 q 544 368 524 363 q 601 440 601 382 z "},"":{"ha":728,"x_min":53,"x_max":683,"o":"m 167 333 l 167 328 q 217 150 167 219 q 378 69 274 69 q 519 122 467 69 q 581 219 546 149 q 631 272 607 272 q 678 222 678 272 q 661 160 678 197 q 372 -22 581 -22 q 131 86 217 -22 q 53 346 53 186 q 131 606 53 506 q 372 714 217 714 q 599 629 515 714 q 683 401 683 544 q 669 347 683 361 q 617 333 656 333 l 167 333 m 174 424 l 567 424 l 567 433 q 514 571 567 519 q 375 622 461 622 q 235 567 288 622 q 174 424 183 513 m 431 906 q 454 960 431 936 q 508 983 478 983 q 563 960 539 983 q 586 906 586 938 q 508 826 586 826 q 453 849 475 826 q 431 906 431 872 m 164 906 q 188 960 164 936 q 242 983 211 983 q 296 960 272 983 q 319 906 319 938 q 242 826 319 826 q 164 906 164 826 z "},"":{"ha":711,"x_min":0,"x_max":711,"o":"m 0 317 l 0 394 l 711 394 l 711 317 l 0 317 z "},"":{"ha":1422,"x_min":0,"x_max":1422,"o":"m 1422 317 l 0 317 l 0 394 l 1422 394 l 1422 317 z "},"":{"ha":447,"x_min":128,"x_max":319,"o":"m 211 744 q 319 665 319 744 q 232 578 319 578 q 150 624 178 578 q 128 718 128 660 q 175 872 128 778 q 275 978 226 978 q 310 946 310 978 q 260 869 310 938 q 211 744 211 801 z "},"":{"ha":447,"x_min":142,"x_max":333,"o":"m 249 800 q 142 879 142 800 q 166 944 142 919 q 231 969 190 969 q 311 922 285 969 q 333 826 333 885 q 286 672 333 767 q 186 567 235 567 q 153 599 153 567 q 201 677 153 614 q 249 800 249 740 z "},"":{"ha":447,"x_min":133,"x_max":325,"o":"m 242 -22 q 133 57 133 -22 q 158 120 133 96 q 222 144 182 144 q 325 4 325 144 q 281 -151 325 -58 q 178 -256 231 -256 q 144 -225 144 -256 q 193 -134 144 -204 q 242 -22 242 -64 z "},"":{"ha":699,"x_min":119,"x_max":581,"o":"m 472 744 q 581 665 581 744 q 556 602 581 626 q 492 578 532 578 q 389 718 389 578 q 435 872 389 778 q 535 978 485 978 q 569 946 569 978 q 521 871 569 939 q 472 744 472 803 m 203 744 q 311 665 311 744 q 224 578 311 578 q 142 624 169 578 q 119 718 119 660 q 165 872 119 779 q 267 978 217 978 q 301 946 301 978 q 252 870 301 938 q 203 744 203 803 z "},"":{"ha":699,"x_min":132,"x_max":593,"o":"m 508 800 q 401 879 401 800 q 426 944 401 919 q 489 969 450 969 q 571 922 543 969 q 593 826 593 885 q 546 672 593 767 q 444 567 494 567 q 411 599 411 567 q 460 674 411 608 q 508 800 508 739 m 240 800 q 132 879 132 800 q 157 944 132 919 q 222 969 182 969 q 303 922 276 969 q 325 826 325 885 q 279 672 325 765 q 178 567 228 567 q 144 599 144 567 q 192 676 144 613 q 240 800 240 740 z "},"":{"ha":699,"x_min":128,"x_max":588,"o":"m 503 -22 q 394 57 394 -22 q 419 121 394 97 q 485 144 444 144 q 588 4 588 144 q 543 -151 588 -57 q 442 -256 493 -256 q 407 -225 407 -256 q 455 -147 407 -214 q 503 -22 503 -81 m 236 -22 q 128 57 128 -22 q 152 120 128 96 q 217 144 176 144 q 319 4 319 144 q 275 -151 319 -58 q 172 -256 225 -256 q 139 -225 139 -256 q 188 -134 139 -204 q 236 -22 236 -64 z "},"":{"ha":711,"x_min":42,"x_max":669,"o":"m 356 -250 q 299 -218 311 -250 q 292 -147 292 -201 q 299 101 292 -64 q 306 349 306 265 q 299 544 306 521 q 222 575 289 575 q 150 571 167 575 q 108 525 108 561 q 110 507 108 519 q 113 488 113 494 q 74 458 113 458 q 42 506 42 458 q 45 555 42 522 q 49 604 49 588 q 45 656 49 621 q 42 707 42 690 q 74 753 42 753 q 111 721 111 753 q 110 703 111 715 q 108 686 108 692 q 154 642 108 651 q 228 638 172 638 q 286 652 269 638 q 303 707 303 667 q 297 805 303 740 q 292 903 292 869 q 306 955 292 940 q 356 969 319 969 q 406 955 392 969 q 419 903 419 940 q 413 805 419 871 q 407 707 407 739 q 424 651 407 665 q 483 638 442 638 q 556 642 538 638 q 601 686 601 651 q 599 704 601 692 q 597 722 597 717 q 636 753 597 753 q 669 707 669 753 q 666 656 669 690 q 663 604 663 621 q 666 555 663 588 q 669 506 669 522 q 636 458 669 458 q 599 490 599 458 q 600 508 599 496 q 601 525 601 519 q 560 571 601 561 q 489 575 543 575 q 415 550 433 575 q 401 476 401 532 q 410 165 401 372 q 419 -147 419 -43 q 413 -218 419 -201 q 356 -250 400 -250 z "},"":{"ha":839,"x_min":214,"x_max":625,"o":"m 214 529 q 274 674 214 614 q 419 733 335 733 q 564 673 503 733 q 625 529 625 613 q 564 383 625 444 q 418 322 503 322 q 274 383 333 322 q 214 529 214 444 z "},"":{"ha":1422,"x_min":151,"x_max":1271,"o":"m 151 64 q 176 125 151 100 q 236 150 200 150 q 297 125 272 150 q 322 64 322 100 q 297 3 322 28 q 236 -22 272 -22 q 176 3 200 -22 q 151 64 151 28 m 625 64 q 649 125 625 100 q 710 150 674 150 q 771 125 746 150 q 796 64 796 100 q 770 3 796 29 q 710 -22 744 -22 q 649 3 674 -22 q 625 64 625 28 m 1100 64 q 1124 125 1100 100 q 1185 150 1149 150 q 1246 125 1221 150 q 1271 64 1271 100 q 1245 3 1271 29 q 1185 -22 1219 -22 q 1124 3 1149 -22 q 1100 64 1100 28 z "},"":{"ha":1715,"x_min":58,"x_max":1658,"o":"m 806 267 q 829 143 806 193 q 925 75 860 75 q 1021 143 990 75 q 1044 267 1044 193 q 1021 390 1044 340 q 925 458 990 458 q 829 390 860 458 q 806 267 806 340 m 703 269 q 753 467 703 390 q 925 558 811 558 q 1099 468 1040 558 q 1150 269 1150 390 q 1100 71 1150 149 q 925 -19 1040 -19 q 753 72 811 -19 q 703 269 703 149 m 1211 269 q 1261 467 1211 390 q 1435 558 1321 558 q 1608 467 1549 558 q 1658 269 1658 389 q 1608 71 1658 147 q 1435 -19 1550 -19 q 1261 72 1321 -19 q 1211 269 1211 149 m 1315 267 q 1339 143 1315 193 q 1435 75 1369 75 q 1531 143 1500 75 q 1554 267 1554 193 q 1532 392 1554 342 q 1435 458 1500 458 q 1339 390 1369 458 q 1315 267 1315 340 m 161 669 q 186 543 161 594 q 285 476 218 476 q 383 543 351 476 q 408 669 408 594 q 383 793 408 743 q 285 858 351 858 q 186 793 218 858 q 161 669 161 743 m 711 764 q 596 728 663 728 q 494 776 540 728 q 506 672 506 717 q 456 471 506 549 q 281 378 397 378 q 108 469 167 378 q 58 667 58 546 q 108 865 58 789 q 282 956 167 956 q 458 882 356 956 q 614 808 561 808 q 732 854 681 808 q 803 938 749 868 q 867 983 839 983 q 908 958 908 983 q 397 -8 908 953 q 342 -39 381 -39 q 304 -12 304 -39 q 711 764 304 -4 z "},"":{"ha":1525,"x_min":0,"x_max":1493,"o":"m 896 135 l 901 135 l 901 653 q 1167 967 901 967 q 1308 919 1250 967 q 1365 790 1365 872 q 1335 672 1365 718 q 1232 617 1300 617 q 1115 719 1115 617 q 1174 776 1115 776 q 1214 758 1196 776 q 1232 718 1232 740 q 1261 779 1261 729 q 1164 865 1261 865 q 1050 810 1088 865 q 1017 683 1017 763 l 1017 122 q 910 -7 1017 -7 q 840 17 865 -7 q 800 81 825 32 l 419 821 l 414 821 l 414 218 q 364 56 414 117 q 210 -12 308 -12 q 63 36 121 -12 q 0 175 0 88 q 35 292 0 242 q 138 349 75 349 q 250 246 250 349 q 192 189 250 189 q 133 235 146 189 q 104 186 104 225 q 201 88 104 88 q 299 218 299 88 l 299 736 q 214 861 299 861 q 168 858 199 861 q 122 856 138 856 q 75 908 75 856 q 140 967 75 967 q 202 961 161 967 q 264 956 243 956 q 339 961 289 956 q 414 967 389 967 q 531 867 481 967 l 896 135 m 1232 364 q 1244 286 1232 310 q 1313 256 1263 256 q 1394 364 1394 256 q 1313 474 1394 474 q 1232 364 1232 474 m 1133 364 q 1181 506 1133 449 q 1313 563 1229 563 q 1446 507 1399 563 q 1493 364 1493 451 q 1446 224 1493 276 q 1311 167 1397 167 q 1179 225 1229 167 q 1133 364 1133 279 m 1432 100 q 1465 87 1451 100 q 1479 54 1479 74 q 1465 22 1479 36 q 1432 8 1451 8 l 1193 8 q 1160 22 1174 8 q 1146 54 1146 36 q 1160 87 1146 74 q 1193 100 1174 100 l 1432 100 z "},"":{"ha":1217,"x_min":25,"x_max":1167,"o":"m 208 585 l 208 894 q 197 939 208 931 q 157 947 186 947 q 76 889 76 947 q 78 856 76 879 q 81 817 81 832 q 50 783 81 783 q 25 815 25 783 q 28 858 25 829 q 31 900 31 886 q 28 931 31 911 q 25 963 25 951 q 68 1000 25 1000 q 135 997 90 1000 q 203 993 181 993 l 283 993 q 350 997 306 993 q 417 1000 394 1000 q 458 963 458 1000 q 456 931 458 951 q 453 900 453 911 q 456 858 453 886 q 458 815 458 829 q 433 783 458 783 q 403 826 403 783 q 405 856 403 838 q 407 879 407 874 q 388 935 407 922 q 325 947 369 947 q 284 937 293 947 q 275 894 275 926 l 275 585 q 314 535 275 535 q 337 536 321 535 q 361 538 353 538 q 396 511 396 538 q 350 478 396 478 q 296 483 332 478 q 242 488 260 488 q 188 483 224 488 q 133 478 151 478 q 88 510 88 478 q 119 536 88 536 q 140 535 126 536 q 158 533 154 533 q 208 585 208 533 m 599 575 l 599 903 q 561 946 599 946 q 540 944 554 946 q 518 943 525 943 q 493 972 493 943 q 533 1000 493 1000 q 578 997 549 1000 q 622 993 607 993 q 650 997 632 993 q 678 1000 668 1000 q 725 950 711 1000 l 829 568 l 933 950 q 981 1000 947 1000 q 1011 997 990 1000 q 1042 993 1032 993 q 1084 997 1056 993 q 1126 1000 1113 1000 q 1167 972 1167 1000 q 1143 943 1167 946 q 1101 946 1163 946 q 1060 903 1060 946 l 1060 575 q 1099 533 1060 533 q 1118 533 1104 533 q 1138 535 1131 535 q 1167 508 1167 535 q 1131 478 1167 478 q 1085 482 1115 478 q 1040 486 1056 486 q 992 482 1024 486 q 944 478 961 478 q 910 508 910 478 q 929 533 910 531 q 964 532 917 532 q 997 575 997 532 l 997 946 l 994 946 l 868 522 q 856 492 861 499 q 829 478 850 485 q 800 493 807 483 q 789 522 796 499 l 665 946 l 663 946 l 663 572 q 692 533 663 533 q 707 533 696 533 q 726 535 719 535 q 750 508 750 535 q 715 478 750 478 q 670 482 700 478 q 625 486 640 486 q 576 482 608 486 q 528 478 544 478 q 493 508 493 478 q 518 535 493 532 q 561 532 485 532 q 599 575 599 532 z "},"":{"ha":447,"x_min":139,"x_max":310,"o":"m 139 476 q 163 537 139 513 q 224 561 188 561 q 285 536 260 561 q 310 475 310 511 q 284 415 310 440 q 224 389 258 389 q 163 415 188 389 q 139 476 139 440 z "},"":{"ha":431,"x_min":69,"x_max":333,"o":"m 333 147 q 293 119 333 119 q 239 142 257 119 q 146 250 193 196 q 69 356 69 342 q 144 463 69 374 q 239 569 192 515 q 293 593 258 593 q 333 564 333 593 q 261 458 333 542 q 189 356 189 375 q 261 254 189 339 q 333 147 333 169 z "},"":{"ha":431,"x_min":100,"x_max":367,"o":"m 100 564 q 142 593 100 593 q 197 569 178 593 q 290 463 244 517 q 367 356 367 374 q 197 140 367 349 q 142 119 181 119 q 100 147 100 119 q 173 247 100 160 q 246 357 246 335 q 173 462 246 371 q 100 564 100 553 z "},"":{"ha":625,"x_min":42,"x_max":585,"o":"m 249 172 l 249 781 q 178 864 249 864 q 136 860 164 864 q 94 856 108 856 q 42 906 42 856 q 100 960 42 960 q 208 953 136 960 q 317 947 281 947 q 421 953 351 947 q 525 960 490 960 q 585 906 585 960 q 531 856 585 856 q 489 860 517 856 q 447 864 461 864 q 378 781 378 864 l 378 172 q 447 89 378 89 q 489 93 461 89 q 531 97 517 97 q 585 47 585 97 q 525 -7 585 -7 q 421 -1 490 -7 q 317 6 351 6 q 208 -1 281 6 q 100 -7 136 -7 q 42 47 42 -7 q 94 97 42 97 q 136 93 108 97 q 178 89 164 89 q 249 172 249 89 z "},"":{"ha":472,"x_min":25,"x_max":464,"o":"m 192 510 q 119 610 192 610 q 92 608 110 610 q 65 606 74 606 q 25 647 25 606 q 74 692 25 692 l 251 692 q 292 679 283 692 q 300 633 300 667 l 300 178 q 307 107 300 124 q 367 78 321 78 q 386 81 374 78 q 404 83 399 83 q 464 36 464 83 q 408 -7 464 -7 q 333 -1 383 -7 q 258 4 283 4 q 169 -1 228 4 q 81 -7 110 -7 q 25 36 25 -7 q 83 83 25 83 q 103 81 90 83 q 124 78 117 78 q 183 104 171 78 q 192 174 192 119 l 192 510 m 150 829 q 172 883 150 861 q 226 906 194 906 q 279 883 258 906 q 300 829 300 861 q 278 775 300 797 q 226 753 257 753 q 172 775 194 753 q 150 829 150 797 z "},"":{"ha":472,"x_min":25,"x_max":464,"o":"m 192 510 q 119 610 192 610 q 92 608 110 610 q 65 606 74 606 q 25 647 25 606 q 74 692 25 692 l 251 692 q 292 679 283 692 q 300 633 300 667 l 300 178 q 307 107 300 124 q 367 78 321 78 q 386 81 374 78 q 404 83 399 83 q 464 36 464 83 q 408 -7 464 -7 q 333 -1 383 -7 q 258 4 283 4 q 169 -1 228 4 q 81 -7 110 -7 q 25 36 25 -7 q 83 83 25 83 q 103 81 90 83 q 124 78 117 78 q 183 104 171 78 q 192 174 192 119 l 192 510 m 28 829 q 50 883 28 861 q 104 906 72 906 q 157 883 136 906 q 178 829 178 861 q 156 775 178 797 q 104 753 135 753 q 50 775 72 753 q 28 829 28 797 m 294 829 q 317 883 294 861 q 371 906 339 906 q 424 883 403 906 q 444 829 444 861 q 423 775 444 797 q 371 753 401 753 q 317 775 339 753 q 294 829 294 797 z "},"":{"ha":625,"x_min":42,"x_max":585,"o":"m 249 172 l 249 781 q 178 864 249 864 q 136 860 164 864 q 94 856 108 856 q 42 906 42 856 q 100 960 42 960 q 208 953 136 960 q 317 947 281 947 q 421 953 351 947 q 525 960 490 960 q 585 906 585 960 q 531 856 585 856 q 489 860 517 856 q 447 864 461 864 q 378 781 378 864 l 378 172 q 447 89 378 89 q 489 93 461 89 q 531 97 517 97 q 585 47 585 97 q 525 -7 585 -7 q 421 -1 490 -7 q 317 6 351 6 q 208 -1 281 6 q 100 -7 136 -7 q 42 47 42 -7 q 94 97 42 97 q 136 93 108 97 q 178 89 164 89 q 249 172 249 89 m 375 1139 q 399 1193 375 1169 q 453 1217 422 1217 q 507 1194 483 1217 q 531 1139 531 1171 q 453 1060 531 1060 q 397 1083 419 1060 q 375 1139 375 1106 m 108 1139 q 132 1193 108 1169 q 186 1217 156 1217 q 240 1194 217 1217 q 264 1139 264 1171 q 186 1060 264 1060 q 108 1139 108 1060 z "},"":{"ha":918,"x_min":54,"x_max":858,"o":"m 489 -19 q 54 497 54 -19 q 146 843 54 729 q 475 969 249 969 q 736 861 644 969 q 738 924 736 915 q 779 960 746 960 q 826 914 826 960 q 822 826 826 885 q 817 738 817 767 q 822 668 817 714 q 826 599 826 622 q 776 536 826 536 q 738 553 749 536 q 723 638 726 569 q 704 739 719 707 q 610 839 674 803 q 474 875 546 875 q 272 799 349 875 q 196 599 196 724 q 244 553 196 553 l 338 553 q 410 557 363 553 q 483 561 458 561 q 549 503 549 561 q 483 447 549 447 q 408 450 458 447 q 333 453 358 453 q 299 454 321 453 q 268 456 278 456 q 196 385 196 456 q 274 165 196 249 q 489 81 353 81 q 690 161 629 81 q 749 308 722 201 q 803 389 767 389 q 858 317 858 389 q 753 65 858 156 q 489 -19 653 -19 z "},"":{"ha":725,"x_min":46,"x_max":674,"o":"m 376 715 q 565 668 488 715 q 657 506 657 611 q 626 421 657 453 q 543 389 596 389 q 467 450 467 389 q 499 505 467 479 q 532 538 532 531 q 472 604 532 578 q 376 625 424 625 q 224 570 282 625 q 165 421 165 515 q 203 393 165 393 q 271 396 225 393 q 339 399 317 399 q 393 357 393 399 q 339 308 393 308 q 291 311 322 308 q 243 314 260 314 q 193 314 190 314 q 165 283 165 310 q 226 132 165 197 q 371 67 286 67 q 511 124 463 67 q 567 229 533 149 q 621 286 590 286 q 674 236 674 286 q 656 161 674 206 q 365 -22 582 -22 q 124 86 208 -22 q 46 346 46 185 q 376 715 46 715 z "}}}
